Gelasio-Italic.glyphspackage
{
glyphname = exclam;
layers = (
{
layerId = "D92FDD0B-F694-41DD-AE46-0E4F694F0F38";
shapes = (
{
closed = 1;
nodes = (
(389,432,l),
(509,1013,o),
(621,1322,o),
(632,1389,cs),
(633,1397,o),
(634,1405,o),
(634,1412,cs),
(634,1479,o),
(588,1528,o),
(522,1528,cs),
(448,1528,o),
(382,1467,o),
(370,1389,cs),
(359,1322,o),
(357,1013,o),
(309,432,c,{
name = hr00;
})
);
},
{
closed = 1;
nodes = (
(174,31,o),
(217,-28,o),
(294,-28,cs),
(374,-28,o),
(439,36,o),
(439,124,cs),
(439,195,o),
(395,249,o),
(318,249,cs),
(232,249,o),
(174,185,o),
(174,102,cs)
);
}
);
width = 678;
},
{
layerId = "BDB4B313-38B1-4B24-B843-560B185382BD";
shapes = (
{
closed = 1;
nodes = (
(424,541,l),
(563,1037,o),
(677,1210,o),
(702,1344,cs),
(705,1360,o),
(706,1375,o),
(706,1389,cs),
(706,1469,o),
(642,1528,o),
(534,1528,cs),
(435,1528,o),
(362,1466,o),
(344,1389,cs),
(318,1277,o),
(346,919,o),
(324,541,c)
);
},
{
closed = 1;
nodes = (
(126,63,o),
(187,-20,o),
(295,-20,cs),
(404,-20,o),
(492,77,o),
(492,188,cs),
(492,287,o),
(429,364,o),
(321,364,cs),
(204,364,o),
(126,256,o),
(126,163,cs)
);
}
);
width = 771;
}
);
unicode = 33;
}
{
glyphname = numbersign;
layers = (
{
layerId = "D92FDD0B-F694-41DD-AE46-0E4F694F0F38";
shapes = (
{
closed = 1;
nodes = (
(318,0,l),
(447,420,l),
(739,420,l),
(610,0,l),
(735,0,l),
(864,420,l),
(1138,420,l),
(1149,526,l),
(895,526,l),
(1014,900,l),
(1267,900,l),
(1279,1006,l),
(1046,1006,l),
(1177,1419,l),
(1050,1419,l),
(920,1006,l),
(629,1006,l),
(760,1419,l),
(633,1419,l),
(503,1006,l),
(209,1006,l),
(197,900,l),
(471,900,l),
(353,526,l),
(99,526,l),
(88,420,l),
(322,420,l),
(193,0,l,{
name = hr00;
})
);
},
{
closed = 1;
nodes = (
(597,900,l),
(888,900,l),
(770,526,l),
(478,526,l)
);
}
);
width = 1317;
},
{
layerId = "BDB4B313-38B1-4B24-B843-560B185382BD";
shapes = (
{
closed = 1;
nodes = (
(334,0,l),
(479,420,l),
(811,420,l),
(666,0,l),
(791,0,l),
(936,420,l),
(1230,420,l),
(1245,526,l),
(971,526,l),
(1102,900,l),
(1375,900,l),
(1391,1006,l),
(1138,1006,l),
(1283,1419,l),
(1156,1419,l),
(1012,1006,l),
(681,1006,l),
(826,1419,l),
(699,1419,l),
(555,1006,l),
(261,1006,l),
(245,900,l),
(519,900,l),
(389,526,l),
(135,526,l),
(120,420,l),
(354,420,l),
(209,0,l)
);
},
{
closed = 1;
nodes = (
(645,900,l),
(976,900,l),
(846,526,l),
(514,526,l)
);
}
);
width = 1440;
}
);
unicode = 35;
}
{
glyphname = dollar;
layers = (
{
layerId = "D92FDD0B-F694-41DD-AE46-0E4F694F0F38";
shapes = (
{
closed = 1;
nodes = (
(98,48,o),
(116,20,o),
(143,20,cs),
(163,20,o),
(195,32,o),
(217,61,cs),
(229,76,o),
(243,83,o),
(250,78,cs),
(311,38,o),
(436,-30,o),
(603,-30,cs),
(897,-30,o),
(1100,139,o),
(1100,356,cs),
(1100,536,o),
(910,657,o),
(739,763,cs),
(633,829,o),
(488,944,o),
(482,1071,cs),
(473,1231,o),
(602,1290,o),
(752,1290,cs),
(898,1290,o),
(1028,1185,o),
(1040,970,cs),
(1040,957,o),
(1061,948,o),
(1082,948,cs),
(1110,948,o),
(1134,952,o),
(1135,1007,cs),
(1137,1128,o),
(1158,1280,o),
(1157,1318,cs),
(1157,1336,o),
(1134,1352,o),
(1109,1352,cs),
(1071,1352,o),
(1062,1308,o),
(1021,1308,cs),
(1014,1308,o),
(1005,1306,o),
(996,1311,cs),
(968,1325,o),
(852,1369,o),
(755,1369,cs),
(440,1369,o),
(280,1206,o),
(280,1019,cs),
(280,807,o),
(441,705,o),
(600,598,cs),
(743,502,o),
(899,423,o),
(899,282,cs),
(899,137,o),
(766,59,o),
(596,59,cs,{
name = hr04;
}),
(462,59,o),
(341,134,o),
(291,257,cs),
(245,369,o),
(255,444,o),
(252,478,c),
(252,505,o),
(225,520,o),
(202,520,cs),
(175,520,o),
(155,513,o),
(154,471,c),
(152,391,o),
(132,214,o),
(102,72,cs)
);
},
{
closed = 1;
nodes = (
(491,10,l),
(464,-209,l,{
name = hr02;
}),
(459,-210,o),
(456,-213,o),
(456,-218,cs),
(456,-229,o),
(473,-246,o),
(498,-246,cs),
(518,-246,o),
(544,-235,o),
(571,-202,c),
(597,10,l,{
name = hr01;
})
);
},
{
closed = 1;
nodes = (
(812,1338,l),
(838,1539,l),
(843,1539,o),
(846,1541,o),
(846,1544,cs),
(846,1552,o),
(826,1567,o),
(798,1567,cs),
(779,1567,o),
(756,1561,o),
(732,1541,c),
(706,1338,l)
);
}
);
width = 1249;
},
{
layerId = "BDB4B313-38B1-4B24-B843-560B185382BD";
shapes = (
{
closed = 1;
nodes = (
(77,44,o),
(102,17,o),
(129,17,cs),
(147,17,o),
(177,29,o),
(199,56,cs),
(210,69,o),
(223,77,o),
(230,72,cs),
(284,33,o),
(450,-30,o),
(606,-30,cs),
(979,-30,o),
(1146,182,o),
(1146,376,cs),
(1146,583,o),
(981,707,o),
(825,806,cs),
(685,895,o),
(547,972,o),
(547,1106,cs),
(547,1240,o),
(669,1272,o),
(767,1272,cs),
(914,1272,o),
(1037,1221,o),
(1074,999,cs),
(1077,981,o),
(1110,969,o),
(1130,969,cs),
(1156,969,o),
(1179,973,o),
(1181,1025,cs),
(1185,1139,o),
(1199,1255,o),
(1207,1324,cs),
(1209,1341,o),
(1183,1351,o),
(1153,1351,cs),
(1117,1351,o),
(1118,1305,o),
(1079,1305,cs),
(1073,1305,o),
(1055,1307,o),
(1046,1312,cs),
(1019,1327,o),
(906,1367,o),
(771,1367,cs),
(457,1367,o),
(260,1218,o),
(260,1004,cs),
(260,811,o),
(409,681,o),
(551,581,c),
(702,477,o),
(858,396,o),
(858,262,cs),
(858,138,o),
(762,74,o),
(593,74,cs),
(456,74,o),
(325,117,o),
(280,260,cs),
(251,353,o),
(250,418,o),
(248,450,c),
(248,475,o),
(214,489,o),
(192,489,cs),
(167,489,o),
(138,483,o),
(137,443,c),
(133,368,o),
(112,200,o),
(82,66,cs)
);
},
{
closed = 1;
nodes = (
(520,10,l),
(493,-209,l,{
name = hr02;
}),
(488,-210,o),
(485,-213,o),
(485,-218,cs),
(485,-229,o),
(502,-246,o),
(527,-246,cs),
(547,-246,o),
(573,-235,o),
(600,-202,c),
(626,10,l,{
name = hr01;
})
);
},
{
closed = 1;
nodes = (
(865,1330,l),
(891,1531,l),
(896,1531,o),
(899,1533,o),
(899,1536,cs),
(899,1544,o),
(879,1559,o),
(851,1559,cs),
(832,1559,o),
(809,1553,o),
(785,1533,c),
(759,1330,l)
);
}
);
width = 1312;
}
);
unicode = 36;
}
{
glyphname = quotesingle;
layers = (
{
layerId = "D92FDD0B-F694-41DD-AE46-0E4F694F0F38";
shapes = (
{
closed = 1;
nodes = (
(257,967,l),
(340,1154,o),
(507,1475,o),
(524,1542,cs),
(526,1553,o),
(529,1563,o),
(530,1573,cs),
(540,1636,o),
(518,1681,o),
(455,1681,cs),
(381,1681,o),
(324,1620,o),
(302,1542,cs),
(282,1475,o),
(228,1154,o),
(197,967,c,{
name = hr00;
})
);
}
);
width = 441;
},
{
layerId = "BDB4B313-38B1-4B24-B843-560B185382BD";
shapes = (
{
closed = 1;
nodes = (
(323,967,l),
(414,1148,o),
(582,1457,o),
(603,1522,cs),
(608,1537,o),
(614,1563,o),
(614,1582,cs),
(614,1641,o),
(578,1681,o),
(498,1681,cs),
(397,1681,o),
(315,1609,o),
(300,1513,cs),
(287,1432,o),
(274,1141,o),
(243,967,c)
);
}
);
width = 551;
}
);
unicode = 39;
}
{
glyphname = parenleft;
layers = (
{
layerId = "D92FDD0B-F694-41DD-AE46-0E4F694F0F38";
shapes = (
{
closed = 1;
nodes = (
(121,-58,o),
(340,-306,o),
(545,-344,c),
(560,-261,l),
(460,-209,o),
(319,-102,o),
(319,371,cs),
(319,832,o),
(507,1461,o),
(859,1461,cs),
(869,1461,o),
(880,1460,o),
(890,1459,c),
(926,1546,l,{
name = hr02;
}),
(906,1548,o),
(887,1549,o),
(868,1549,cs),
(421,1549,o),
(121,958,o),
(121,418,cs)
);
}
);
width = 768;
},
{
layerId = "BDB4B313-38B1-4B24-B843-560B185382BD";
shapes = (
{
closed = 1;
nodes = (
(214,-16,o),
(466,-297,o),
(695,-342,c),
(710,-259,l),
(543,-100,o),
(512,217,o),
(512,444,cs),
(512,968,o),
(693,1368,o),
(1020,1457,cs),
(1028,1459,o),
(1047,1460,o),
(1054,1461,c),
(1076,1548,l),
(1066,1548,o),
(1057,1549,o),
(1048,1549,cs),
(605,1549,o),
(214,1050,o),
(214,483,cs)
);
}
);
width = 915;
}
);
unicode = 40;
}
{
glyphname = asterisk;
layers = (
{
layerId = "D92FDD0B-F694-41DD-AE46-0E4F694F0F38";
shapes = (
{
closed = 1;
nodes = (
(358,720,o),
(394,740,o),
(422,773,cs),
(446,802,o),
(541,1007,o),
(570,1051,c),
(586,1005,o),
(629,798,o),
(643,773,cs),
(661,742,o),
(690,721,o),
(723,721,cs),
(780,721,o),
(819,759,o),
(819,814,cs),
(819,894,o),
(741,933,o),
(618,1082,c),
(657,1091,o),
(850,1113,o),
(895,1126,cs),
(952,1142,o),
(992,1179,o),
(992,1232,cs),
(992,1286,o),
(952,1311,o),
(907,1311,cs),
(895,1311,o),
(877,1308,o),
(863,1304,cs),
(838,1297,o),
(666,1162,o),
(609,1134,c),
(612,1147,o),
(721,1405,o),
(721,1461,cs),
(721,1512,o),
(696,1549,o),
(641,1549,cs),
(576,1549,o),
(539,1500,o),
(530,1436,cs),
(526,1408,o),
(554,1194,o),
(554,1135,c),
(502,1162,o),
(371,1295,o),
(343,1304,cs),
(328,1309,o),
(315,1311,o),
(301,1311,cs),
(240,1311,o),
(189,1266,o),
(189,1205,cs),
(189,1166,o),
(218,1140,o),
(258,1126,cs),
(298,1112,o),
(497,1091,o),
(530,1082,c),
(477,1036,o),
(301,911,o),
(280,886,cs),
(259,861,o),
(245,828,o),
(245,802,cs),
(245,756,o),
(281,720,o),
(326,720,cs,{
name = hr00;
})
);
}
);
width = 967;
},
{
layerId = "BDB4B313-38B1-4B24-B843-560B185382BD";
shapes = (
{
closed = 1;
nodes = (
(353,634,o),
(394,656,o),
(427,694,cs),
(453,724,o),
(545,942,o),
(580,1003,c),
(598,945,o),
(649,723,o),
(666,694,cs),
(687,658,o),
(732,635,o),
(770,635,cs),
(832,635,o),
(882,694,o),
(882,754,cs),
(882,858,o),
(697,960,o),
(632,1036,c),
(680,1044,o),
(896,1051,o),
(946,1065,cs),
(1010,1083,o),
(1056,1141,o),
(1056,1198,cs),
(1056,1259,o),
(1010,1283,o),
(961,1283,cs),
(918,1283,o),
(875,1269,o),
(774,1210,cs),
(721,1179,o),
(647,1103,o),
(622,1091,c),
(630,1132,o),
(750,1363,o),
(750,1438,cs),
(750,1484,o),
(738,1549,o),
(653,1549,cs),
(579,1549,o),
(524,1500,o),
(524,1421,cs),
(524,1391,o),
(561,1175,o),
(563,1091,c),
(519,1115,o),
(378,1246,o),
(341,1264,cs),
(313,1278,o),
(291,1283,o),
(275,1283,cs),
(206,1283,o),
(147,1238,o),
(147,1168,cs),
(147,1121,o),
(180,1080,o),
(225,1065,cs),
(265,1052,o),
(495,1043,o),
(539,1036,c),
(443,955,o),
(342,902,o),
(255,822,cs),
(228,797,o),
(214,758,o),
(214,727,cs),
(214,673,o),
(265,634,o),
(316,634,cs)
);
}
);
width = 987;
}
);
unicode = 42;
userData = {
com.typemytype.robofont.mark = (
0.6,
0.609,
1,
1
);
};
}
{
glyphname = comma;
layers = (
{
background = {
shapes = (
{
closed = 1;
nodes = (
(91,0,o),
(177,0,o),
(199,-15,c),
(181,-139,o),
(143,-194,o),
(69,-271,cs),
(49,-292,o),
(42,-304,o),
(42,-317,cs),
(42,-336,o),
(76,-354,o),
(96,-354,cs),
(106,-354,o),
(116,-351,o),
(124,-346,cs),
(232,-278,o),
(378,-60,o),
(378,103,cs),
(378,209,o),
(301,257,o),
(242,257,cs),
(164,257,o),
(91,206,o),
(91,107,cs,{
name = hr00;
})
);
}
);
};
layerId = "D92FDD0B-F694-41DD-AE46-0E4F694F0F38";
shapes = (
{
closed = 1;
nodes = (
(91,0,o),
(201,-27,o),
(255,-21,c),
(203,17,l),
(194,-124,o),
(135,-203,o),
(69,-271,cs),
(49,-292,o),
(42,-304,o),
(42,-317,cs),
(42,-336,o),
(76,-354,o),
(96,-354,cs),
(106,-354,o),
(116,-351,o),
(124,-346,cs),
(232,-278,o),
(378,-60,o),
(378,103,cs),
(378,200,o),
(314,257,o),
(234,257,cs),
(156,257,o),
(91,193,o),
(91,107,cs,{
name = hr00;
})
);
}
);
width = 552;
},
{
background = {
shapes = (
{
closed = 1;
nodes = (
(79,56,o),
(150,8,o),
(180,-7,c),
(180,-103,o),
(144,-208,o),
(84,-271,cs),
(64,-292,o),
(54,-307,o),
(54,-320,cs),
(54,-339,o),
(68,-370,o),
(118,-370,cs),
(127,-370,o),
(137,-366,o),
(146,-362,cs),
(217,-330,o),
(455,-75,o),
(455,161,cs),
(455,270,o),
(394,356,o),
(285,356,cs),
(177,356,o),
(79,289,o),
(79,162,cs)
);
}
);
};
layerId = "BDB4B313-38B1-4B24-B843-560B185382BD";
shapes = (
{
closed = 1;
nodes = (
(79,63,o),
(151,-22,o),
(260,-22,c),
(186,27,l),
(190,-75,o),
(144,-208,o),
(84,-271,cs),
(64,-292,o),
(54,-307,o),
(54,-320,cs),
(54,-339,o),
(68,-370,o),
(118,-370,cs),
(127,-370,o),
(137,-366,o),
(146,-362,cs),
(217,-330,o),
(455,-75,o),
(455,161,cs),
(455,274,o),
(388,356,o),
(272,356,cs),
(168,356,o),
(79,274,o),
(79,162,cs)
);
}
);
width = 672;
}
);
unicode = 44;
}
{
glyphname = hyphen;
layers = (
{
layerId = "D92FDD0B-F694-41DD-AE46-0E4F694F0F38";
shapes = (
{
closed = 1;
nodes = (
(656,496,l),
(674,622,l),
(127,622,l),
(109,496,l,{
name = hr00;
})
);
}
);
width = 766;
},
{
layerId = "BDB4B313-38B1-4B24-B843-560B185382BD";
shapes = (
{
closed = 1;
nodes = (
(666,496,l),
(685,632,l),
(128,632,l),
(109,496,l)
);
}
);
width = 776;
}
);
unicode = 45;
}
{
glyphname = period;
layers = (
{
layerId = "D92FDD0B-F694-41DD-AE46-0E4F694F0F38";
shapes = (
{
closed = 1;
nodes = (
(96,40,o),
(130,-20,o),
(218,-20,cs),
(297,-20,o),
(360,43,o),
(360,130,cs),
(360,202,o),
(319,261,o),
(241,261,cs),
(156,261,o),
(96,194,o),
(96,112,cs,{
name = hr00;
})
);
}
);
width = 552;
},
{
layerId = "BDB4B313-38B1-4B24-B843-560B185382BD";
shapes = (
{
closed = 1;
nodes = (
(107,63,o),
(168,-20,o),
(276,-20,cs),
(385,-20,o),
(473,77,o),
(473,188,cs),
(473,287,o),
(410,364,o),
(302,364,cs),
(185,364,o),
(107,266,o),
(107,163,cs)
);
}
);
width = 672;
}
);
unicode = 46;
}
{
glyphname = zero;
layers = (
{
anchors = (
{
name = center;
pos = (641,587);
}
);
layerId = "D92FDD0B-F694-41DD-AE46-0E4F694F0F38";
shapes = (
{
closed = 1;
nodes = (
(937,-29,o),
(1136,318,o),
(1136,718,cs),
(1136,1021,o),
(992,1205,o),
(724,1205,cs),
(353,1205,o),
(148,851,o),
(148,452,cs),
(148,152,o),
(296,-29,o),
(565,-29,cs)
);
},
{
closed = 1;
nodes = (
(418,66,o),
(357,166,o),
(357,371,cs),
(357,718,o),
(434,1110,o),
(705,1110,cs),
(865,1110,o),
(926,1008,o),
(926,801,cs),
(926,489,o),
(852,66,o),
(580,66,cs)
);
}
);
width = 1257;
},
{
anchors = (
{
name = center;
pos = (735,586);
}
);
layerId = "BDB4B313-38B1-4B24-B843-560B185382BD";
shapes = (
{
closed = 1;
nodes = (
(1078,-29,o),
(1336,286,o),
(1336,686,cs),
(1336,1008,o),
(1158,1205,o),
(818,1205,cs),
(382,1205,o),
(134,891,o),
(134,507,cs),
(134,172,o),
(309,-29,o),
(649,-29,cs)
);
},
{
closed = 1;
nodes = (
(501,66,o),
(475,232,o),
(475,443,cs),
(475,784,o),
(564,1110,o),
(797,1110,cs),
(956,1110,o),
(994,952,o),
(994,738,cs),
(994,405,o),
(906,66,o),
(666,66,cs)
);
}
);
width = 1436;
}
);
unicode = 48;
}
{
glyphname = one;
layers = (
{
layerId = "D92FDD0B-F694-41DD-AE46-0E4F694F0F38";
shapes = (
{
closed = 1;
nodes = (
(110,24,o),
(120,0,o),
(142,0,cs),
(778,0,ls),
(801,0,o),
(813,26,o),
(814,41,cs),
(816,71,o),
(809,75,o),
(781,78,cs),
(721,84,o),
(557,89,o),
(568,165,cs),
(721,1189,l),
(621,1189,l),
(542,1121,o),
(406,1054,o),
(249,1054,cs),
(234,1054,o),
(230,1017,o),
(230,986,cs),
(230,958,o),
(254,921,o),
(276,921,cs),
(379,921,o),
(458,994,o),
(495,1012,c),
(363,152,ls),
(356,108,o),
(211,83,o),
(146,78,c),
(119,75,o),
(110,61,o),
(110,39,cs,{
name = hr00;
})
);
}
);
width = 880;
},
{
background = {
shapes = (
{
closed = 1;
nodes = (
(99,26,o),
(107,0,o),
(130,0,cs),
(840,0,ls),
(863,0,o),
(879,16,o),
(879,41,cs),
(879,64,o),
(876,75,o),
(848,78,cs),
(791,83,o),
(679,88,o),
(679,163,cs),
(679,167,o),
(679,171,o),
(680,175,cs),
(794,1189,l),
(589,1189,l),
(486,1116,o),
(287,1067,o),
(225,1062,cs),
(197,1059,o),
(185,1035,o),
(181,1005,cs),
(179,990,o),
(188,974,o),
(211,974,cs),
(256,974,o),
(376,985,o),
(434,994,c),
(343,152,ls),
(338,108,o),
(204,83,o),
(139,78,c),
(113,75,o),
(104,62,o),
(101,41,cs)
);
}
);
};
layerId = "BDB4B313-38B1-4B24-B843-560B185382BD";
shapes = (
{
closed = 1;
nodes = (
(77,15,o),
(90,0,o),
(112,0,cs),
(882,0,ls),
(905,0,o),
(914,32,o),
(915,47,cs),
(917,77,o),
(910,82,o),
(882,84,cs),
(776,92,o),
(666,114,o),
(675,171,cs),
(831,1189,l),
(591,1189,l),
(512,1121,o),
(376,1054,o),
(219,1054,cs),
(204,1054,o),
(200,995,o),
(200,964,cs),
(200,936,o),
(224,899,o),
(246,899,cs),
(349,899,o),
(439,955,o),
(476,973,c),
(346,158,ls),
(339,114,o),
(224,93,o),
(113,84,c),
(86,81,o),
(77,52,o),
(77,30,cs,{
name = hr00;
})
);
}
);
width = 1003;
}
);
unicode = 49;
}
{
glyphname = three;
layers = (
{
layerId = "D92FDD0B-F694-41DD-AE46-0E4F694F0F38";
shapes = (
{
closed = 1;
nodes = (
(788,-395,o),
(1008,-170,o),
(1008,97,cs),
(1008,324,o),
(776,443,o),
(657,455,c),
(869,511,o),
(1045,676,o),
(1045,886,cs,{
name = hr02;
}),
(1045,1079,o),
(898,1204,o),
(677,1204,cs),
(458,1204,o),
(188,1053,o),
(188,867,cs),
(188,790,o),
(264,773,o),
(299,773,cs),
(339,773,o),
(357,797,o),
(372,837,cs),
(445,1032,l),
(465,1054,o),
(520,1106,o),
(642,1106,cs),
(791,1106,o),
(834,1003,o),
(834,915,cs),
(834,625,o),
(656,498,o),
(496,498,cs),
(433,498,l),
(417,390,l),
(480,390,ls),
(634,390,o),
(800,331,o),
(800,94,cs,{
name = hr03;
}),
(800,-128,o),
(628,-300,o),
(396,-300,cs),
(247,-300,o),
(163,-202,o),
(146,-143,c),
(209,70,l),
(208,115,o),
(161,141,o),
(126,141,cs),
(29,141,o),
(-19,46,o),
(-19,-69,cs,{
name = hr01;
}),
(-19,-286,o),
(208,-395,o),
(399,-395,cs)
);
}
);
width = 1130;
},
{
layerId = "BDB4B313-38B1-4B24-B843-560B185382BD";
shapes = (
{
closed = 1;
nodes = (
(830,-451,o),
(1172,-283,o),
(1165,67,cs),
(1161,274,o),
(962,446,o),
(706,448,c),
(970,467,o),
(1223,634,o),
(1219,868,cs),
(1214,1067,o),
(1069,1205,o),
(730,1205,cs),
(485,1205,o),
(205,1080,o),
(205,872,cs),
(205,763,o),
(300,710,o),
(369,710,cs),
(409,710,o),
(450,735,o),
(463,776,cs),
(563,1086,l),
(588,1103,o),
(644,1107,o),
(690,1107,cs),
(847,1107,o),
(886,1014,o),
(887,926,cs),
(892,680,o),
(743,497,o),
(547,497,cs),
(484,497,l),
(464,383,l),
(527,383,ls),
(646,383,o),
(805,277,o),
(805,28,cs),
(805,-243,o),
(597,-356,o),
(456,-356,cs),
(336,-356,o),
(270,-299,o),
(241,-245,c),
(319,81,l),
(318,126,o),
(270,161,o),
(215,161,cs),
(119,161,o),
(9,75,o),
(9,-92,cs),
(9,-369,o),
(296,-451,o),
(504,-451,cs)
);
}
);
width = 1279;
}
);
unicode = 51;
}
{
glyphname = four;
layers = (
{
layerId = "D92FDD0B-F694-41DD-AE46-0E4F694F0F38";
shapes = (
{
closed = 1;
nodes = (
(742,-384,l),
(788,0,l),
(1017,0,l),
(1030,131,l),
(803,131,l),
(856,576,l),
(736,576,l),
(680,536,l),
(631,131,l),
(159,131,l),
(853,1151,l),
(855,1159,o),
(857,1170,o),
(857,1181,c),
(854,1222,o),
(794,1260,o),
(721,1260,cs),
(692,1260,o),
(665,1241,o),
(659,1229,c),
(-6,87,l),
(32,0,l),
(615,0,l),
(569,-384,l,{
name = hr00;
})
);
}
);
width = 1157;
},
{
layerId = "BDB4B313-38B1-4B24-B843-560B185382BD";
shapes = (
{
closed = 1;
nodes = (
(941,-384,l),
(983,0,l),
(1193,0,l),
(1211,164,l),
(996,164,l),
(1044,576,l),
(794,576,l),
(737,536,l),
(693,164,l),
(239,164,l),
(955,1125,ls),
(960,1132,o),
(963,1144,o),
(963,1155,cs),
(963,1204,o),
(859,1258,o),
(762,1258,cs),
(710,1258,o),
(649,1237,o),
(638,1217,cs),
(4,87,l),
(38,0,l),
(680,0,l),
(638,-384,l)
);
}
);
width = 1330;
}
);
unicode = 52;
userData = {
com.typemytype.robofont.mark = (
0.6,
0.609,
1,
1
);
};
}
{
glyphname = six;
layers = (
{
layerId = "D92FDD0B-F694-41DD-AE46-0E4F694F0F38";
shapes = (
{
closed = 1;
nodes = (
(849,-29,o),
(1073,241,o),
(1073,554,cs),
(1073,800,o),
(943,933,o),
(697,933,cs),
(559,933,o),
(445,862,o),
(382,799,c),
(455,1055,o),
(644,1340,o),
(1058,1437,c),
(1070,1529,l),
(458,1418,o),
(103,938,o),
(103,467,cs),
(103,169,o),
(250,-29,o),
(526,-29,cs)
);
},
{
closed = 1;
nodes = (
(368,66,o),
(302,164,o),
(302,349,cs),
(302,459,o),
(323,569,o),
(347,670,cs),
(415,743,o),
(528,815,o),
(656,815,cs),
(808,815,o),
(857,704,o),
(857,535,cs),
(857,288,o),
(754,66,o),
(543,66,cs)
);
}
);
width = 1159;
},
{
layerId = "BDB4B313-38B1-4B24-B843-560B185382BD";
shapes = (
{
closed = 1;
nodes = (
(1011,-29,o),
(1270,249,o),
(1270,602,cs),
(1270,794,o),
(1145,964,o),
(852,964,cs),
(726,964,o),
(575,893,o),
(511,830,c),
(581,1086,o),
(743,1359,o),
(1059,1456,c),
(1076,1548,l),
(463,1432,o),
(101,971,o),
(101,479,cs),
(101,219,o),
(258,-29,o),
(613,-29,cs)
);
},
{
closed = 1;
nodes = (
(456,66,o),
(408,171,o),
(408,317,cs),
(408,444,o),
(419,576,o),
(468,696,cs),
(485,738,o),
(647,831,o),
(763,831,cs),
(891,831,o),
(946,731,o),
(946,598,cs),
(946,327,o),
(826,66,o),
(618,66,cs)
);
}
);
width = 1327;
}
);
unicode = 54;
}
{
glyphname = eight;
layers = (
{
layerId = "D92FDD0B-F694-41DD-AE46-0E4F694F0F38";
shapes = (
{
closed = 1;
nodes = (
(130,128,o),
(278,-29,o),
(595,-29,cs),
(919,-29,o),
(1091,199,o),
(1080,412,cs,{
name = hr02;
}),
(1072,562,o),
(968,663,o),
(846,742,c),
(985,811,o),
(1132,951,o),
(1132,1133,cs,{
name = hr03;
}),
(1132,1311,o),
(1020,1449,o),
(742,1449,cs),
(515,1449,o),
(301,1306,o),
(301,1075,cs),
(301,931,o),
(380,836,o),
(471,750,c),
(253,693,o),
(130,520,o),
(130,330,cs,{
name = hr01;
})
);
},
{
closed = 1;
nodes = (
(604,920,o),
(489,984,o),
(489,1095,cs,{
name = hr05;
}),
(489,1263,o),
(577,1354,o),
(736,1354,cs),
(892,1354,o),
(947,1254,o),
(947,1131,cs),
(947,1002,o),
(882,850,o),
(770,789,c),
(723,826,ls)
);
},
{
closed = 1;
nodes = (
(772,575,o),
(881,462,o),
(888,343,cs),
(899,159,o),
(753,66,o),
(581,66,cs),
(372,66,o),
(317,221,o),
(317,341,cs),
(317,484,o),
(383,636,o),
(552,710,c,{
name = hr06;
})
);
}
);
width = 1221;
},
{
layerId = "BDB4B313-38B1-4B24-B843-560B185382BD";
shapes = (
{
closed = 1;
nodes = (
(115,148,o),
(306,-29,o),
(638,-29,cs),
(1046,-29,o),
(1245,166,o),
(1245,398,cs),
(1245,560,o),
(1122,663,o),
(981,751,c),
(1134,820,o),
(1296,952,o),
(1296,1135,cs),
(1296,1334,o),
(1110,1462,o),
(838,1462,cs),
(526,1462,o),
(289,1307,o),
(289,1079,cs),
(289,946,o),
(346,840,o),
(456,758,c),
(256,723,o),
(115,559,o),
(115,361,cs)
);
},
{
closed = 1;
nodes = (
(708,913,o),
(575,1017,o),
(575,1135,cs),
(575,1278,o),
(640,1365,o),
(802,1365,cs),
(949,1365,o),
(1037,1278,o),
(1037,1122,cs),
(1037,997,o),
(986,861,o),
(903,801,c),
(856,828,ls)
);
},
{
closed = 1;
nodes = (
(697,599,o),
(953,468,o),
(953,303,cs),
(953,143,o),
(807,66,o),
(683,66,cs),
(500,66,o),
(385,196,o),
(385,394,cs),
(385,552,o),
(461,649,o),
(528,705,c)
);
}
);
width = 1385;
}
);
unicode = 56;
}
{
glyphname = equal;
layers = (
{
layerId = "D92FDD0B-F694-41DD-AE46-0E4F694F0F38";
shapes = (
{
closed = 1;
nodes = (
(1141,696,l),
(1157,839,l),
(230,839,l),
(214,696,l,{
name = hr00;
})
);
},
{
closed = 1;
nodes = (
(1104,272,l),
(1120,415,l),
(193,415,l),
(177,272,l)
);
}
);
width = 1317;
},
{
layerId = "BDB4B313-38B1-4B24-B843-560B185382BD";
shapes = (
{
closed = 1;
nodes = (
(1226,700,l),
(1239,846,l),
(269,846,l),
(256,700,l)
);
},
{
closed = 1;
nodes = (
(1189,272,l),
(1202,418,l),
(232,418,l),
(219,272,l)
);
}
);
width = 1440;
}
);
unicode = 61;
}
{
glyphname = greater;
layers = (
{
layerId = "D92FDD0B-F694-41DD-AE46-0E4F694F0F38";
shapes = (
{
closed = 1;
nodes = (
(1191,499,l),
(1201,611,l),
(325,1060,l,{
name = hr00;
}),
(312,922,l),
(1048,554,l),
(244,187,l),
(231,51,l)
);
}
);
width = 1317;
},
{
layerId = "BDB4B313-38B1-4B24-B843-560B185382BD";
shapes = (
{
closed = 1;
nodes = (
(1280,519,l),
(1290,628,l),
(338,1115,l),
(323,952,l),
(1087,570,l),
(251,195,l),
(236,34,l)
);
}
);
width = 1440;
}
);
unicode = 62;
}
{
glyphname = question;
layers = (
{
layerId = "D92FDD0B-F694-41DD-AE46-0E4F694F0F38";
shapes = (
{
closed = 1;
nodes = (
(493,377,l),
(511,492,l),
(536,740,o),
(955,856,o),
(997,1130,cs),
(1001,1154,o),
(1003,1178,o),
(1003,1202,cs),
(1003,1382,o),
(891,1528,o),
(623,1528,cs),
(414,1528,o),
(173,1359,o),
(173,1172,cs),
(173,1093,o),
(228,1049,o),
(267,1049,cs),
(310,1049,o),
(336,1057,o),
(347,1087,c),
(421,1347,l),
(421,1347,o),
(485,1443,o),
(613,1443,cs),
(754,1443,o),
(787,1331,o),
(787,1223,cs),
(787,1193,o),
(784,1164,o),
(781,1137,cs),
(747,888,o),
(446,847,o),
(400,502,c),
(381,377,l,{
name = hr00;
})
);
},
{
closed = 1;
nodes = (
(267,36,o),
(316,-20,o),
(388,-20,cs),
(473,-20,o),
(550,58,o),
(550,140,cs),
(550,206,o),
(500,257,o),
(427,257,cs),
(341,257,o),
(267,186,o),
(267,102,cs)
);
}
);
width = 980;
},
{
layerId = "BDB4B313-38B1-4B24-B843-560B185382BD";
shapes = (
{
closed = 1;
nodes = (
(671,483,l),
(683,554,ls),
(720,774,o),
(1060,792,o),
(1163,1053,cs),
(1181,1099,o),
(1192,1154,o),
(1192,1219,cs),
(1192,1368,o),
(1079,1528,o),
(711,1528,cs),
(471,1528,o),
(176,1394,o),
(176,1157,cs),
(176,1056,o),
(229,1006,o),
(334,1006,cs),
(392,1006,o),
(451,1040,o),
(459,1075,cs),
(528,1378,l),
(528,1378,o),
(579,1443,o),
(701,1443,cs),
(850,1443,o),
(885,1350,o),
(885,1259,cs),
(885,1211,o),
(881,1170,o),
(875,1134,cs),
(818,833,o),
(549,899,o),
(497,537,cs),
(489,483,l)
);
},
{
closed = 1;
nodes = (
(358,63,o),
(419,-20,o),
(527,-20,cs),
(636,-20,o),
(724,77,o),
(724,188,cs),
(724,287,o),
(661,364,o),
(553,364,cs),
(436,364,o),
(358,256,o),
(358,163,cs)
);
}
);
width = 1123;
}
);
unicode = 63;
}
{
glyphname = at;
layers = (
{
layerId = "D92FDD0B-F694-41DD-AE46-0E4F694F0F38";
shapes = (
{
closed = 1;
nodes = (
(1150,-318,o),
(1373,-190,o),
(1470,-92,c),
(1429,-40,l),
(1429,-40,o),
(1257,-227,o),
(903,-227,cs),
(704,-227,o),
(274,-147,o),
(274,351,cs),
(274,860,o),
(638,1280,o),
(1160,1280,cs),
(1430,1280,o),
(1696,1132,o),
(1696,807,cs),
(1696,430,o),
(1394,201,o),
(1263,201,cs),
(1204,201,o),
(1187,238,o),
(1187,279,cs),
(1187,314,o),
(1200,352,o),
(1207,369,cs),
(1450,956,l),
(1278,956,l),
(1235,838,l),
(1237,892,o),
(1179,983,o),
(1064,983,cs),
(752,983,o),
(551,648,o),
(551,369,cs),
(551,189,o),
(676,120,o),
(794,120,cs),
(873,120,o),
(991,187,o),
(1030,259,c),
(1032,190,o),
(1089,112,o),
(1232,112,cs),
(1419,112,o),
(1799,360,o),
(1799,822,cs),
(1799,1227,o),
(1477,1378,o),
(1180,1378,cs),
(695,1378,o),
(146,1015,o),
(146,351,cs,{
name = hr00;
}),
(146,-148,o),
(550,-318,o),
(868,-318,cs)
);
},
{
closed = 1;
nodes = (
(757,211,o),
(750,294,o),
(750,383,cs),
(750,504,o),
(874,894,o),
(1078,894,cs),
(1161,894,o),
(1177,831,o),
(1177,774,cs),
(1177,757,o),
(1176,740,o),
(1174,726,c),
(1045,386,ls),
(1021,323,o),
(924,211,o),
(833,211,cs)
);
}
);
width = 1902;
},
{
layerId = "BDB4B313-38B1-4B24-B843-560B185382BD";
shapes = (
{
closed = 1;
nodes = (
(1279,-330,o),
(1490,-150,o),
(1545,-100,c),
(1491,-17,l),
(1434,-67,o),
(1261,-225,o),
(945,-225,cs),
(698,-225,o),
(292,-111,o),
(292,387,cs),
(292,1006,o),
(806,1341,o),
(1194,1341,cs),
(1486,1341,o),
(1758,1166,o),
(1758,846,cs),
(1758,480,o),
(1476,220,o),
(1297,220,cs),
(1256,220,o),
(1244,248,o),
(1244,279,cs),
(1244,300,o),
(1253,344,o),
(1262,362,c),
(1520,994,l),
(1296,994,l),
(1258,943,l),
(1239,984,o),
(1195,1014,o),
(1120,1014,cs),
(781,1014,o),
(547,682,o),
(547,361,cs),
(547,147,o),
(698,111,o),
(815,111,cs),
(882,111,o),
(974,141,o),
(1049,217,c),
(1074,157,o),
(1139,103,o),
(1263,103,cs),
(1495,103,o),
(1902,388,o),
(1902,869,cs),
(1902,1268,o),
(1562,1449,o),
(1222,1449,cs),
(730,1449,o),
(139,1058,o),
(139,372,cs),
(139,-126,o),
(499,-330,o),
(931,-330,cs)
);
},
{
closed = 1;
nodes = (
(815,222,o),
(805,283,o),
(805,337,cs),
(805,475,o),
(908,916,o),
(1116,916,cs),
(1164,916,o),
(1186,879,o),
(1186,828,cs),
(1186,819,o),
(1185,809,o),
(1184,799,c),
(1036,404,l),
(985,283,o),
(906,222,o),
(858,222,cs)
);
}
);
width = 1980;
}
);
unicode = 64;
userData = {
com.typemytype.robofont.mark = (
0.6,
0.609,
1,
1
);
};
}
{
glyphname = A;
layers = (
{
anchors = (
{
name = bottom;
pos = (597,0);
},
{
name = ogonek;
pos = (1169,10);
},
{
name = top;
pos = (857,1419);
}
);
guides = (
{
angle = 261.4576;
pos = (85,1083);
}
);
layerId = "D92FDD0B-F694-41DD-AE46-0E4F694F0F38";
shapes = (
{
closed = 1;
nodes = (
(974,128,o),
(975,124,o),
(975,121,cs),
(975,86,o),
(911,93,o),
(827,88,c),
(800,85,o),
(792,72,o),
(793,51,c),
(791,36,o),
(801,0,o),
(824,0,cs),
(1330,0,ls),
(1352,0,o),
(1365,36,o),
(1367,51,c),
(1367,81,o),
(1359,84,o),
(1332,88,cs),
(1294,94,o),
(1214,77,o),
(1190,165,c),
(913,1440,l),
(820,1440,l),
(125,165,l),
(83,77,o),
(-11,93,o),
(-61,88,cs),
(-89,85,o),
(-97,81,o),
(-97,51,c),
(-99,36,o),
(-93,0,o),
(-71,0,cs),
(382,0,ls),
(405,0,o),
(417,36,o),
(419,51,c),
(418,72,o),
(412,85,o),
(387,88,c),
(307,92,o),
(242,87,o),
(242,118,cs),
(242,122,o),
(242,127,o),
(245,132,cs),
(779,1114,l),
(973,132,l,{
name = hr00;
})
);
},
{
closed = 1;
nodes = (
(973,447,l),
(959,535,l),
(413,535,l),
(387,447,l)
);
}
);
width = 1374;
},
{
anchors = (
{
name = bottom;
pos = (625,0);
},
{
name = ogonek;
pos = (1330,10);
},
{
name = top;
pos = (941,1419);
}
);
layerId = "BDB4B313-38B1-4B24-B843-560B185382BD";
shapes = (
{
closed = 1;
nodes = (
(1013,132,o),
(1014,125,o),
(1014,122,cs),
(1014,87,o),
(980,95,o),
(891,88,cs),
(864,86,o),
(855,71,o),
(855,48,cs),
(855,32,o),
(862,0,o),
(884,0,cs),
(1500,0,ls),
(1522,0,o),
(1539,28,o),
(1539,53,cs),
(1539,79,o),
(1527,88,o),
(1495,88,cs),
(1425,88,o),
(1383,130,o),
(1368,184,c),
(1065,1451,l),
(832,1451,l),
(94,186,ls),
(60,128,o),
(5,105,o),
(-82,88,cs),
(-97,85,o),
(-120,79,o),
(-120,44,cs),
(-120,27,o),
(-112,0,o),
(-92,0,cs),
(377,0,ls),
(404,0,o),
(412,29,o),
(412,52,cs),
(412,72,o),
(408,83,o),
(373,87,cs),
(291,96,o),
(225,113,o),
(225,146,cs),
(225,160,o),
(236,188,o),
(243,201,cs),
(800,1195,l),
(1011,142,ls)
);
},
{
closed = 1;
nodes = (
(1013,423,l),
(993,514,l),
(346,514,l),
(306,423,l)
);
}
);
width = 1553;
}
);
unicode = 65;
userData = {
com.typemytype.robofont.mark = (
0.6,
0.609,
1,
1
);
};
}
{
glyphname = B;
layers = (
{
anchors = (
{
name = bottom;
pos = (600,0);
},
{
name = top;
pos = (753,1419);
}
);
layerId = "D92FDD0B-F694-41DD-AE46-0E4F694F0F38";
shapes = (
{
closed = 1;
nodes = (
(18,35,o),
(24,0,o),
(48,0,cs),
(654,0,ls),
(1008,0,o),
(1230,174,o),
(1230,451,cs),
(1230,676,o),
(1042,745,o),
(889,765,c),
(1077,791,o),
(1248,963,o),
(1244,1134,cs),
(1239,1355,o),
(1041,1419,o),
(751,1419,cs),
(237,1419,ls),
(215,1419,o),
(196,1389,o),
(196,1352,cs),
(196,1337,o),
(205,1333,o),
(227,1331,cs),
(299,1324,o),
(391,1317,o),
(378,1234,cs),
(212,152,ls),
(205,107,o),
(130,94,o),
(55,88,cs),
(28,86,o),
(19,71,o),
(19,51,cs,{
name = hr00;
})
);
},
{
closed = 1;
nodes = (
(668,715,ls),
(772,715,o),
(1006,696,o),
(1011,458,cs),
(1018,131,o),
(802,96,o),
(614,96,cs),
(565,96,o),
(401,100,o),
(406,133,cs),
(586,1331,l),
(688,1331,ls),
(901,1331,o),
(1028,1285,o),
(1028,1117,cs),
(1028,853,o),
(805,801,o),
(677,801,cs),
(452,801,l),
(446,715,l)
);
}
);
width = 1339;
},
{
anchors = (
{
name = bottom;
pos = (708,0);
},
{
name = top;
pos = (884,1419);
}
);
layerId = "BDB4B313-38B1-4B24-B843-560B185382BD";
shapes = (
{
closed = 1;
nodes = (
(30,29,o),
(35,0,o),
(57,0,cs),
(701,0,ls),
(1232,0,o),
(1444,165,o),
(1449,437,cs),
(1453,635,o),
(1260,737,o),
(1057,747,c),
(1292,765,o),
(1423,939,o),
(1423,1112,cs),
(1423,1308,o),
(1279,1419,o),
(825,1419,cs),
(254,1419,ls),
(233,1419,o),
(211,1387,o),
(211,1352,cs),
(211,1337,o),
(220,1333,o),
(242,1331,cs),
(314,1324,o),
(401,1317,o),
(389,1234,cs),
(227,152,ls),
(220,107,o),
(143,93,o),
(68,88,cs),
(39,86,o),
(30,69,o),
(30,46,cs)
);
},
{
closed = 1;
nodes = (
(723,704,ls),
(898,704,o),
(1082,696,o),
(1080,458,c),
(1074,131,o),
(855,100,o),
(695,100,cs),
(662,100,o),
(566,104,o),
(571,137,cs),
(739,1331,l),
(774,1331,ls),
(975,1331,o),
(1082,1278,o),
(1082,1132,cs),
(1082,896,o),
(1004,790,o),
(794,790,cs),
(578,790,l),
(597,704,l)
);
}
);
width = 1555;
}
);
unicode = 66;
}
{
glyphname = C;
layers = (
{
anchors = (
{
name = bottom;
pos = (715,0);
},
{
name = top;
pos = (916,1419);
}
);
background = {
shapes = (
{
closed = 1;
nodes = (
(1039,-30,o),
(1237,79,o),
(1266,123,c),
(1311,489,l),
(1315,533,o),
(1376,547,o),
(1435,553,cs),
(1466,556,o),
(1475,576,o),
(1473,603,cs),
(1472,620,o),
(1463,641,o),
(1446,641,cs),
(934,641,ls),
(892,641,o),
(891,594,o),
(891,574,cs),
(891,559,o),
(903,554,o),
(924,553,c),
(995,548,o),
(1097,544,o),
(1102,475,c),
(1058,170,l),
(1038,129,o),
(950,65,o),
(742,65,cs),
(548,65,o),
(367,260,o),
(367,648,cs),
(367,973,o),
(546,1353,o),
(942,1353,cs),
(1143,1353,o),
(1264,1245,o),
(1279,1035,c),
(1283,1016,o),
(1296,1010,o),
(1313,1010,cs),
(1329,1010,o),
(1370,1020,o),
(1369,1051,c),
(1408,1361,l),
(1340,1392,o),
(1197,1449,o),
(944,1449,cs),
(580,1449,o),
(128,1178,o),
(127,651,cs),
(126,177,o),
(431,-30,o),
(763,-30,cs,{
name = hr00;
})
);
}
);
};
layerId = "D92FDD0B-F694-41DD-AE46-0E4F694F0F38";
shapes = (
{
closed = 1;
nodes = (
(968,-30,o),
(1152,80,o),
(1161,108,c),
(1188,375,ls),
(1190,396,o),
(1135,406,o),
(1120,406,cs),
(1098,406,o),
(1090,399,o),
(1080,373,c),
(1031,200,o),
(993,65,o),
(728,65,cs),
(494,65,o),
(378,346,o),
(378,646,cs),
(378,1185,o),
(713,1353,o),
(929,1353,cs),
(1129,1353,o),
(1187,1256,o),
(1184,1039,c),
(1188,1017,o),
(1209,1010,o),
(1227,1010,cs),
(1242,1010,o),
(1289,1020,o),
(1288,1051,c),
(1316,1361,l),
(1254,1392,o),
(1174,1449,o),
(939,1449,cs),
(595,1449,o),
(131,1152,o),
(131,609,cs),
(131,198,o),
(403,-30,o),
(739,-30,cs,{
name = hr00;
})
);
}
);
width = 1315;
},
{
anchors = (
{
name = bottom;
pos = (796,0);
},
{
name = top;
pos = (989,1419);
}
);
layerId = "BDB4B313-38B1-4B24-B843-560B185382BD";
shapes = (
{
closed = 1;
nodes = (
(1054,-27,o),
(1297,70,o),
(1306,98,c),
(1347,375,l),
(1347,396,o),
(1282,406,o),
(1265,406,cs),
(1238,406,o),
(1222,398,o),
(1210,372,cs),
(1110,155,o),
(1034,65,o),
(808,65,cs),
(633,65,o),
(489,252,o),
(489,621,cs),
(489,1115,o),
(738,1353,o),
(979,1353,cs),
(1184,1353,o),
(1292,1263,o),
(1292,1080,cs),
(1292,1042,o),
(1306,1020,o),
(1353,1020,cs),
(1370,1020,o),
(1435,1030,o),
(1436,1061,c),
(1474,1361,l),
(1409,1392,o),
(1261,1449,o),
(996,1449,cs),
(499,1449,o),
(116,1119,o),
(116,629,cs),
(116,261,o),
(309,-27,o),
(794,-27,cs)
);
}
);
width = 1465;
}
);
unicode = 67;
}
{
glyphname = E;
layers = (
{
anchors = (
{
name = bottom;
pos = (649,0);
},
{
name = ogonek;
pos = (1032,10);
},
{
name = top;
pos = (807,1419);
},
{
name = topleft;
pos = (150,1419);
}
);
layerId = "D92FDD0B-F694-41DD-AE46-0E4F694F0F38";
shapes = (
{
closed = 1;
nodes = (
(777,687,ls),
(833,687,o),
(848,546,o),
(849,503,c),
(847,477,o),
(878,470,o),
(899,470,cs),
(914,470,o),
(942,481,o),
(946,504,c),
(996,947,l),
(1000,970,o),
(972,981,o),
(957,981,cs),
(936,981,o),
(907,974,o),
(903,948,c),
(894,908,o),
(844,780,o),
(791,773,c),
(412,773,l),
(412,687,l,{
name = hr00;
})
);
},
{
closed = 1;
nodes = (
(995,1331,ls),
(1133,1331,o),
(1165,1136,o),
(1163,1095,c),
(1165,1069,o),
(1185,1062,o),
(1206,1062,cs),
(1221,1062,o),
(1248,1073,o),
(1249,1096,cs),
(1263,1419,l),
(224,1419,ls),
(199,1419,o),
(182,1382,o),
(182,1353,cs),
(182,1336,o),
(191,1333,o),
(213,1331,cs),
(273,1326,o),
(383,1320,o),
(374,1234,c),
(214,152,l),
(210,108,o),
(116,93,o),
(51,88,c),
(26,85,o),
(17,72,o),
(17,51,c),
(14,36,o),
(21,0,o),
(44,0,cs),
(1173,0,l),
(1268,372,l),
(1269,395,o),
(1252,406,o),
(1227,406,cs),
(1206,406,o),
(1187,398,o),
(1178,373,c),
(1165,332,o),
(1060,97,o),
(896,97,cs),
(505,97,l),
(465,101,o),
(425,117,o),
(425,174,c),
(592,1331,l)
);
}
);
width = 1338;
},
{
anchors = (
{
name = bottom;
pos = (669,0);
},
{
name = ogonek;
pos = (1206,10);
},
{
name = top;
pos = (895,1419);
},
{
name = topleft;
pos = (150,1419);
}
);
layerId = "BDB4B313-38B1-4B24-B843-560B185382BD";
shapes = (
{
closed = 1;
nodes = (
(929,682,ls),
(986,682,o),
(1001,546,o),
(1000,503,c),
(998,477,o),
(1035,470,o),
(1066,470,cs),
(1081,470,o),
(1109,481,o),
(1113,504,cs),
(1183,947,ls),
(1187,970,o),
(1161,981,o),
(1146,981,cs),
(1117,981,o),
(1078,974,o),
(1070,948,cs),
(1058,908,o),
(1000,785,o),
(947,778,c),
(503,778,l),
(505,682,l)
);
},
{
closed = 1;
nodes = (
(1150,1331,ls),
(1297,1331,o),
(1310,1144,o),
(1310,1103,cs),
(1310,1077,o),
(1338,1070,o),
(1359,1070,cs),
(1377,1070,o),
(1410,1081,o),
(1414,1104,c),
(1439,1419,l),
(241,1419,ls),
(217,1419,o),
(197,1381,o),
(197,1353,cs),
(197,1336,o),
(206,1333,o),
(228,1331,cs),
(285,1326,o),
(390,1321,o),
(390,1247,c),
(229,152,l),
(223,108,o),
(119,93,o),
(54,88,c),
(27,85,o),
(18,72,o),
(16,51,c),
(13,36,o),
(20,0,o),
(43,0,cs),
(1341,0,l),
(1410,372,l),
(1411,395,o),
(1388,406,o),
(1351,406,cs),
(1330,406,o),
(1301,398,o),
(1293,373,c),
(1278,332,o),
(1185,101,o),
(1021,101,cs),
(662,101,l),
(623,105,o),
(585,120,o),
(585,176,c),
(747,1331,l)
);
}
);
width = 1477;
}
);
unicode = 69;
}
{
glyphname = F;
layers = (
{
anchors = (
{
name = bottom;
pos = (332,0);
},
{
name = top;
pos = (777,1419);
}
);
layerId = "D92FDD0B-F694-41DD-AE46-0E4F694F0F38";
shapes = (
{
closed = 1;
nodes = (
(668,0,ls),
(691,0,o),
(697,36,o),
(700,51,c),
(702,81,o),
(689,88,o),
(667,88,cs),
(582,88,o),
(422,111,o),
(431,197,c),
(594,1332,l),
(970,1332,ls),
(1108,1332,o),
(1146,1108,o),
(1148,1069,c),
(1145,1043,o),
(1163,1036,o),
(1184,1036,cs),
(1199,1036,o),
(1227,1047,o),
(1232,1070,c),
(1238,1419,l),
(224,1419,ls),
(199,1419,o),
(182,1382,o),
(182,1353,cs),
(182,1336,o),
(191,1333,o),
(213,1331,c),
(285,1326,o),
(383,1320,o),
(374,1234,c),
(216,152,l),
(212,108,o),
(123,93,o),
(43,88,c),
(18,85,o),
(9,72,o),
(9,51,c),
(6,36,o),
(13,0,o),
(36,0,cs)
);
},
{
closed = 1;
nodes = (
(746,655,ls),
(802,655,o),
(819,514,o),
(816,471,c),
(818,445,o),
(844,438,o),
(865,438,cs),
(880,438,o),
(915,449,o),
(915,472,c),
(965,915,l),
(966,938,o),
(942,949,o),
(927,949,cs),
(906,949,o),
(877,942,o),
(873,916,c),
(860,876,o),
(814,748,o),
(764,741,c),
(382,741,l),
(380,655,l,{
name = hr00;
})
);
}
);
width = 1227;
},
{
anchors = (
{
name = bottom;
pos = (381,0);
},
{
name = top;
pos = (842,1419);
}
);
layerId = "BDB4B313-38B1-4B24-B843-560B185382BD";
shapes = (
{
closed = 1;
nodes = (
(825,0,ls),
(845,0,o),
(860,36,o),
(860,61,cs),
(860,82,o),
(847,87,o),
(828,88,cs),
(648,97,o),
(572,108,o),
(572,179,c),
(742,1331,l),
(1121,1331,ls),
(1227,1331,o),
(1289,1108,o),
(1289,1069,cs),
(1289,1043,o),
(1304,1036,o),
(1325,1036,cs),
(1346,1036,o),
(1386,1047,o),
(1393,1070,c),
(1411,1419,l),
(247,1419,ls),
(223,1419,o),
(203,1381,o),
(203,1353,cs),
(203,1336,o),
(212,1333,o),
(234,1331,c),
(302,1326,o),
(392,1321,o),
(392,1249,c),
(229,152,l),
(223,108,o),
(134,93,o),
(54,88,c),
(24,85,o),
(15,69,o),
(15,43,cs),
(15,26,o),
(23,0,o),
(43,0,cs)
);
},
{
closed = 1;
nodes = (
(905,643,ls),
(962,643,o),
(977,507,o),
(976,464,c),
(974,438,o),
(1011,431,o),
(1042,431,cs),
(1057,431,o),
(1085,442,o),
(1089,465,cs),
(1159,908,ls),
(1163,931,o),
(1134,942,o),
(1119,942,cs),
(1090,942,o),
(1054,935,o),
(1046,909,cs),
(1034,869,o),
(976,746,o),
(923,739,c),
(479,739,l),
(481,643,l)
);
}
);
width = 1375;
}
);
unicode = 70;
}
{
glyphname = G;
layers = (
{
anchors = (
{
name = bottom;
pos = (673,0);
},
{
name = top;
pos = (933,1419);
}
);
layerId = "D92FDD0B-F694-41DD-AE46-0E4F694F0F38";
shapes = (
{
closed = 1;
nodes = (
(1039,-30,o),
(1237,79,o),
(1266,123,c),
(1311,489,l),
(1315,533,o),
(1376,547,o),
(1435,553,cs),
(1466,556,o),
(1475,576,o),
(1473,603,cs),
(1472,620,o),
(1463,641,o),
(1446,641,cs),
(934,641,ls),
(892,641,o),
(891,594,o),
(891,574,cs),
(891,559,o),
(903,554,o),
(924,553,c),
(995,547,o),
(1097,543,o),
(1102,475,c),
(1058,170,l),
(1038,129,o),
(970,65,o),
(762,65,cs),
(558,65,o),
(367,260,o),
(367,648,cs),
(367,973,o),
(532,1353,o),
(928,1353,cs),
(1129,1353,o),
(1250,1245,o),
(1265,1035,c),
(1269,1016,o),
(1282,1010,o),
(1299,1010,cs),
(1315,1010,o),
(1356,1020,o),
(1355,1051,c),
(1394,1361,l),
(1326,1392,o),
(1197,1449,o),
(944,1449,cs),
(580,1449,o),
(128,1178,o),
(127,651,cs),
(126,177,o),
(431,-30,o),
(763,-30,cs,{
name = hr00;
})
);
}
);
width = 1485;
},
{
anchors = (
{
name = bottom;
pos = (757,0);
},
{
name = top;
pos = (990,1419);
}
);
layerId = "BDB4B313-38B1-4B24-B843-560B185382BD";
shapes = (
{
closed = 1;
nodes = (
(1138,-30,o),
(1368,79,o),
(1402,123,c),
(1465,489,l),
(1465,533,o),
(1538,549,o),
(1601,553,cs),
(1631,555,o),
(1641,574,o),
(1641,599,cs),
(1641,617,o),
(1634,641,o),
(1616,641,cs),
(964,641,ls),
(922,641,o),
(919,591,o),
(919,577,cs),
(919,562,o),
(929,554,o),
(950,553,c),
(1021,547,o),
(1128,543,o),
(1131,475,c),
(1075,170,l),
(1059,129,o),
(988,68,o),
(816,68,cs),
(630,68,o),
(491,235,o),
(485,563,cs),
(479,897,o),
(625,1353,o),
(964,1353,cs),
(1144,1353,o),
(1331,1327,o),
(1361,1039,cs),
(1364,1010,o),
(1396,1010,o),
(1433,1010,cs),
(1449,1010,o),
(1490,1020,o),
(1491,1051,c),
(1540,1361,l),
(1465,1392,o),
(1350,1449,o),
(990,1449,cs),
(540,1449,o),
(110,1157,o),
(110,609,cs),
(110,190,o),
(405,-30,o),
(823,-30,cs)
);
}
);
width = 1653;
}
);
unicode = 71;
}
{
glyphname = K;
layers = (
{
anchors = (
{
name = bottom;
pos = (641,0);
},
{
name = top;
pos = (849,1419);
}
);
layerId = "D92FDD0B-F694-41DD-AE46-0E4F694F0F38";
shapes = (
{
closed = 1;
nodes = (
(562,0,ls),
(585,0,o),
(598,36,o),
(601,51,cs),
(607,80,o),
(595,85,o),
(568,88,cs),
(508,95,o),
(410,99,o),
(423,185,cs),
(587,1267,ls),
(594,1311,o),
(665,1326,o),
(730,1331,cs),
(756,1334,o),
(766,1347,o),
(770,1368,cs),
(773,1383,o),
(765,1419,o),
(742,1419,cs),
(247,1419,ls),
(222,1419,o),
(205,1381,o),
(205,1353,cs),
(205,1336,o),
(214,1333,o),
(236,1331,cs),
(288,1327,o),
(365,1322,o),
(377,1265,cs),
(379,1256,o),
(379,1246,o),
(377,1234,cs),
(213,152,ls),
(206,108,o),
(139,94,o),
(74,88,cs),
(44,85,o),
(37,69,o),
(37,45,cs,{
name = hr00;
}),
(37,28,o),
(47,0,o),
(67,0,cs)
);
},
{
closed = 1;
nodes = (
(1344,0,ls),
(1366,0,o),
(1376,17,o),
(1379,32,cs),
(1385,61,o),
(1378,86,o),
(1350,89,cs),
(1259,99,o),
(1156,245,o),
(1111,317,cs),
(1014,472,o),
(912,693,o),
(797,782,c),
(1239,1263,ls),
(1288,1316,o),
(1366,1330,o),
(1434,1330,cs),
(1456,1330,o),
(1470,1343,o),
(1475,1367,cs),
(1478,1382,o),
(1470,1418,o),
(1447,1418,cs),
(1015,1418,ls),
(990,1418,o),
(973,1379,o),
(973,1353,cs),
(973,1340,o),
(979,1332,o),
(998,1330,cs),
(1033,1326,o),
(1108,1322,o),
(1108,1295,cs),
(1108,1290,o),
(1105,1283,o),
(1098,1276,cs),
(557,692,l),
(700,674,o),
(830,239,o),
(978,70,cs),
(1007,37,o),
(1041,0,o),
(1112,0,cs)
);
}
);
width = 1422;
},
{
anchors = (
{
name = bottom;
pos = (767,0);
},
{
name = top;
pos = (1019,1419);
}
);
layerId = "BDB4B313-38B1-4B24-B843-560B185382BD";
shapes = (
{
closed = 1;
nodes = (
(717,0,ls),
(738,0,o),
(759,37,o),
(759,63,cs),
(759,82,o),
(750,85,o),
(727,88,c),
(657,93,o),
(551,97,o),
(562,169,cs),
(728,1267,l),
(734,1312,o),
(799,1326,o),
(867,1331,cs),
(893,1333,o),
(903,1347,o),
(907,1368,cs),
(908,1383,o),
(904,1419,o),
(881,1419,cs),
(267,1419,ls),
(243,1419,o),
(223,1381,o),
(223,1353,cs),
(223,1336,o),
(232,1333,o),
(254,1331,cs),
(310,1326,o),
(392,1321,o),
(392,1251,cs),
(392,1246,o),
(392,1240,o),
(391,1234,cs),
(228,152,ls),
(221,108,o),
(138,93,o),
(73,88,cs),
(46,86,o),
(37,72,o),
(35,51,c),
(32,36,o),
(39,0,o),
(62,0,cs)
);
},
{
closed = 1;
nodes = (
(1617,0,ls),
(1642,0,o),
(1656,19,o),
(1656,53,cs),
(1656,72,o),
(1649,87,o),
(1627,89,cs),
(1532,98,o),
(1428,244,o),
(1376,317,cs),
(1306,415,o),
(1157,658,o),
(996,846,c),
(1370,1211,ls),
(1404,1245,o),
(1500,1330,o),
(1661,1330,cs),
(1683,1330,o),
(1697,1343,o),
(1702,1367,c),
(1703,1382,o),
(1699,1418,o),
(1676,1418,cs),
(1154,1418,ls),
(1130,1418,o),
(1110,1379,o),
(1110,1353,cs),
(1110,1340,o),
(1116,1332,o),
(1135,1330,cs),
(1205,1323,o),
(1264,1303,o),
(1264,1275,cs),
(1264,1266,o),
(1259,1257,o),
(1249,1246,cs),
(698,692,l),
(781,625,o),
(960,339,o),
(1099,70,cs),
(1114,41,o),
(1132,0,o),
(1199,0,cs)
);
}
);
width = 1673;
}
);
unicode = 75;
}
{
glyphname = N;
layers = (
{
anchors = (
{
name = bottom;
pos = (713,0);
},
{
name = top;
pos = (933,1419);
}
);
layerId = "D92FDD0B-F694-41DD-AE46-0E4F694F0F38";
shapes = (
{
closed = 1;
nodes = (
(492,0,ls),
(510,0,o),
(532,19,o),
(532,63,c),
(532,82,o),
(523,85,o),
(500,88,cs),
(440,96,o),
(302,99,o),
(313,165,cs),
(478,1178,l,{
name = hr02;
}),
(495,1178,l),
(1130,-8,l),
(1138,-20,o),
(1169,-30,o),
(1190,-30,cs),
(1218,-30,o),
(1258,-16,o),
(1262,40,cs),
(1265,78,o),
(1263,88,o),
(1267,113,cs),
(1451,1234,ls),
(1465,1320,o),
(1569,1324,o),
(1631,1331,cs),
(1657,1334,o),
(1667,1347,o),
(1671,1368,cs),
(1674,1383,o),
(1668,1419,o),
(1645,1419,cs),
(1180,1419,ls),
(1156,1419,o),
(1136,1381,o),
(1136,1353,cs),
(1136,1336,o),
(1145,1333,o),
(1167,1331,cs),
(1224,1326,o),
(1348,1321,o),
(1348,1245,cs),
(1348,1242,o),
(1348,1238,o),
(1347,1234,cs),
(1201,314,l),
(1189,314,l),
(586,1419,l),
(234,1419,ls),
(211,1419,o),
(193,1383,o),
(192,1368,cs),
(190,1342,o),
(202,1334,o),
(234,1331,cs),
(290,1326,o),
(383,1294,o),
(383,1219,cs),
(383,1214,o),
(383,1209,o),
(382,1204,cs),
(204,172,ls),
(193,108,o),
(91,93,o),
(28,88,c,{
name = hr03;
}),
(0,85,o),
(-9,68,o),
(-9,42,cs,{
name = hr01;
}),
(-9,25,o),
(-2,0,o),
(17,0,cs)
);
}
);
width = 1571;
},
{
anchors = (
{
name = bottom;
pos = (772,0);
},
{
name = top;
pos = (1027,1419);
}
);
layerId = "BDB4B313-38B1-4B24-B843-560B185382BD";
shapes = (
{
closed = 1;
nodes = (
(512,0,ls),
(535,0,o),
(555,33,o),
(555,58,cs),
(555,75,o),
(545,86,o),
(524,88,cs),
(467,93,o),
(320,98,o),
(320,173,c),
(470,1180,l),
(487,1180,l),
(1099,-8,l),
(1107,-20,o),
(1203,-30,o),
(1224,-30,cs),
(1301,-30,o),
(1375,-16,o),
(1392,40,cs),
(1403,77,o),
(1395,88,o),
(1399,113,cs),
(1564,1234,ls),
(1577,1321,o),
(1714,1324,o),
(1775,1331,cs),
(1802,1334,o),
(1816,1351,o),
(1816,1378,cs),
(1816,1395,o),
(1810,1419,o),
(1791,1419,cs),
(1266,1419,ls),
(1243,1419,o),
(1225,1383,o),
(1222,1368,cs),
(1217,1342,o),
(1232,1334,o),
(1264,1331,cs),
(1320,1326,o),
(1465,1321,o),
(1465,1246,cs),
(1465,1242,o),
(1465,1238,o),
(1464,1234,cs),
(1330,282,l),
(1318,282,l),
(730,1419,l),
(238,1419,ls),
(215,1419,o),
(192,1380,o),
(192,1353,cs),
(192,1336,o),
(201,1333,o),
(223,1331,cs),
(279,1326,o),
(379,1295,o),
(379,1221,cs),
(379,1216,o),
(378,1210,o),
(377,1204,cs),
(219,172,ls),
(209,108,o),
(72,93,o),
(9,88,c),
(-28,84,o),
(-32,64,o),
(-32,33,cs),
(-32,23,o),
(-25,0,o),
(-6,0,cs)
);
}
);
width = 1699;
}
);
unicode = 78;
}
{
glyphname = P;
layers = (
{
anchors = (
{
name = bottom;
pos = (275,0);
},
{
name = top;
pos = (701,1419);
}
);
layerId = "D92FDD0B-F694-41DD-AE46-0E4F694F0F38";
shapes = (
{
closed = 1;
nodes = (
(589,0,ls),
(612,0,o),
(625,36,o),
(628,51,c),
(630,81,o),
(622,85,o),
(595,88,c),
(519,93,o),
(385,99,o),
(397,185,cs),
(448,555,l),
(601,555,ls),
(928,555,o),
(1240,715,o),
(1240,1044,cs),
(1240,1278,o),
(1089,1419,o),
(715,1419,cs),
(204,1419,ls),
(179,1419,o),
(162,1382,o),
(162,1353,cs),
(162,1336,o),
(171,1333,o),
(193,1331,cs),
(250,1326,o),
(335,1321,o),
(335,1247,c),
(184,152,ls),
(178,108,o),
(96,93,o),
(31,88,cs),
(4,86,o),
(-5,72,o),
(-5,51,c),
(-8,36,o),
(1,0,o),
(24,0,cs)
);
},
{
closed = 1;
nodes = (
(554,1331,l,{
name = hr00;
}),
(674,1331,ls),
(941,1331,o),
(1013,1218,o),
(1013,1046,cs),
(1013,760,o),
(845,635,o),
(606,635,cs),
(459,635,l)
);
}
);
width = 1249;
},
{
anchors = (
{
name = bottom;
pos = (398,0);
},
{
name = top;
pos = (837,1419);
}
);
background = {
shapes = (
{
closed = 1;
nodes = (
(30,29,o),
(35,0,o),
(57,0,cs),
(701,0,ls),
(1232,0,o),
(1444,165,o),
(1449,437,cs),
(1453,635,o),
(1260,737,o),
(1057,747,c),
(1292,765,o),
(1423,939,o),
(1423,1112,cs),
(1423,1308,o),
(1279,1419,o),
(825,1419,cs),
(254,1419,ls),
(231,1419,o),
(214,1383,o),
(212,1368,cs),
(211,1362,o),
(211,1357,o),
(211,1352,cs),
(211,1337,o),
(220,1333,o),
(242,1331,cs),
(306,1325,o),
(390,1321,o),
(390,1249,cs),
(390,1244,o),
(390,1239,o),
(389,1234,cs),
(227,152,l),
(220,107,o),
(143,93,o),
(68,88,cs),
(39,86,o),
(30,69,o),
(30,46,cs)
);
},
{
closed = 1;
nodes = (
(723,704,ls),
(898,704,o),
(1082,696,o),
(1080,458,c),
(1074,131,o),
(855,100,o),
(695,100,cs),
(662,100,o),
(571,104,o),
(571,137,c),
(739,1331,l),
(774,1331,ls),
(975,1331,o),
(1082,1278,o),
(1082,1132,cs),
(1082,896,o),
(1004,790,o),
(794,790,cs),
(578,790,l),
(597,704,l)
);
}
);
};
layerId = "BDB4B313-38B1-4B24-B843-560B185382BD";
shapes = (
{
closed = 1;
nodes = (
(767,0,ls),
(790,0,o),
(808,24,o),
(808,46,cs),
(808,76,o),
(801,86,o),
(774,88,cs),
(648,97,o),
(571,110,o),
(571,173,c),
(628,555,l),
(759,555,ls),
(1189,555,o),
(1442,737,o),
(1442,1069,cs),
(1442,1241,o),
(1338,1419,o),
(873,1419,c),
(226,1419,ls),
(202,1419,o),
(182,1381,o),
(182,1353,cs),
(182,1336,o),
(231,1333,o),
(253,1331,cs),
(309,1326,o),
(391,1321,o),
(391,1251,c),
(221,152,l),
(214,108,o),
(108,93,o),
(43,88,cs),
(16,86,o),
(5,72,o),
(5,51,cs),
(5,32,o),
(12,0,o),
(35,0,cs)
);
},
{
closed = 1;
nodes = (
(739,1331,l),
(764,1331,ls),
(1011,1331,o),
(1081,1229,o),
(1081,1071,cs),
(1081,777,o),
(949,641,o),
(708,641,cs),
(633,641,l)
);
}
);
width = 1446;
}
);
unicode = 80;
userData = {
com.typemytype.robofont.mark = (
0.6,
0.609,
1,
1
);
};
}
{
glyphname = Q;
layers = (
{
anchors = (
{
name = top;
pos = (770,1700);
}
);
background = {
shapes = (
{
closed = 1;
nodes = (
(1276,-419,o),
(1330,-393,o),
(1330,-393,c),
(1330,-393,o),
(1330,-323,o),
(1330,-323,c),
(958,-330,o),
(873,-76,o),
(870,29,c),
(870,29,o),
(638,0,o),
(638,0,c,{
name = hr00;
}),
(698,-369,o),
(945,-419,o),
(1167,-419,cs)
);
}
);
};
layerId = "D92FDD0B-F694-41DD-AE46-0E4F694F0F38";
shapes = (
{
closed = 1;
nodes = (
(1275,-419,o),
(1330,-383,o),
(1330,-383,c),
(1330,-323,l),
(992,-323,o),
(884,-122,o),
(872,12,c),
(814,29,l),
(814,29,o),
(660,13,o),
(660,13,c),
(658,-4,o),
(656,-21,o),
(656,-37,cs),
(656,-263,o),
(877,-419,o),
(1099,-419,cs)
);
},
{
ref = O;
}
);
width = 1496;
},
{
anchors = (
{
name = top;
pos = (770,1700);
}
);
layerId = "BDB4B313-38B1-4B24-B843-560B185382BD";
shapes = (
{
closed = 1;
nodes = (
(1302,-419,o),
(1389,-383,o),
(1389,-383,c),
(1389,-313,l),
(1070,-319,o),
(944,-136,o),
(944,-9,c),
(814,29,l),
(814,29,o),
(617,0,o),
(617,0,c),
(615,-17,o),
(613,-34,o),
(613,-50,cs),
(613,-276,o),
(838,-419,o),
(1126,-419,cs)
);
},
{
pos = (2,0);
ref = O;
}
);
width = 1679;
}
);
unicode = 81;
userData = {
com.typemytype.robofont.mark = (
0.6,
0.609,
1,
1
);
};
}
{
glyphname = R;
layers = (
{
anchors = (
{
name = bottom;
pos = (733,0);
},
{
name = top;
pos = (804,1419);
}
);
layerId = "D92FDD0B-F694-41DD-AE46-0E4F694F0F38";
shapes = (
{
closed = 1;
nodes = (
(610,0,ls),
(647,0,o),
(646,60,o),
(647,66,c),
(647,82,o),
(637,86,o),
(616,88,cs),
(557,94,o),
(464,97,o),
(464,172,c),
(519,625,l),
(670,625,ls),
(870,625,o),
(890,251,o),
(977,66,cs),
(992,34,o),
(1027,0,o),
(1058,0,cs),
(1335,0,ls),
(1374,0,o),
(1371,63,o),
(1371,63,c),
(1371,80,o),
(1363,88,o),
(1341,89,cs),
(1258,93,o),
(1192,125,o),
(1155,209,cs),
(1081,378,o),
(1041,588,o),
(897,636,c),
(1087,659,o),
(1307,858,o),
(1307,1067,cs),
(1307,1284,o),
(1185,1419,o),
(783,1419,cs),
(259,1419,ls),
(226,1419,o),
(217,1383,o),
(217,1352,cs),
(217,1309,o),
(403,1348,o),
(391,1251,cs),
(255,152,ls),
(249,107,o),
(177,94,o),
(112,88,cs),
(90,86,o),
(79,74,o),
(79,42,cs),
(79,25,o),
(86,0,o),
(105,0,cs)
);
},
{
closed = 1;
nodes = (
(607,1332,l,{
name = hr00;
}),
(743,1332,ls),
(1011,1332,o),
(1087,1265,o),
(1087,1054,cs),
(1087,853,o),
(959,711,o),
(717,711,cs),
(529,711,l)
);
}
);
width = 1437;
},
{
anchors = (
{
name = bottom;
pos = (818,0);
},
{
name = top;
pos = (891,1421);
}
);
background = {
shapes = (
{
closed = 1;
nodes = (
(610,0,ls),
(647,0,o),
(646,60,o),
(647,66,c),
(647,82,o),
(637,86,o),
(616,88,cs),
(557,94,o),
(464,97,o),
(464,172,c),
(519,625,l),
(700,625,ls),
(900,625,o),
(847,245,o),
(966,78,cs),
(1000,30,o),
(1030,0,o),
(1097,0,cs),
(1335,0,ls),
(1374,0,o),
(1371,63,o),
(1371,63,c),
(1371,80,o),
(1363,88,o),
(1341,89,cs),
(1258,93,o),
(1192,125,o),
(1155,209,cs),
(1081,378,o),
(1041,578,o),
(897,636,c),
(1087,659,o),
(1307,858,o),
(1307,1067,cs),
(1307,1284,o),
(1185,1419,o),
(783,1419,cs),
(259,1419,ls),
(226,1419,o),
(217,1383,o),
(217,1352,cs),
(217,1309,o),
(403,1348,o),
(391,1251,cs),
(255,152,ls),
(249,107,o),
(177,94,o),
(112,88,cs),
(90,86,o),
(79,74,o),
(79,42,cs),
(79,25,o),
(86,0,o),
(105,0,cs)
);
},
{
closed = 1;
nodes = (
(607,1332,l,{
name = hr00;
}),
(743,1332,ls),
(1011,1332,o),
(1087,1265,o),
(1087,1054,cs),
(1087,853,o),
(959,701,o),
(717,701,cs),
(529,701,l)
);
}
);
};
layerId = "BDB4B313-38B1-4B24-B843-560B185382BD";
shapes = (
{
closed = 1;
nodes = (
(686,0,ls),
(723,0,o),
(727,39,o),
(727,56,cs),
(727,72,o),
(717,86,o),
(696,88,cs),
(637,94,o),
(562,97,o),
(562,172,c),
(629,625,l),
(798,625,l),
(943,560,o),
(970,226,o),
(1042,80,cs),
(1070,23,o),
(1105,0,o),
(1159,0,cs),
(1543,0,ls),
(1565,0,o),
(1577,17,o),
(1577,32,cs),
(1577,62,o),
(1571,86,o),
(1543,89,cs),
(1448,99,o),
(1410,167,o),
(1356,253,cs),
(1296,349,o),
(1250,606,o),
(1068,664,c),
(1296,716,o),
(1463,857,o),
(1463,1091,cs),
(1463,1289,o),
(1327,1419,o),
(867,1419,cs),
(268,1419,ls),
(237,1419,o),
(226,1391,o),
(226,1358,cs),
(226,1305,o),
(404,1348,o),
(390,1251,cs),
(229,152,ls),
(222,107,o),
(133,93,o),
(68,88,cs),
(42,86,o),
(35,71,o),
(35,50,cs),
(35,33,o),
(42,0,o),
(61,0,cs)
);
},
{
closed = 1;
nodes = (
(734,1334,l),
(800,1334,ls),
(1032,1334,o),
(1106,1260,o),
(1106,1084,cs),
(1106,863,o),
(1020,713,o),
(756,713,cs),
(644,713,l)
);
}
);
width = 1633;
}
);
unicode = 82;
userData = {
com.typemytype.robofont.mark = (
0.6,
0.609,
1,
1
);
};
}
{
glyphname = T;
layers = (
{
anchors = (
{
name = bottom;
pos = (564,0);
},
{
name = center;
pos = (655,710);
},
{
name = top;
pos = (785,1419);
}
);
layerId = "D92FDD0B-F694-41DD-AE46-0E4F694F0F38";
shapes = (
{
closed = 1;
nodes = (
(258,28,o),
(268,0,o),
(288,0,cs),
(903,0,ls),
(926,0,o),
(939,36,o),
(942,51,cs),
(948,80,o),
(936,85,o),
(909,88,c),
(829,93,o),
(690,99,o),
(703,185,cs),
(871,1331,l),
(1088,1331,ls),
(1202,1331,o),
(1203,1084,o),
(1200,1019,c),
(1198,993,o),
(1214,986,o),
(1235,986,cs),
(1250,986,o),
(1294,997,o),
(1298,1020,c),
(1298,1153,o),
(1319,1286,o),
(1319,1419,c),
(202,1419,ls),
(187,1419,o),
(123,1151,o),
(106,1020,c),
(102,997,o),
(135,986,o),
(150,986,cs),
(171,986,o),
(196,993,o),
(204,1019,c),
(217,1084,o),
(311,1331,o),
(425,1331,cs),
(664,1331,l),
(495,182,ls),
(484,109,o),
(390,93,o),
(295,88,c),
(265,85,o),
(258,69,o),
(258,45,cs,{
name = hr00;
})
);
}
);
width = 1267;
},
{
anchors = (
{
name = bottom;
pos = (631,0);
},
{
name = center;
pos = (731,710);
},
{
name = top;
pos = (831,1419);
}
);
layerId = "BDB4B313-38B1-4B24-B843-560B185382BD";
shapes = (
{
closed = 1;
nodes = (
(203,26,o),
(211,0,o),
(231,0,cs),
(1038,0,ls),
(1061,0,o),
(1083,27,o),
(1083,50,cs),
(1083,80,o),
(1075,86,o),
(1048,88,cs),
(971,94,o),
(815,99,o),
(815,175,c),
(993,1331,l),
(1126,1331,ls),
(1282,1331,o),
(1285,1176,o),
(1285,937,c),
(1283,911,o),
(1309,904,o),
(1335,904,cs),
(1350,904,o),
(1413,915,o),
(1417,938,c),
(1440,1079,o),
(1466,1279,o),
(1466,1419,c),
(218,1419,ls),
(203,1419,o),
(119,1069,o),
(96,938,c),
(92,915,o),
(160,904,o),
(175,904,cs),
(196,904,o),
(224,911,o),
(232,937,c),
(247,1002,o),
(349,1331,o),
(534,1331,cs),
(661,1331,l),
(483,182,ls),
(472,108,o),
(337,97,o),
(242,88,cs),
(212,85,o),
(203,69,o),
(203,43,cs)
);
}
);
width = 1401;
}
);
unicode = 84;
}
{
glyphname = U;
layers = (
{
anchors = (
{
name = bottom;
pos = (751,0);
},
{
name = ogonek;
pos = (1001,31);
},
{
name = top;
pos = (940,1419);
},
{
name = topright;
pos = (1659,1419);
}
);
layerId = "D92FDD0B-F694-41DD-AE46-0E4F694F0F38";
shapes = (
{
closed = 1;
nodes = (
(1075,-29,o),
(1268,123,o),
(1311,523,cs),
(1410,1230,ls),
(1417,1294,o),
(1481,1326,o),
(1568,1331,cs),
(1593,1332,o),
(1605,1348,o),
(1605,1370,cs),
(1605,1387,o),
(1601,1419,o),
(1580,1419,cs),
(1184,1419,ls),
(1159,1419,o),
(1142,1381,o),
(1142,1352,cs,{
name = hr02;
}),
(1142,1336,o),
(1151,1331,o),
(1173,1331,cs),
(1263,1331,o),
(1319,1290,o),
(1312,1233,cs),
(1210,521,ls),
(1177,257,o),
(1073,65,o),
(764,65,cs),
(566,65,o),
(459,195,o),
(459,403,cs),
(459,446,o),
(462,492,o),
(467,543,cs),
(568,1267,ls),
(576,1311,o),
(670,1325,o),
(741,1331,cs,{
name = hr03;
}),
(766,1333,o),
(779,1348,o),
(779,1369,cs),
(779,1390,o),
(773,1419,o),
(753,1419,cs),
(228,1419,ls),
(202,1419,o),
(186,1381,o),
(186,1352,cs),
(190,1309,o),
(368,1352,o),
(357,1256,cs),
(253,523,ls,{
name = hr01;
}),
(250,493,o),
(247,456,o),
(247,417,cs),
(247,109,o),
(440,-29,o),
(752,-29,cs)
);
}
);
width = 1549;
},
{
anchors = (
{
name = bottom;
pos = (846,0);
},
{
name = ogonek;
pos = (1024,28);
},
{
name = top;
pos = (1069,1419);
},
{
name = topright;
pos = (1817,1419);
}
);
layerId = "BDB4B313-38B1-4B24-B843-560B185382BD";
shapes = (
{
closed = 1;
nodes = (
(1193,-29,o),
(1394,154,o),
(1455,546,cs),
(1561,1230,ls),
(1571,1294,o),
(1639,1327,o),
(1752,1331,cs),
(1779,1332,o),
(1791,1350,o),
(1791,1375,cs),
(1791,1392,o),
(1786,1419,o),
(1766,1419,cs),
(1310,1419,ls),
(1286,1419,o),
(1266,1381,o),
(1266,1352,cs),
(1266,1336,o),
(1275,1332,o),
(1297,1331,cs),
(1410,1326,o),
(1463,1315,o),
(1463,1265,c),
(1361,578,l),
(1313,331,o),
(1217,65,o),
(885,65,cs),
(702,65,o),
(599,144,o),
(590,361,cs),
(588,411,o),
(596,491,o),
(605,554,cs),
(710,1267,ls),
(716,1311,o),
(775,1331,o),
(885,1331,cs),
(911,1331,o),
(924,1349,o),
(924,1373,cs),
(924,1390,o),
(919,1419,o),
(899,1419,cs),
(234,1419,ls),
(200,1419,o),
(190,1381,o),
(190,1352,cs),
(190,1311,o),
(359,1346,o),
(359,1268,c),
(258,546,l),
(250,504,o),
(247,448,o),
(247,394,cs),
(247,116,o),
(463,-29,o),
(846,-29,cs)
);
}
);
width = 1707;
}
);
unicode = 85;
}
{
glyphname = V;
layers = (
{
anchors = (
{
name = bottom;
pos = (542,0);
},
{
name = top;
pos = (878,1419);
}
);
layerId = "D92FDD0B-F694-41DD-AE46-0E4F694F0F38";
shapes = (
{
closed = 1;
nodes = (
(630,-18,l),
(1348,1254,ls),
(1396,1339,o),
(1470,1326,o),
(1520,1331,cs),
(1548,1334,o),
(1559,1338,o),
(1563,1368,cs),
(1565,1383,o),
(1559,1419,o),
(1537,1419,cs),
(1082,1419,ls),
(1062,1419,o),
(1039,1387,o),
(1039,1356,cs),
(1039,1342,o),
(1045,1333,o),
(1066,1331,c),
(1175,1331,o),
(1220,1313,o),
(1220,1281,cs),
(1220,1274,o),
(1218,1266,o),
(1213,1257,cs),
(620,165,l),
(609,165,l),
(418,1283,l),
(418,1320,o),
(456,1327,o),
(559,1331,c),
(585,1334,o),
(595,1347,o),
(599,1368,cs),
(602,1383,o),
(595,1419,o),
(573,1419,cs),
(48,1419,ls),
(25,1419,o),
(5,1382,o),
(5,1352,cs),
(5,1336,o),
(13,1333,o),
(35,1331,cs),
(83,1327,o),
(167,1343,o),
(185,1254,cs),
(441,-18,l,{
name = hr00;
})
);
}
);
width = 1365;
},
{
anchors = (
{
name = bottom;
pos = (711,0);
},
{
name = top;
pos = (1043,1419);
}
);
layerId = "BDB4B313-38B1-4B24-B843-560B185382BD";
shapes = (
{
closed = 1;
nodes = (
(803,-18,l),
(1531,1241,l),
(1585,1326,o),
(1667,1326,o),
(1717,1331,cs),
(1745,1334,o),
(1761,1350,o),
(1761,1386,cs),
(1761,1403,o),
(1754,1419,o),
(1736,1419,cs),
(1281,1419,ls),
(1247,1419,o),
(1236,1386,o),
(1236,1356,cs),
(1236,1342,o),
(1242,1333,o),
(1263,1331,cs),
(1366,1321,o),
(1406,1304,o),
(1406,1271,cs),
(1406,1263,o),
(1404,1255,o),
(1400,1246,c),
(773,159,l),
(766,159,l),
(605,1258,l),
(605,1301,o),
(657,1323,o),
(765,1331,cs),
(791,1333,o),
(805,1347,o),
(805,1368,cs),
(805,1384,o),
(803,1419,o),
(781,1419,cs),
(106,1419,ls),
(84,1419,o),
(60,1379,o),
(60,1353,cs),
(60,1336,o),
(69,1333,o),
(91,1331,cs),
(139,1327,o),
(221,1342,o),
(237,1254,cs),
(471,-18,l)
);
}
);
width = 1561;
}
);
unicode = 86;
}
{
glyphname = W;
layers = (
{
anchors = (
{
name = bottom;
pos = (909,0);
},
{
name = top;
pos = (1202,1419);
}
);
layerId = "D92FDD0B-F694-41DD-AE46-0E4F694F0F38";
shapes = (
{
closed = 1;
nodes = (
(540,-18,l),
(1090,1053,l),
(1103,1053,l),
(1230,-18,l),
(1353,-18,l),
(1975,1254,ls),
(2015,1344,o),
(2087,1326,o),
(2137,1331,cs),
(2165,1334,o),
(2175,1338,o),
(2180,1368,cs),
(2181,1383,o),
(2176,1419,o),
(2154,1419,cs),
(1709,1419,ls),
(1689,1419,o),
(1666,1387,o),
(1666,1355,cs),
(1666,1341,o),
(1672,1331,o),
(1693,1331,cs),
(1782,1331,o),
(1838,1319,o),
(1838,1285,cs),
(1838,1279,o),
(1837,1273,o),
(1834,1267,cs),
(1388,281,l),
(1381,281,l),
(1251,1399,l),
(1143,1399,l),
(582,286,l),
(573,286,l),
(489,1261,ls),
(485,1309,o),
(538,1331,o),
(651,1331,cs),
(677,1331,o),
(687,1347,o),
(691,1368,cs),
(692,1383,o),
(688,1419,o),
(665,1419,cs),
(150,1419,ls),
(127,1419,o),
(106,1381,o),
(106,1353,cs),
(106,1336,o),
(115,1333,o),
(137,1331,cs),
(185,1326,o),
(266,1343,o),
(277,1254,cs),
(417,-18,l,{
name = hr00;
})
);
}
);
width = 1998;
},
{
anchors = (
{
name = bottom;
pos = (985,0);
},
{
name = top;
pos = (1393,1419);
}
);
layerId = "BDB4B313-38B1-4B24-B843-560B185382BD";
shapes = (
{
closed = 1;
nodes = (
(669,-18,l),
(1201,1039,l),
(1212,1039,l),
(1314,-18,l),
(1582,-18,l),
(2276,1254,ls),
(2317,1328,o),
(2411,1326,o),
(2462,1331,cs),
(2490,1334,o),
(2506,1341,o),
(2506,1377,cs),
(2506,1394,o),
(2499,1419,o),
(2481,1419,cs),
(1936,1419,ls),
(1916,1419,o),
(1891,1405,o),
(1891,1355,cs),
(1891,1341,o),
(1897,1331,o),
(1918,1331,cs),
(2014,1331,o),
(2110,1307,o),
(2110,1260,cs),
(2110,1255,o),
(2108,1249,o),
(2105,1242,cs),
(1633,291,l),
(1620,291,l),
(1513,1399,l),
(1252,1399,l),
(716,291,l),
(702,291,l),
(619,1261,ls),
(615,1309,o),
(692,1331,o),
(803,1331,cs),
(830,1331,o),
(844,1352,o),
(844,1378,cs),
(844,1395,o),
(838,1419,o),
(819,1419,cs),
(119,1419,ls),
(97,1419,o),
(73,1392,o),
(73,1353,cs),
(73,1336,o),
(82,1333,o),
(104,1331,cs),
(152,1326,o),
(263,1343,o),
(270,1254,c),
(416,-18,l)
);
}
);
width = 2307;
}
);
unicode = 87;
}
{
glyphname = X;
layers = (
{
anchors = (
{
name = bottom;
pos = (654,0);
},
{
name = top;
pos = (866,1419);
}
);
layerId = "D92FDD0B-F694-41DD-AE46-0E4F694F0F38";
shapes = (
{
closed = 1;
nodes = (
(480,0,ls),
(502,0,o),
(523,41,o),
(523,64,cs),
(523,77,o),
(515,86,o),
(496,88,c),
(354,92,o),
(311,109,o),
(311,134,cs),
(311,143,o),
(316,152,o),
(323,162,c),
(694,613,l),
(938,122,l),
(938,93,o),
(890,92,o),
(829,88,c),
(802,85,o),
(788,57,o),
(788,36,cs),
(788,21,o),
(793,0,o),
(815,0,cs),
(1317,0,ls),
(1339,0,o),
(1360,18,o),
(1360,60,cs),
(1360,76,o),
(1351,86,o),
(1330,88,cs),
(1289,92,o),
(1198,86,o),
(1167,165,c),
(840,758,l),
(1294,1254,l),
(1366,1330,o),
(1457,1326,o),
(1507,1331,cs),
(1535,1334,o),
(1551,1343,o),
(1551,1379,cs),
(1551,1396,o),
(1545,1419,o),
(1527,1419,cs),
(1022,1419,ls),
(1003,1419,o),
(976,1386,o),
(976,1355,cs),
(976,1341,o),
(982,1331,o),
(1003,1331,cs),
(1100,1331,o),
(1169,1310,o),
(1169,1281,cs),
(1169,1274,o),
(1164,1266,o),
(1154,1257,c),
(797,839,l),
(572,1300,l),
(572,1329,o),
(621,1331,o),
(683,1331,cs),
(710,1331,o),
(724,1351,o),
(724,1380,cs),
(724,1397,o),
(718,1419,o),
(700,1419,cs),
(188,1419,ls),
(166,1419,o),
(141,1393,o),
(141,1353,cs),
(141,1336,o),
(150,1333,o),
(172,1331,cs),
(220,1327,o),
(312,1333,o),
(346,1254,c),
(646,684,l),
(179,165,l),
(115,88,o),
(37,93,o),
(-7,88,cs),
(-34,85,o),
(-52,77,o),
(-52,43,cs),
(-52,26,o),
(-45,0,o),
(-26,0,cs)
);
}
);
width = 1455;
},
{
anchors = (
{
name = bottom;
pos = (748,0);
},
{
name = top;
pos = (1010,1419);
}
);
layerId = "BDB4B313-38B1-4B24-B843-560B185382BD";
shapes = (
{
closed = 1;
nodes = (
(503,0,ls),
(526,0,o),
(541,28,o),
(541,48,cs),
(541,70,o),
(538,85,o),
(513,88,c),
(399,92,o),
(346,111,o),
(346,136,cs),
(346,144,o),
(353,152,o),
(362,162,cs),
(733,582,l),
(945,120,l),
(945,100,o),
(919,94,o),
(817,88,c),
(790,85,o),
(773,66,o),
(773,42,cs),
(773,25,o),
(780,0,o),
(799,0,cs),
(1471,0,ls),
(1493,0,o),
(1514,28,o),
(1514,51,cs),
(1514,66,o),
(1510,86,o),
(1488,88,cs),
(1440,92,o),
(1358,89,o),
(1318,165,cs),
(993,775,l),
(1478,1254,ls),
(1554,1329,o),
(1635,1326,o),
(1685,1331,cs),
(1716,1334,o),
(1730,1344,o),
(1730,1383,cs),
(1730,1400,o),
(1724,1419,o),
(1707,1419,cs),
(1231,1419,ls),
(1208,1419,o),
(1195,1390,o),
(1194,1368,cs),
(1193,1347,o),
(1194,1331,o),
(1220,1331,cs),
(1292,1331,o),
(1341,1312,o),
(1341,1284,cs),
(1341,1276,o),
(1336,1267,o),
(1327,1257,cs),
(959,854,l),
(747,1303,l),
(747,1322,o),
(772,1331,o),
(872,1331,cs),
(898,1331,o),
(914,1359,o),
(914,1380,cs),
(914,1396,o),
(914,1419,o),
(891,1419,cs),
(222,1419,ls),
(200,1419,o),
(179,1389,o),
(179,1371,cs),
(179,1350,o),
(185,1333,o),
(213,1330,cs),
(301,1321,o),
(352,1316,o),
(385,1254,cs),
(695,663,l),
(199,165,ls),
(124,90,o),
(30,94,o),
(-20,88,cs),
(-46,85,o),
(-67,76,o),
(-67,43,cs),
(-67,26,o),
(-60,0,o),
(-41,0,cs)
);
}
);
width = 1643;
}
);
unicode = 88;
}
{
glyphname = Y;
layers = (
{
anchors = (
{
name = bottom;
pos = (583,0);
},
{
name = top;
pos = (823,1419);
},
{
name = topleft;
pos = (150,1419);
}
);
layerId = "D92FDD0B-F694-41DD-AE46-0E4F694F0F38";
shapes = (
{
closed = 1;
nodes = (
(249,26,o),
(257,0,o),
(277,0,cs),
(862,0,ls),
(882,0,o),
(904,37,o),
(904,60,cs),
(904,82,o),
(887,85,o),
(863,88,c),
(793,93,o),
(684,80,o),
(684,152,c),
(748,541,l),
(1258,1254,ls),
(1317,1336,o),
(1358,1336,o),
(1408,1341,cs),
(1436,1344,o),
(1444,1348,o),
(1450,1378,cs),
(1453,1393,o),
(1446,1419,o),
(1424,1419,cs),
(1019,1419,ls),
(992,1419,o),
(977,1384,o),
(977,1372,cs),
(977,1352,o),
(989,1331,o),
(1013,1331,cs),
(1104,1331,o),
(1138,1315,o),
(1138,1290,cs),
(1138,1280,o),
(1134,1270,o),
(1126,1258,cs),
(705,639,l),
(438,1297,l),
(438,1332,o),
(512,1331,o),
(590,1331,cs),
(619,1331,o),
(638,1364,o),
(638,1386,cs),
(638,1400,o),
(630,1419,o),
(611,1419,cs),
(117,1419,ls),
(96,1419,o),
(74,1400,o),
(74,1368,cs),
(74,1351,o),
(82,1343,o),
(105,1341,cs),
(153,1337,o),
(184,1335,o),
(220,1254,cs),
(539,534,l),
(475,152,ls),
(463,81,o),
(367,93,o),
(299,88,c),
(270,85,o),
(249,69,o),
(249,43,cs,{
name = hr00;
})
);
}
);
width = 1260;
},
{
anchors = (
{
name = bottom;
pos = (660,0);
},
{
name = top;
pos = (933,1419);
},
{
name = topleft;
pos = (150,1419);
}
);
layerId = "BDB4B313-38B1-4B24-B843-560B185382BD";
shapes = (
{
closed = 1;
nodes = (
(263,25,o),
(270,0,o),
(289,0,cs),
(1018,0,ls),
(1038,0,o),
(1063,27,o),
(1063,63,cs),
(1063,82,o),
(1046,85,o),
(1023,88,cs),
(961,96,o),
(845,81,o),
(845,150,c),
(907,547,l),
(1437,1254,ls),
(1499,1337,o),
(1556,1336,o),
(1607,1341,cs),
(1635,1344,o),
(1645,1348,o),
(1651,1378,cs),
(1654,1393,o),
(1647,1419,o),
(1625,1419,cs),
(1180,1419,ls),
(1158,1419,o),
(1137,1392,o),
(1137,1369,cs),
(1137,1350,o),
(1150,1331,o),
(1172,1331,cs),
(1266,1331,o),
(1303,1315,o),
(1303,1288,cs),
(1303,1279,o),
(1299,1269,o),
(1291,1258,cs),
(844,639,l),
(584,1297,l),
(584,1321,o),
(628,1326,o),
(748,1331,cs),
(774,1332,o),
(797,1358,o),
(797,1378,cs),
(797,1393,o),
(794,1419,o),
(771,1419,cs),
(114,1419,ls),
(92,1419,o),
(72,1398,o),
(72,1378,cs),
(72,1360,o),
(72,1343,o),
(100,1341,cs),
(185,1335,o),
(217,1306,o),
(240,1254,cs),
(560,534,l),
(493,152,ls),
(481,81,o),
(383,95,o),
(315,88,cs),
(285,85,o),
(263,68,o),
(263,42,cs)
);
}
);
width = 1499;
}
);
unicode = 89;
}
{
glyphname = Z;
layers = (
{
anchors = (
{
name = bottom;
pos = (552,0);
},
{
name = top;
pos = (791,1419);
}
);
layerId = "D92FDD0B-F694-41DD-AE46-0E4F694F0F38";
shapes = (
{
closed = 1;
nodes = (
(1,15,o),
(17,0,o),
(35,0,cs),
(1021,0,ls),
(1053,0,o),
(1078,18,o),
(1083,41,cs),
(1164,429,ls),
(1169,452,o),
(1125,463,o),
(1110,463,cs),
(1089,463,o),
(1074,456,o),
(1066,430,cs),
(1051,382,o),
(923,83,o),
(763,83,cs),
(275,83,l),
(1285,1323,ls),
(1307,1350,o),
(1311,1358,o),
(1311,1388,cs),
(1311,1407,o),
(1298,1419,o),
(1277,1419,cs),
(325,1419,ls),
(305,1419,o),
(276,1409,o),
(270,1378,cs),
(196,1020,ls),
(191,997,o),
(234,986,o),
(249,986,cs),
(270,986,o),
(285,993,o),
(293,1019,cs),
(308,1067,o),
(440,1331,o),
(538,1331,cs),
(1032,1331,l),
(53,123,ls),
(11,72,o),
(1,57,o),
(1,34,cs,{
name = hr00;
})
);
}
);
width = 1232;
},
{
anchors = (
{
name = bottom;
pos = (626,0);
},
{
name = top;
pos = (865,1419);
}
);
layerId = "BDB4B313-38B1-4B24-B843-560B185382BD";
shapes = (
{
closed = 1;
nodes = (
(23,12,o),
(36,0,o),
(62,0,cs),
(1175,0,ls),
(1195,0,o),
(1219,11,o),
(1229,41,cs),
(1354,429,ls),
(1361,451,o),
(1315,463,o),
(1300,463,cs),
(1269,463,o),
(1248,456,o),
(1236,430,cs),
(1214,383,o),
(1035,83,o),
(901,83,cs),
(446,83,l),
(1380,1317,ls),
(1396,1339,o),
(1405,1351,o),
(1405,1389,cs),
(1405,1408,o),
(1387,1419,o),
(1371,1419,cs),
(330,1419,ls),
(310,1419,o),
(283,1408,o),
(275,1378,cs),
(177,1020,ls),
(171,997,o),
(206,986,o),
(221,986,cs),
(252,986,o),
(273,993,o),
(285,1019,cs),
(307,1066,o),
(470,1331,o),
(572,1331,cs),
(979,1331,l),
(81,138,ls),
(30,71,o),
(23,61,o),
(23,31,cs)
);
}
);
width = 1412;
}
);
unicode = 90;
userData = {
com.typemytype.robofont.mark = (
0.6,
0.609,
1,
1
);
};
}
{
glyphname = bracketleft;
layers = (
{
layerId = "D92FDD0B-F694-41DD-AE46-0E4F694F0F38";
shapes = (
{
closed = 1;
nodes = (
(501,-313,l),
(515,-216,l),
(261,-216,l),
(514,1453,l),
(768,1453,l),
(781,1549,l),
(337,1549,l),
(58,-313,l,{
name = hr00;
})
);
}
);
width = 768;
},
{
layerId = "BDB4B313-38B1-4B24-B843-560B185382BD";
shapes = (
{
closed = 1;
nodes = (
(651,-313,l),
(665,-216,l),
(416,-216,l),
(670,1453,l),
(919,1453,l),
(932,1549,l),
(378,1549,l),
(98,-313,l)
);
}
);
width = 915;
}
);
unicode = 91;
}
{
glyphname = backslash;
layers = (
{
layerId = "D92FDD0B-F694-41DD-AE46-0E4F694F0F38";
shapes = (
{
closed = 1;
nodes = (
(433,1625,l),
(310,1625,l),
(542,-415,l),
(663,-415,l)
);
}
);
width = 960;
},
{
layerId = "BDB4B313-38B1-4B24-B843-560B185382BD";
shapes = (
{
closed = 1;
nodes = (
(446,1625,l),
(301,1625,l),
(627,-415,l),
(770,-415,l,{
name = hr00;
})
);
}
);
width = 966;
}
);
unicode = 92;
}
{
glyphname = asciicircum;
layers = (
{
layerId = "D92FDD0B-F694-41DD-AE46-0E4F694F0F38";
shapes = (
{
closed = 1;
nodes = (
(308,300,l),
(797,1270,l),
(1069,300,l),
(1215,300,l),
(887,1428,l),
(748,1428,l),
(144,300,l,{
name = hr00;
})
);
}
);
width = 1317;
},
{
layerId = "BDB4B313-38B1-4B24-B843-560B185382BD";
shapes = (
{
closed = 1;
nodes = (
(331,300,l),
(820,1260,l),
(1087,300,l),
(1233,300,l),
(905,1428,l),
(766,1428,l),
(162,300,l)
);
}
);
width = 1440;
}
);
unicode = 94;
}
{
glyphname = underscore;
layers = (
{
layerId = "D92FDD0B-F694-41DD-AE46-0E4F694F0F38";
shapes = (
{
closed = 1;
nodes = (
(-127,-296,l),
(1209,-296,l),
(1224,-190,l),
(-112,-190,l)
);
}
);
width = 1317;
},
{
layerId = "BDB4B313-38B1-4B24-B843-560B185382BD";
shapes = (
{
closed = 1;
nodes = (
(-128,-296,l),
(1331,-296,l),
(1346,-190,l),
(-113,-190,l)
);
}
);
width = 1440;
}
);
unicode = 95;
}
{
glyphname = a;
layers = (
{
anchors = (
{
name = bottom;
pos = (468,0);
},
{
name = ogonek;
pos = (874,10);
},
{
name = top;
pos = (671,994);
}
);
layerId = "D92FDD0B-F694-41DD-AE46-0E4F694F0F38";
shapes = (
{
closed = 1;
nodes = (
(533,-30,o),
(693,223,o),
(741,355,c),
(728,282,o),
(701,125,o),
(701,110,cs),
(701,31,o),
(745,-13,o),
(821,-13,cs,{
name = hr02;
}),
(895,-13,o),
(991,11,o),
(1056,41,cs),
(1074,49,o),
(1081,67,o),
(1081,83,cs,{
name = hr03;
}),
(1081,112,o),
(1068,113,o),
(1056,113,cs),
(1036,113,o),
(984,96,o),
(956,96,cs),
(910,96,o),
(897,117,o),
(897,147,cs),
(897,154,o),
(898,161,o),
(899,168,c),
(1039,967,l),
(1042,990,o),
(1028,997,o),
(1015,997,cs),
(984,997,o),
(937,958,o),
(904,939,c),
(843,984,o),
(801,1013,o),
(684,1013,cs),
(362,1013,o),
(70,639,o),
(70,304,cs),
(70,115,o),
(145,-30,o),
(357,-30,cs)
);
},
{
closed = 1;
nodes = (
(336,107,o),
(281,173,o),
(281,328,cs),
(281,578,o),
(430,918,o),
(687,918,cs),
(773,918,o),
(804,875,o),
(824,819,c),
(780,596,l),
(720,417,o),
(545,107,o),
(413,107,cs,{
name = hr04;
})
);
}
);
width = 1173;
},
{
anchors = (
{
name = bottom;
pos = (565,0);
},
{
name = ogonek;
pos = (1082,10);
},
{
name = top;
pos = (790,994);
}
);
background = {
shapes = (
{
closed = 1;
nodes = (
(609,-21,o),
(783,189,o),
(850,340,c),
(842,292,o),
(805,140,o),
(805,111,cs),
(805,34,o),
(851,-25,o),
(963,-25,cs),
(1117,-25,o),
(1238,25,o),
(1265,34,cs),
(1271,36,o),
(1290,43,o),
(1290,77,cs),
(1290,95,o),
(1282,114,o),
(1262,114,cs),
(1257,114,o),
(1215,102,o),
(1184,102,cs),
(1167,102,o),
(1126,109,o),
(1126,147,cs),
(1126,159,o),
(1127,172,o),
(1129,189,c),
(1267,990,l),
(1267,1006,o),
(1251,1011,o),
(1232,1011,cs),
(1204,1011,o),
(1145,980,o),
(1064,934,c),
(1000,980,o),
(873,1011,o),
(755,1011,cs),
(312,1011,o),
(51,603,o),
(51,306,cs),
(51,125,o),
(164,-27,o),
(372,-24,cs)
);
},
{
closed = 1;
nodes = (
(423,153,o),
(376,197,o),
(376,377,cs),
(376,627,o),
(509,926,o),
(750,926,cs),
(861,926,o),
(938,867,o),
(938,815,c),
(879,525,l),
(833,434,o),
(660,153,o),
(493,153,cs)
);
}
);
};
layerId = "BDB4B313-38B1-4B24-B843-560B185382BD";
shapes = (
{
closed = 1;
nodes = (
(609,-21,o),
(797,253,o),
(864,404,c),
(856,356,o),
(805,140,o),
(805,111,cs),
(805,34,o),
(851,-25,o),
(963,-25,cs),
(1117,-25,o),
(1238,25,o),
(1265,34,cs),
(1271,36,o),
(1290,43,o),
(1290,77,cs),
(1290,95,o),
(1282,114,o),
(1262,114,cs),
(1257,114,o),
(1215,102,o),
(1184,102,cs),
(1167,102,o),
(1126,109,o),
(1126,147,cs),
(1126,159,o),
(1127,172,o),
(1129,189,c),
(1267,990,l),
(1267,1006,o),
(1251,1011,o),
(1232,1011,cs),
(1204,1011,o),
(1145,980,o),
(1064,934,c),
(1000,980,o),
(873,1011,o),
(755,1011,cs),
(312,1011,o),
(51,603,o),
(51,306,cs),
(51,125,o),
(164,-27,o),
(372,-24,cs)
);
},
{
closed = 1;
nodes = (
(423,153,o),
(376,197,o),
(376,377,cs),
(376,627,o),
(509,926,o),
(750,926,cs),
(861,926,o),
(938,867,o),
(938,815,c),
(893,589,l),
(847,498,o),
(660,153,o),
(493,153,cs)
);
}
);
width = 1352;
}
);
unicode = 97;
}
{
glyphname = b;
layers = (
{
anchors = (
{
name = bottom;
pos = (497,0);
},
{
name = top;
pos = (732,994);
}
);
layerId = "D92FDD0B-F694-41DD-AE46-0E4F694F0F38";
shapes = (
{
closed = 1;
nodes = (
(138,70,o),
(329,-20,o),
(519,-20,cs),
(796,-20,o),
(981,223,o),
(1013,492,cs),
(1018,534,o),
(1021,576,o),
(1021,617,cs),
(1021,828,o),
(944,1013,o),
(706,1013,cs),
(606,1013,o),
(468,959,o),
(377,815,c),
(436,1104,l),
(497,1506,ls),
(497,1509,o),
(498,1512,o),
(498,1514,cs),
(498,1536,o),
(484,1546,o),
(473,1546,cs),
(462,1546,o),
(447,1546,o),
(431,1546,cs),
(364,1546,o),
(260,1545,o),
(153,1539,cs),
(134,1538,o),
(121,1502,o),
(121,1488,cs),
(121,1468,o),
(129,1461,o),
(139,1455,cs),
(186,1427,o),
(284,1439,o),
(284,1368,c),
(97,126,l,{
name = hr00;
})
);
},
{
closed = 1;
nodes = (
(429,802,o),
(551,895,o),
(650,895,cs),
(780,895,o),
(817,804,o),
(817,657,cs),
(817,608,o),
(813,552,o),
(807,492,cs),
(783,251,o),
(689,75,o),
(496,75,cs),
(390,75,o),
(310,129,o),
(290,173,c),
(372,719,l)
);
}
);
width = 1134;
},
{
anchors = (
{
name = bottom;
pos = (595,0);
},
{
name = top;
pos = (891,994);
}
);
layerId = "BDB4B313-38B1-4B24-B843-560B185382BD";
shapes = (
{
closed = 1;
nodes = (
(139,70,o),
(375,-22,o),
(601,-22,cs),
(1002,-22,o),
(1210,223,o),
(1255,492,cs),
(1260,529,o),
(1263,565,o),
(1263,600,cs),
(1263,830,o),
(1144,1013,o),
(865,1013,cs),
(744,1013,o),
(602,953,o),
(501,825,c),
(548,1104,l),
(604,1508,ls),
(605,1512,o),
(605,1515,o),
(605,1518,cs),
(605,1542,o),
(590,1548,o),
(580,1548,cs),
(500,1547,o),
(333,1546,o),
(145,1538,cs),
(129,1537,o),
(117,1510,o),
(114,1494,cs),
(111,1469,o),
(120,1460,o),
(133,1454,c),
(181,1441,o),
(276,1451,o),
(276,1355,cs),
(276,1347,o),
(275,1338,o),
(274,1329,cs),
(89,126,l)
);
},
{
closed = 1;
nodes = (
(541,770,o),
(631,865,o),
(742,865,cs),
(873,865,o),
(918,771,o),
(918,622,cs),
(918,582,o),
(914,539,o),
(909,492,cs),
(877,252,o),
(771,73,o),
(578,73,cs),
(494,73,o),
(423,110,o),
(410,165,c),
(491,702,l)
);
}
);
width = 1329;
}
);
unicode = 98;
}
{
glyphname = c;
layers = (
{
anchors = (
{
name = bottom;
pos = (420,0);
},
{
name = top;
pos = (595,994);
}
);
layerId = "D92FDD0B-F694-41DD-AE46-0E4F694F0F38";
shapes = (
{
closed = 1;
nodes = (
(328,1014,o),
(64,740,o),
(64,381,cs),
(64,133,o),
(194,-28,o),
(432,-28,cs),
(598,-28,o),
(714,50,o),
(803,164,c),
(806,170,o),
(814,176,o),
(814,183,cs),
(814,186,o),
(813,189,o),
(809,192,cs),
(772,225,l),
(763,231,o),
(757,223,o),
(750,215,c),
(658,124,o),
(577,75,o),
(463,75,cs),
(364,75,o),
(281,152,o),
(281,360,cs),
(281,720,o),
(423,933,o),
(574,933,cs),
(613,933,o),
(647,925,o),
(660,914,c),
(714,705,ls),
(726,660,o),
(745,662,o),
(784,662,cs),
(826,662,o),
(888,704,o),
(888,787,cs),
(888,944,o),
(757,1014,o),
(590,1014,cs,{
name = hr00;
})
);
}
);
width = 929;
},
{
anchors = (
{
name = bottom;
pos = (524,0);
},
{
name = top;
pos = (706,994);
}
);
layerId = "BDB4B313-38B1-4B24-B843-560B185382BD";
shapes = (
{
closed = 1;
nodes = (
(350,1014,o),
(71,752,o),
(71,411,cs),
(71,145,o),
(241,-28,o),
(539,-28,cs),
(737,-28,o),
(862,62,o),
(967,188,c),
(970,194,o),
(978,200,o),
(978,207,cs),
(978,210,o),
(977,213,o),
(973,216,cs),
(936,249,l),
(927,255,o),
(921,247,o),
(914,239,c),
(846,180,o),
(764,125,o),
(650,125,cs),
(532,125,o),
(418,195,o),
(418,390,cs),
(418,732,o),
(523,933,o),
(671,933,cs),
(722,933,o),
(737,926,o),
(746,918,c),
(801,696,ls),
(813,649,o),
(822,651,o),
(861,651,cs),
(977,651,o),
(1075,695,o),
(1075,781,cs),
(1075,934,o),
(959,1014,o),
(707,1014,cs)
);
}
);
width = 1097;
}
);
unicode = 99;
}
{
glyphname = d;
layers = (
{
anchors = (
{
name = bottom;
pos = (499,0);
},
{
name = center;
pos = (589,497);
},
{
name = top;
pos = (986,1450);
},
{
name = topright;
pos = (1228,994);
}
);
layerId = "D92FDD0B-F694-41DD-AE46-0E4F694F0F38";
shapes = (
{
closed = 1;
nodes = (
(490,-30,o),
(637,23,o),
(725,165,c),
(718,121,o),
(714,94,o),
(714,92,cs),
(714,57,o),
(727,-13,o),
(843,-13,cs,{
name = hr02;
}),
(892,-13,o),
(990,10,o),
(1082,41,cs),
(1100,47,o),
(1107,67,o),
(1107,83,cs,{
name = hr03;
}),
(1107,112,o),
(1094,113,o),
(1082,113,cs),
(1062,113,o),
(1010,96,o),
(982,96,cs),
(936,96,o),
(923,117,o),
(923,147,cs),
(923,154,o),
(924,161,o),
(925,168,cs),
(1111,1506,ls),
(1115,1532,o),
(1098,1546,o),
(1086,1546,cs),
(1029,1546,o),
(876,1546,o),
(742,1538,cs),
(726,1537,o),
(713,1510,o),
(711,1494,c),
(710,1490,o),
(710,1486,o),
(710,1483,cs),
(710,1466,o),
(718,1457,o),
(730,1454,cs),
(779,1442,o),
(897,1439,o),
(897,1368,cs),
(897,1363,o),
(897,1359,o),
(896,1354,c),
(868,1104,l),
(849,957,l),
(790,992,o),
(710,1013,o),
(591,1013,cs),
(289,1013,o),
(79,716,o),
(79,381,cs),
(79,166,o),
(152,-30,o),
(394,-30,cs)
);
},
{
closed = 1;
nodes = (
(315,88,o),
(283,232,o),
(283,368,cs),
(283,580,o),
(347,918,o),
(594,918,cs),
(694,918,o),
(790,870,o),
(818,791,c),
(746,293,l),
(687,193,o),
(541,88,o),
(450,88,cs,{
name = hr04;
})
);
}
);
width = 1178;
},
{
anchors = (
{
name = bottom;
pos = (594,0);
},
{
name = center;
pos = (679,497);
},
{
name = top;
pos = (1158,1464);
},
{
name = topright;
pos = (1407,994);
}
);
layerId = "BDB4B313-38B1-4B24-B843-560B185382BD";
shapes = (
{
closed = 1;
nodes = (
(575,-28,o),
(739,44,o),
(820,146,c),
(819,139,o),
(818,130,o),
(818,121,cs),
(818,67,o),
(842,-17,o),
(999,-17,cs),
(1064,-17,o),
(1152,-3,o),
(1271,34,c),
(1289,40,o),
(1296,61,o),
(1296,76,cs),
(1296,94,o),
(1289,114,o),
(1271,114,cs),
(1252,114,o),
(1218,103,o),
(1189,103,cs),
(1158,103,o),
(1132,114,o),
(1132,157,cs),
(1132,163,o),
(1132,169,o),
(1133,175,cs),
(1332,1508,ls),
(1333,1512,o),
(1333,1515,o),
(1333,1518,cs),
(1333,1542,o),
(1317,1548,o),
(1308,1548,cs),
(1232,1547,o),
(1022,1546,o),
(842,1538,cs),
(826,1537,o),
(811,1512,o),
(811,1486,cs),
(811,1468,o),
(817,1460,o),
(830,1454,c),
(879,1441,o),
(1003,1452,o),
(1003,1350,cs),
(1003,1344,o),
(1002,1337,o),
(1001,1329,c),
(968,1104,l),
(950,965,l),
(901,991,o),
(846,1015,o),
(730,1015,cs),
(341,1015,o),
(72,711,o),
(72,383,cs),
(72,164,o),
(184,-28,o),
(460,-28,cs)
);
},
{
closed = 1;
nodes = (
(522,120,o),
(416,137,o),
(416,360,cs),
(416,628,o),
(522,920,o),
(751,920,cs),
(862,920,o),
(905,846,o),
(919,802,c),
(837,286,l),
(790,210,o),
(688,120,o),
(583,120,cs)
);
}
);
width = 1357;
}
);
unicode = 100;
}
{
glyphname = f;
layers = (
{
anchors = (
{
name = bottom;
pos = (434,0);
},
{
name = top;
pos = (509,1549);
}
);
layerId = "D92FDD0B-F694-41DD-AE46-0E4F694F0F38";
shapes = (
{
closed = 1;
nodes = (
(153,-442,o),
(297,-198,o),
(329,56,cs),
(435,892,l),
(677,892,l),
(691,898,o),
(701,945,o),
(701,969,cs),
(701,982,o),
(694,993,o),
(681,994,c),
(449,994,l),
(465,1107,ls),
(509,1417,o),
(560,1475,o),
(620,1475,c),
(701,1343,l),
(701,1341,o),
(701,1340,o),
(712,1340,cs),
(747,1340,o),
(825,1361,o),
(825,1440,cs),
(825,1518,o),
(771,1573,o),
(679,1573,cs),
(421,1573,o),
(310,1326,o),
(274,1075,cs),
(262,992,l),
(114,984,l),
(100,978,o),
(84,966,o),
(84,941,cs),
(84,925,o),
(86,893,o),
(102,892,c),
(249,892,l),
(137,20,ls),
(99,-272,o),
(26,-340,o),
(-48,-344,c),
(-128,-208,l),
(-131,-206,o),
(-140,-206,o),
(-145,-206,cs),
(-180,-206,o),
(-246,-240,o),
(-246,-320,cs),
(-246,-387,o),
(-213,-442,o),
(-87,-442,cs)
);
}
);
width = 673;
},
{
anchors = (
{
name = bottom;
pos = (600,0);
},
{
name = top;
pos = (572,1570);
}
);
layerId = "BDB4B313-38B1-4B24-B843-560B185382BD";
shapes = (
{
closed = 1;
nodes = (
(252,-442,o),
(406,-200,o),
(440,56,cs),
(552,892,l),
(780,892,l),
(797,899,o),
(813,945,o),
(813,969,cs),
(813,982,o),
(806,993,o),
(793,994,c),
(565,994,l),
(580,1107,ls),
(621,1418,o),
(646,1475,o),
(709,1475,c),
(799,1312,ls),
(800,1310,o),
(805,1309,o),
(811,1309,cs),
(873,1309,o),
(970,1353,o),
(970,1431,cs),
(970,1499,o),
(922,1573,o),
(738,1573,cs),
(418,1573,o),
(317,1327,o),
(277,1075,cs),
(264,994,l),
(104,984,l),
(90,978,o),
(79,966,o),
(74,941,cs),
(71,925,o),
(76,893,o),
(92,892,c),
(252,892,l),
(136,20,ls),
(98,-269,o),
(55,-340,o),
(-23,-344,c),
(-99,-143,l),
(-117,-141,o),
(-132,-140,o),
(-143,-140,cs),
(-217,-140,o),
(-287,-205,o),
(-287,-284,cs),
(-287,-352,o),
(-244,-442,o),
(-62,-442,cs)
);
}
);
width = 780;
}
);
unicode = 102;
}
{
glyphname = g;
layers = (
{
anchors = (
{
name = bottom;
pos = (433,-433);
},
{
name = top;
pos = (632,994);
}
);
layerId = "D92FDD0B-F694-41DD-AE46-0E4F694F0F38";
shapes = (
{
closed = 1;
nodes = (
(724,-480,o),
(971,-370,o),
(971,-93,cs),
(971,56,o),
(863,115,o),
(651,137,cs),
(407,162,ls),
(341,169,o),
(294,203,o),
(295,251,cs),
(296,296,o),
(351,354,o),
(404,366,c),
(431,362,o),
(482,359,o),
(516,359,cs),
(797,359,o),
(944,533,o),
(947,743,cs),
(948,793,o),
(925,848,o),
(908,860,c),
(935,876,o),
(987,904,o),
(995,886,cs),
(1008,856,o),
(1021,834,o),
(1047,805,c),
(1059,788,o),
(1080,778,o),
(1102,778,cs),
(1145,778,o),
(1192,812,o),
(1194,888,cs),
(1195,968,o),
(1157,1014,o),
(1067,1014,cs),
(1001,1014,o),
(911,958,o),
(874,912,c),
(817,976,o),
(715,1014,o),
(594,1014,cs),
(315,1014,o),
(150,875,o),
(147,647,cs),
(145,562,o),
(206,439,o),
(323,393,c),
(209,359,o),
(133,296,o),
(131,173,cs),
(131,129,o),
(145,96,o),
(167,69,c),
(53,25,o),
(-4,-51,o),
(-6,-176,cs,{
name = hr02;
}),
(-9,-344,o),
(188,-480,o),
(453,-480,cs)
);
},
{
closed = 1;
nodes = (
(404,456,o),
(341,541,o),
(341,642,cs),
(341,784,o),
(378,924,o),
(573,924,cs),
(691,924,o),
(750,837,o),
(750,737,cs),
(750,565,o),
(689,456,o),
(525,456,cs,{
name = hr01;
})
);
},
{
closed = 1;
nodes = (
(323,-383,o),
(177,-321,o),
(177,-142,cs,{
name = hr04;
}),
(177,-66,o),
(185,-12,o),
(232,24,c),
(279,3,o),
(337,-6,o),
(392,-12,cs),
(526,-26,ls),
(664,-40,o),
(826,-58,o),
(825,-165,cs),
(823,-334,o),
(646,-383,o),
(463,-383,cs)
);
}
);
width = 1173;
},
{
anchors = (
{
name = bottom;
pos = (518,-409);
},
{
name = top;
pos = (692,994);
}
);
layerId = "BDB4B313-38B1-4B24-B843-560B185382BD";
shapes = (
{
closed = 1;
nodes = (
(872,-448,o),
(1146,-311,o),
(1146,-87,cs),
(1146,77,o),
(1046,167,o),
(751,202,cs),
(446,238,ls),
(368,247,o),
(341,284,o),
(341,320,cs),
(341,345,o),
(371,372,o),
(403,392,c),
(459,377,o),
(526,369,o),
(605,369,cs),
(882,369,o),
(1101,484,o),
(1101,745,cs),
(1101,782,o),
(1094,816,o),
(1080,848,c),
(1117,866,o),
(1155,879,o),
(1164,874,c),
(1171,849,o),
(1177,823,o),
(1184,798,cs),
(1193,764,o),
(1233,744,o),
(1277,744,cs),
(1337,744,o),
(1394,783,o),
(1394,865,cs),
(1394,965,o),
(1322,1019,o),
(1242,1019,cs),
(1155,1019,o),
(1073,970,o),
(1022,923,c),
(956,980,o),
(844,1014,o),
(676,1014,cs),
(423,1014,o),
(174,908,o),
(174,648,cs),
(174,555,o),
(218,474,o),
(319,424,c),
(231,381,o),
(125,292,o),
(125,186,cs),
(125,120,o),
(152,81,o),
(203,46,c),
(108,15,o),
(-3,-55,o),
(-3,-163,cs),
(-3,-359,o),
(206,-448,o),
(549,-448,cs)
);
},
{
closed = 1;
nodes = (
(525,458,o),
(489,528,o),
(489,651,cs),
(489,811,o),
(528,928,o),
(654,928,cs),
(767,928,o),
(812,876,o),
(812,758,cs),
(812,593,o),
(760,458,o),
(629,458,cs)
);
},
{
closed = 1;
nodes = (
(333,-352,o),
(265,-266,o),
(265,-141,cs),
(265,-81,o),
(275,-32,o),
(299,0,c),
(314,-3,o),
(331,-6,o),
(348,-8,cs),
(660,-47,ls),
(781,-62,o),
(860,-98,o),
(860,-158,cs),
(860,-294,o),
(715,-352,o),
(575,-352,cs)
);
}
);
width = 1330;
}
);
unicode = 103;
}
{
glyphname = k;
layers = (
{
anchors = (
{
name = bottom;
pos = (471,0);
},
{
name = top;
pos = (385,1500);
}
);
layerId = "D92FDD0B-F694-41DD-AE46-0E4F694F0F38";
shapes = (
{
closed = 1;
nodes = (
(515,1506,l),
(517,1538,o),
(502,1546,o),
(491,1546,cs),
(434,1546,o),
(305,1547,o),
(171,1539,cs),
(155,1538,o),
(139,1511,o),
(139,1495,cs),
(139,1479,o),
(145,1462,o),
(157,1455,cs),
(202,1429,o),
(302,1441,o),
(302,1369,c),
(94,0,l),
(281,0,l),
(340,405,l),
(425,475,l),
(520,373,o),
(608,166,o),
(684,33,cs,{
name = hr02;
}),
(700,5,o),
(739,-17,o),
(803,-17,cs),
(852,-17,o),
(922,-3,o),
(1013,27,cs),
(1031,33,o),
(1038,54,o),
(1038,69,cs),
(1038,89,o),
(1032,107,o),
(1012,107,cs),
(995,107,o),
(963,97,o),
(935,97,cs),
(898,97,o),
(867,137,o),
(844,170,cs),
(746,310,o),
(653,502,o),
(562,570,c),
(868,814,ls),
(916,852,o),
(987,899,o),
(1046,899,cs),
(1071,899,o),
(1088,921,o),
(1088,949,cs),
(1088,964,o),
(1079,987,o),
(1060,987,cs),
(687,990,ls),
(665,990,o),
(645,960,o),
(645,934,cs),
(645,918,o),
(650,905,o),
(671,903,cs),
(717,899,o),
(769,894,o),
(769,873,cs),
(769,866,o),
(764,858,o),
(752,848,cs),
(347,503,l),
(399,742,l,{
name = hr01;
})
);
}
);
width = 1081;
},
{
anchors = (
{
name = bottom;
pos = (587,0);
},
{
name = top;
pos = (445,1478);
}
);
layerId = "BDB4B313-38B1-4B24-B843-560B185382BD";
shapes = (
{
closed = 1;
nodes = (
(636,1518,l),
(636,1542,o),
(621,1548,o),
(611,1548,cs),
(530,1548,o),
(384,1550,o),
(194,1538,cs),
(178,1537,o),
(163,1517,o),
(163,1494,cs),
(163,1475,o),
(169,1460,o),
(182,1454,c),
(229,1441,o),
(309,1451,o),
(309,1359,c),
(100,0,l),
(412,0,l),
(473,366,l),
(599,467,l),
(675,366,o),
(710,199,o),
(768,67,cs),
(792,12,o),
(833,-13,o),
(890,-13,cs),
(1035,-13,o),
(1123,-1,o),
(1250,34,cs),
(1268,39,o),
(1275,61,o),
(1275,76,cs),
(1275,94,o),
(1268,114,o),
(1250,114,cs),
(1239,114,o),
(1211,103,o),
(1191,103,cs),
(1154,103,o),
(1122,143,o),
(1099,175,cs),
(993,322,o),
(919,549,o),
(831,649,c),
(996,808,ls),
(1058,868,o),
(1196,910,o),
(1285,906,cs),
(1309,905,o),
(1324,928,o),
(1324,954,cs),
(1324,970,o),
(1317,994,o),
(1296,994,cs),
(763,994,ls),
(742,994,o),
(722,967,o),
(722,936,cs),
(722,920,o),
(728,908,o),
(748,906,cs),
(798,901,o),
(877,889,o),
(877,858,cs),
(877,851,o),
(873,842,o),
(861,832,cs),
(483,490,l),
(519,743,l)
);
}
);
width = 1313;
}
);
unicode = 107;
}
{
glyphname = l;
layers = (
{
anchors = (
{
name = bottom;
pos = (220,0);
},
{
name = center;
pos = (354,939);
},
{
name = top;
pos = (389,1514);
}
);
layerId = "D92FDD0B-F694-41DD-AE46-0E4F694F0F38";
shapes = (
{
closed = 1;
nodes = (
(114,142,o,{
name = hr01;
}),
(112,124,o),
(112,102,cs),
(112,57,o),
(118,-13,o),
(234,-13,cs),
(283,-13,o),
(377,10,o),
(469,41,cs),
(487,47,o),
(494,67,o),
(494,83,cs,{
name = hr02;
}),
(494,112,o),
(481,113,o),
(469,113,cs),
(449,113,o),
(397,96,o),
(369,96,cs),
(323,96,o),
(310,117,o),
(310,147,cs),
(310,163,o),
(513,1512,o),
(513,1518,cs),
(513,1542,o),
(498,1548,o),
(488,1548,cs),
(431,1548,o),
(301,1544,o),
(167,1538,cs),
(146,1537,o),
(135,1497,o),
(135,1485,cs),
(135,1417,o),
(299,1459,o),
(299,1368,cs),
(299,1350,o),
(129,238,o),
(114,142,c,{
name = hr01;
})
);
}
);
width = 584;
},
{
anchors = (
{
name = bottom;
pos = (289,0);
},
{
name = center;
pos = (406,945);
},
{
name = top;
pos = (483,1501);
}
);
background = {
shapes = (
{
closed = 1;
nodes = (
(418,0,l),
(522,669,l),
(569,716,o),
(679,838,o),
(828,838,cs),
(947,838,o),
(940,769,o),
(940,689,c),
(849,105,l),
(849,59,o),
(874,-13,o),
(1034,-13,cs),
(1100,-13,o),
(1190,0,o),
(1311,34,c),
(1329,40,o),
(1336,61,o),
(1336,76,cs),
(1336,94,o),
(1329,114,o),
(1311,114,cs),
(1301,114,o),
(1261,103,o),
(1230,103,cs),
(1195,103,o),
(1169,117,o),
(1173,175,c),
(1266,763,l),
(1286,961,o),
(1166,1014,o),
(1026,1014,cs),
(760,1014,o),
(580,832,o),
(529,785,c),
(585,1104,l),
(651,1508,l),
(653,1540,o),
(638,1548,o),
(627,1548,cs),
(546,1548,o),
(387,1550,o),
(197,1538,cs),
(181,1537,o),
(169,1510,o),
(166,1494,c),
(163,1469,o),
(172,1460,o),
(185,1454,c),
(233,1441,o),
(320,1451,o),
(320,1357,cs),
(320,1348,o),
(319,1339,o),
(318,1329,c),
(109,0,l)
);
}
);
};
layerId = "BDB4B313-38B1-4B24-B843-560B185382BD";
shapes = (
{
closed = 1;
nodes = (
(130,155,o),
(126,137,o),
(126,116,cs),
(126,71,o),
(149,-13,o),
(273,-13,cs),
(401,-13,o),
(499,8,o),
(582,34,cs),
(601,40,o),
(607,60,o),
(607,76,cs),
(607,105,o),
(593,107,o),
(581,107,cs),
(561,107,o),
(529,98,o),
(501,98,cs),
(455,98,o),
(442,119,o),
(442,149,cs),
(442,169,o),
(652,1507,o),
(652,1518,cs),
(652,1542,o),
(637,1548,o),
(627,1548,cs),
(547,1548,o),
(381,1547,o),
(193,1538,cs),
(172,1537,o),
(159,1497,o),
(159,1485,cs),
(159,1414,o),
(327,1461,o),
(327,1364,cs),
(327,1360,o),
(162,353,o),
(134,180,cs)
);
}
);
width = 726;
}
);
unicode = 108;
}
{
glyphname = m;
layers = (
{
anchors = (
{
name = bottom;
pos = (831,0);
},
{
name = top;
pos = (914,994);
}
);
layerId = "D92FDD0B-F694-41DD-AE46-0E4F694F0F38";
shapes = (
{
closed = 1;
nodes = (
(1624,786,o),
(1625,805,o),
(1625,823,cs),
(1625,981,o),
(1545,1014,o),
(1419,1014,cs),
(1276,1014,o),
(1107,895,o),
(1036,824,c),
(1035,981,o),
(958,1014,o),
(828,1014,cs),
(654,1014,o),
(466,832,o),
(424,785,c),
(450,957,l,{
name = hr02;
}),
(454,989,o),
(437,997,o),
(426,997,cs),
(370,997,o),
(254,995,o),
(124,987,cs),
(108,986,o),
(94,959,o),
(94,943,cs),
(94,939,o),
(93,936,o),
(93,933,cs),
(93,916,o),
(101,908,o),
(112,903,c),
(156,890,o),
(247,899,o),
(247,807,cs),
(247,798,o),
(246,789,o),
(244,778,cs),
(121,0,l),
(313,0,l),
(422,688,l),
(488,763,o),
(588,873,o),
(721,873,cs,{
name = hr03;
}),
(823,873,o),
(841,816,o),
(841,778,cs),
(841,772,o),
(841,767,o),
(840,762,cs),
(722,0,l),
(916,0,l),
(1026,722,l),
(1096,792,o),
(1192,873,o),
(1309,873,cs),
(1411,873,o),
(1429,816,o),
(1429,778,cs),
(1429,772,o),
(1429,767,o),
(1428,762,cs),
(1331,142,l,{
name = hr04;
}),
(1331,142,o),
(1329,124,o),
(1329,102,cs),
(1329,57,o),
(1335,-13,o),
(1451,-13,cs),
(1500,-13,o),
(1594,10,o),
(1686,41,cs),
(1704,47,o),
(1711,67,o),
(1711,83,cs,{
name = hr05;
}),
(1711,112,o),
(1698,113,o),
(1686,113,cs),
(1666,113,o),
(1614,96,o),
(1586,96,cs),
(1540,96,o),
(1527,119,o),
(1527,151,cs),
(1527,159,o),
(1528,167,o),
(1529,175,c),
(1621,766,l,{
name = hr01;
})
);
}
);
width = 1801;
},
{
anchors = (
{
name = bottom;
pos = (956,0);
},
{
name = top;
pos = (1087,994);
}
);
layerId = "BDB4B313-38B1-4B24-B843-560B185382BD";
shapes = (
{
closed = 1;
nodes = (
(1908,750,o),
(1909,772,o),
(1909,792,cs),
(1909,974,o),
(1776,1014,o),
(1629,1014,cs),
(1434,1014,o),
(1308,895,o),
(1223,824,c),
(1205,976,o),
(1097,1014,o),
(948,1014,cs),
(734,1014,o),
(568,852,o),
(518,785,c),
(544,957,l),
(548,989,o),
(531,997,o),
(520,997,cs),
(440,997,o),
(284,999,o),
(98,987,cs),
(82,986,o),
(68,959,o),
(68,943,cs),
(68,939,o),
(67,936,o),
(67,933,cs),
(67,916,o),
(75,908,o),
(86,903,c),
(130,890,o),
(221,899,o),
(221,807,cs),
(221,798,o),
(220,789,o),
(218,778,cs),
(95,0,l),
(407,0,l),
(516,688,l),
(578,751,o),
(670,843,o),
(794,843,cs),
(890,843,o),
(911,783,o),
(911,731,cs),
(911,719,o),
(910,707,o),
(908,697,cs),
(801,0,l),
(1115,0,l),
(1223,722,l),
(1286,777,o),
(1369,843,o),
(1474,843,cs),
(1569,843,o),
(1589,782,o),
(1589,730,cs),
(1589,717,o),
(1588,705,o),
(1586,694,cs),
(1502,142,l),
(1502,142,o),
(1497,124,o),
(1497,101,cs),
(1497,53,o),
(1517,-17,o),
(1641,-13,c),
(1809,-13,o),
(1931,41,o),
(1957,54,cs),
(1963,57,o),
(1965,67,o),
(1965,76,cs),
(1965,96,o),
(1953,119,o),
(1931,113,cs),
(1906,106,o),
(1867,100,o),
(1848,100,cs),
(1831,100,o),
(1820,115,o),
(1820,153,cs),
(1820,165,o),
(1821,179,o),
(1823,195,cs),
(1904,726,l)
);
}
);
width = 2052;
}
);
unicode = 109;
}
{
glyphname = n;
layers = (
{
anchors = (
{
name = bottom;
pos = (555,0);
},
{
name = top;
pos = (628,994);
}
);
layerId = "D92FDD0B-F694-41DD-AE46-0E4F694F0F38";
shapes = (
{
closed = 1;
nodes = (
(1030,786,o),
(1032,804,o),
(1032,821,cs),
(1032,981,o),
(930,1014,o),
(824,1014,cs,{
name = hr02;
}),
(639,1014,o),
(478,842,o),
(425,785,c),
(451,957,ls,{
name = hr03;
}),
(456,989,o),
(438,997,o),
(427,997,cs),
(371,997,o),
(253,995,o),
(123,987,cs),
(107,986,o),
(95,959,o),
(93,943,cs),
(90,918,o),
(97,909,o),
(111,903,c),
(155,890,o),
(245,899,o),
(245,806,cs),
(245,797,o),
(245,788,o),
(243,778,cs),
(122,0,l),
(314,0,l),
(423,689,l),
(489,774,o),
(636,874,o),
(746,874,cs,{
name = hr04;
}),
(808,874,o),
(837,861,o),
(837,810,cs),
(837,802,o),
(837,794,o),
(835,784,cs),
(738,142,l,{
name = hr05;
}),
(738,142,o),
(736,124,o),
(736,102,cs),
(736,57,o),
(742,-13,o),
(858,-13,cs),
(907,-13,o),
(1002,-2,o),
(1093,41,cs),
(1110,49,o),
(1118,67,o),
(1118,83,cs,{
name = hr06;
}),
(1118,112,o),
(1105,113,o),
(1093,113,cs),
(1073,113,o),
(1021,96,o),
(993,96,cs),
(947,96,o),
(934,119,o),
(934,151,cs),
(934,159,o),
(935,167,o),
(936,175,c),
(1028,766,l,{
name = hr01;
})
);
}
);
width = 1208;
},
{
anchors = (
{
name = bottom;
pos = (637,0);
},
{
name = top;
pos = (777,994);
}
);
layerId = "BDB4B313-38B1-4B24-B843-560B185382BD";
shapes = (
{
closed = 1;
nodes = (
(1242,744,o),
(1244,767,o),
(1244,789,cs),
(1244,961,o),
(1142,1014,o),
(1029,1014,cs),
(754,1014,o),
(596,842,o),
(533,785,c),
(559,957,ls),
(564,989,o),
(546,997,o),
(535,997,cs),
(455,997,o),
(297,999,o),
(111,987,cs),
(95,986,o),
(83,959,o),
(81,943,cs),
(78,918,o),
(85,909,o),
(99,903,c),
(143,890,o),
(232,899,o),
(232,806,cs),
(232,798,o),
(232,788,o),
(230,778,cs),
(109,0,l),
(421,0,l),
(531,689,l),
(597,759,o),
(709,844,o),
(848,844,cs),
(905,844,o),
(927,804,o),
(927,744,cs),
(927,730,o),
(926,716,o),
(924,701,cs),
(841,142,l),
(841,142,o),
(836,124,o),
(836,101,cs),
(836,53,o),
(856,-17,o),
(980,-13,cs),
(1143,-8,o),
(1242,28,o),
(1296,54,cs),
(1302,57,o),
(1304,67,o),
(1304,76,cs),
(1304,96,o),
(1292,119,o),
(1270,113,cs),
(1245,106,o),
(1206,100,o),
(1187,100,cs),
(1170,100,o),
(1159,115,o),
(1159,155,cs),
(1159,166,o),
(1160,180,o),
(1162,195,cs),
(1239,719,l)
);
}
);
width = 1413;
}
);
unicode = 110;
}
{
glyphname = o;
layers = (
{
anchors = (
{
name = bottom;
pos = (474,0);
},
{
name = center;
pos = (550,497);
},
{
name = ogonek;
pos = (940,10);
},
{
name = top;
pos = (621,994);
},
{
name = topright;
pos = (1168,994);
}
);
layerId = "D92FDD0B-F694-41DD-AE46-0E4F694F0F38";
shapes = (
{
closed = 1;
nodes = (
(93,164,o),
(217,-28,o),
(490,-28,cs),
(811,-28,o),
(1006,245,o),
(1006,568,cs),
(1006,821,o),
(892,1014,o),
(613,1014,cs),
(295,1014,o),
(93,714,o),
(93,424,cs,{
name = hr00;
})
);
},
{
closed = 1;
nodes = (
(340,59,o),
(306,190,o),
(306,376,cs),
(306,640,o),
(387,926,o),
(612,926,cs),
(758,926,o),
(790,800,o),
(790,617,cs),
(790,347,o),
(710,59,o),
(486,59,cs)
);
}
);
width = 1100;
},
{
anchors = (
{
name = bottom;
pos = (579,0);
},
{
name = center;
pos = (650,502);
},
{
name = ogonek;
pos = (1114,10);
},
{
name = top;
pos = (729,994);
},
{
name = topright;
pos = (1362,994);
}
);
layerId = "BDB4B313-38B1-4B24-B843-560B185382BD";
shapes = (
{
closed = 1;
nodes = (
(91,151,o),
(237,-28,o),
(605,-28,cs),
(998,-28,o),
(1217,240,o),
(1217,546,cs),
(1217,826,o),
(1071,1014,o),
(688,1014,cs),
(286,1014,o),
(77,705,o),
(84,421,cs)
);
},
{
closed = 1;
nodes = (
(460,59,o),
(422,185,o),
(422,364,cs),
(422,634,o),
(498,926,o),
(692,926,cs),
(836,926,o),
(879,800,o),
(879,616,cs),
(879,346,o),
(801,59,o),
(601,59,cs)
);
}
);
width = 1302;
}
);
unicode = 111;
}
{
glyphname = p;
layers = (
{
anchors = (
{
name = bottom;
pos = (161,-426);
},
{
name = top;
pos = (706,994);
}
);
layerId = "D92FDD0B-F694-41DD-AE46-0E4F694F0F38";
shapes = (
{
closed = 1;
nodes = (
(434,-426,ls),
(452,-426,o),
(475,-412,o),
(475,-375,cs),
(475,-360,o),
(468,-350,o),
(446,-348,cs),
(368,-341,o),
(267,-328,o),
(273,-284,c),
(309,-108,l),
(325,14,l),
(381,-13,o),
(456,-30,o),
(560,-30,cs),
(862,-30,o),
(1072,283,o),
(1072,618,cs),
(1072,833,o),
(999,1013,o),
(757,1013,cs),
(662,1013,o),
(517,956,o),
(429,810,c),
(452,967,l),
(452,991,o),
(437,997,o),
(427,997,cs),
(371,997,o),
(255,995,o),
(125,987,cs),
(109,986,o),
(97,959,o),
(95,943,c),
(93,918,o),
(99,908,o),
(113,903,cs),
(156,888,o),
(247,900,o),
(247,804,cs),
(247,796,o),
(246,787,o),
(245,778,cs),
(93,-269,ls),
(83,-337,o),
(7,-342,o),
(-43,-348,cs),
(-70,-351,o),
(-83,-360,o),
(-83,-385,cs),
(-83,-400,o),
(-77,-426,o),
(-56,-426,cs)
);
},
{
closed = 1;
nodes = (
(472,65,o),
(390,100,o),
(350,159,c),
(424,704,l),
(486,799,o),
(614,895,o),
(701,895,cs,{
name = hr03;
}),
(836,895,o),
(868,767,o),
(868,631,cs),
(868,419,o),
(804,65,o),
(557,65,cs)
);
}
);
width = 1184;
},
{
anchors = (
{
name = bottom;
pos = (219,-426);
},
{
name = top;
pos = (805,994);
}
);
layerId = "BDB4B313-38B1-4B24-B843-560B185382BD";
shapes = (
{
closed = 1;
nodes = (
(530,-426,ls),
(562,-426,o),
(571,-385,o),
(571,-375,cs),
(571,-360,o),
(564,-350,o),
(542,-348,cs),
(466,-341,o),
(375,-329,o),
(375,-288,c),
(400,-108,l),
(408,-7,l),
(473,-21,o),
(544,-30,o),
(613,-30,cs),
(1044,-30,o),
(1261,309,o),
(1261,618,cs),
(1261,815,o),
(1162,1013,o),
(894,1013,cs),
(773,1013,o),
(624,952,o),
(523,815,c),
(546,967,l),
(546,991,o),
(531,997,o),
(521,997,cs),
(441,997,o),
(285,995,o),
(99,987,cs),
(77,986,o),
(68,944,o),
(68,933,cs),
(68,912,o),
(82,904,o),
(101,899,cs),
(146,887,o),
(221,892,o),
(221,804,cs),
(221,796,o),
(220,787,o),
(219,778,cs),
(69,-251,ls),
(56,-337,o),
(-17,-342,o),
(-67,-348,cs),
(-93,-351,o),
(-107,-356,o),
(-107,-390,cs),
(-107,-405,o),
(-99,-426,o),
(-80,-426,cs)
);
},
{
closed = 1;
nodes = (
(511,65,o),
(432,113,o),
(429,144,c),
(521,719,l),
(571,787,o),
(672,865,o),
(764,865,cs),
(877,865,o),
(914,773,o),
(914,627,cs),
(914,327,o),
(807,65,o),
(590,65,cs)
);
}
);
width = 1357;
}
);
unicode = 112;
}
{
glyphname = q;
layers = (
{
anchors = (
{
name = bottom;
pos = (407,0);
},
{
name = top;
pos = (661,994);
}
);
layerId = "D92FDD0B-F694-41DD-AE46-0E4F694F0F38";
shapes = (
{
closed = 1;
nodes = (
(925,-444,ls),
(946,-444,o),
(966,-427,o),
(966,-396,cs),
(966,-378,o),
(957,-368,o),
(934,-366,cs),
(888,-362,o),
(843,-356,o),
(843,-296,c),
(1040,994,l),
(1043,1016,o),
(1028,1028,o),
(1007,1028,cs),
(992,1028,o),
(974,1022,o),
(959,1007,cs),
(948,996,o),
(908,964,o),
(876,937,c),
(815,983,o),
(766,1013,o),
(626,1013,cs),
(324,1013,o),
(77,710,o),
(77,375,cs),
(77,160,o),
(150,-30,o),
(392,-30,cs),
(486,-30,o),
(644,28,o),
(737,197,c),
(703,-29,l),
(657,-302,ls),
(650,-346,o),
(595,-360,o),
(520,-366,cs),
(494,-368,o),
(482,-382,o),
(482,-403,cs),
(482,-418,o),
(487,-444,o),
(510,-444,cs)
);
},
{
closed = 1;
nodes = (
(313,88,o),
(281,226,o),
(281,362,cs),
(281,574,o),
(372,918,o),
(619,918,cs),
(722,918,o),
(793,867,o),
(818,784,c),
(747,310,l),
(683,200,o),
(538,88,o),
(448,88,cs)
);
}
);
width = 1137;
},
{
anchors = (
{
name = bottom;
pos = (493,0);
},
{
name = top;
pos = (770,994);
}
);
layerId = "BDB4B313-38B1-4B24-B843-560B185382BD";
shapes = (
{
closed = 1;
nodes = (
(1197,-444,ls),
(1218,-444,o),
(1238,-426,o),
(1238,-396,cs),
(1238,-378,o),
(1229,-368,o),
(1206,-366,cs),
(1148,-361,o),
(1077,-356,o),
(1077,-292,c),
(1261,989,l),
(1261,1011,o),
(1247,1028,o),
(1227,1028,cs),
(1204,1028,o),
(1121,997,o),
(1108,994,cs),
(1070,985,o),
(1045,972,o),
(984,951,c),
(904,998,o),
(841,1015,o),
(739,1015,cs),
(350,1015,o),
(81,722,o),
(81,383,cs),
(81,164,o),
(193,-28,o),
(466,-28,cs),
(584,-28,o),
(700,18,o),
(829,146,c),
(804,-29,l),
(763,-302,ls),
(756,-346,o),
(678,-358,o),
(611,-366,cs),
(585,-369,o),
(573,-382,o),
(573,-403,cs),
(573,-418,o),
(578,-444,o),
(601,-444,cs)
);
},
{
closed = 1;
nodes = (
(530,120,o),
(428,136,o),
(428,376,cs),
(428,638,o),
(535,920,o),
(760,920,cs),
(871,920,o),
(914,840,o),
(928,802,c),
(846,279,l),
(799,210,o),
(697,120,o),
(592,120,cs)
);
}
);
width = 1331;
}
);
unicode = 113;
}
{
glyphname = s;
layers = (
{
anchors = (
{
name = bottom;
pos = (375,0);
},
{
name = top;
pos = (505,994);
}
);
layerId = "D92FDD0B-F694-41DD-AE46-0E4F694F0F38";
shapes = (
{
closed = 1;
nodes = (
(567,-21,o),
(751,70,o),
(751,278,cs),
(751,419,o),
(623,513,o),
(502,590,cs),
(397,657,o),
(327,718,o),
(323,795,cs),
(318,896,o),
(413,934,o),
(491,934,cs),
(524,934,o),
(552,927,o),
(567,911,c),
(701,743,l),
(738,743,o),
(810,781,o),
(806,842,cs),
(800,939,o),
(706,1013,o),
(500,1013,cs),
(385,1013,o),
(154,970,o),
(154,750,cs),
(154,611,o),
(265,510,o),
(369,441,cs),
(473,372,o),
(562,318,o),
(567,220,cs),
(573,109,o),
(478,61,o),
(414,61,cs,{
name = hr00;
}),
(355,61,o),
(330,66,o),
(304,89,c),
(157,282,l),
(93,282,o),
(52,239,o),
(52,183,cs),
(52,42,o),
(192,-21,o),
(397,-21,cs)
);
}
);
width = 883;
},
{
anchors = (
{
name = bottom;
pos = (470,0);
},
{
name = top;
pos = (628,994);
}
);
layerId = "BDB4B313-38B1-4B24-B843-560B185382BD";
shapes = (
{
closed = 1;
nodes = (
(819,-26,o),
(947,151,o),
(947,281,cs),
(947,441,o),
(826,527,o),
(664,618,cs),
(537,688,o),
(436,732,o),
(436,814,cs),
(436,887,o),
(501,938,o),
(615,938,cs),
(662,938,o),
(692,922,o),
(724,900,c),
(872,701,l),
(912,701,o),
(1023,742,o),
(1023,815,cs),
(1023,921,o),
(883,1013,o),
(592,1013,cs),
(323,1013,o),
(156,888,o),
(156,729,cs),
(156,562,o),
(249,488,o),
(372,414,cs),
(511,330,o),
(661,277,o),
(661,177,cs),
(661,102,o),
(580,52,o),
(488,52,cs),
(441,52,o),
(394,62,o),
(367,85,c),
(203,317,l),
(105,317,o),
(55,266,o),
(55,191,cs),
(55,34,o),
(266,-26,o),
(490,-26,cs)
);
}
);
width = 1059;
}
);
unicode = 115;
}
{
glyphname = t;
layers = (
{
anchors = (
{
name = bottom;
pos = (294,0);
},
{
name = center;
pos = (364,497);
},
{
name = top;
pos = (401,1191);
},
{
name = topright;
pos = (769,994);
}
);
layerId = "D92FDD0B-F694-41DD-AE46-0E4F694F0F38";
shapes = (
{
closed = 1;
nodes = (
(392,-21,o),
(524,25,o),
(592,93,cs),
(598,99,o),
(600,106,o),
(600,114,cs),
(600,133,o),
(583,157,o),
(571,157,cs),
(558,157,o),
(486,103,o),
(405,103,cs),
(363,103,o),
(322,116,o),
(322,216,cs),
(322,237,o),
(323,262,o),
(328,292,cs),
(435,892,l),
(676,892,l),
(693,899,o),
(710,944,o),
(710,968,cs),
(710,981,o),
(703,993,o),
(690,994,c),
(449,994,l),
(500,1276,l),
(500,1284,o),
(492,1291,o),
(480,1291,cs),
(445,1291,ls),
(428,1291,o),
(413,1286,o),
(406,1268,cs),
(324,1056,o),
(254,994,o),
(140,984,c),
(123,977,o),
(109,963,o),
(109,931,cs),
(109,915,o),
(114,893,o),
(127,892,c),
(238,892,l),
(121,223,ls,{
name = hr00;
}),
(117,199,o),
(116,176,o),
(116,156,cs),
(116,9,o),
(210,-21,o),
(296,-21,cs)
);
}
);
width = 711;
},
{
anchors = (
{
name = bottom;
pos = (357,0);
},
{
name = center;
pos = (427,497);
},
{
name = top;
pos = (486,1191);
},
{
name = topright;
pos = (904,994);
}
);
layerId = "BDB4B313-38B1-4B24-B843-560B185382BD";
shapes = (
{
closed = 1;
nodes = (
(572,-28,o),
(631,30,o),
(753,111,cs),
(762,117,o),
(765,127,o),
(765,139,cs),
(765,163,o),
(755,188,o),
(734,188,cs),
(708,188,o),
(648,121,o),
(542,121,cs),
(500,121,o),
(455,125,o),
(455,212,cs),
(455,230,o),
(457,251,o),
(461,276,cs),
(552,892,l),
(810,892,l),
(825,898,o),
(843,925,o),
(843,960,cs),
(843,976,o),
(840,993,o),
(824,994,c),
(566,994,l),
(620,1314,ls),
(622,1325,o),
(614,1338,o),
(597,1338,cs),
(556,1338,ls),
(496,1338,o),
(464,1322,o),
(440,1275,cs),
(336,1072,o),
(281,1017,o),
(127,994,cs),
(109,991,o),
(86,962,o),
(86,931,cs),
(86,915,o),
(91,893,o),
(104,892,c),
(241,892,l),
(144,223,ls),
(141,200,o),
(140,180,o),
(140,161,cs),
(140,10,o),
(218,-28,o),
(340,-28,cs)
);
}
);
width = 854;
}
);
unicode = 116;
}
{
glyphname = u;
layers = (
{
anchors = (
{
name = bottom;
pos = (524,0);
},
{
name = ogonek;
pos = (992,10);
},
{
name = top;
pos = (646,994);
},
{
name = topright;
pos = (1228,994);
}
);
layerId = "D92FDD0B-F694-41DD-AE46-0E4F694F0F38";
shapes = (
{
closed = 1;
nodes = (
(524,-28,o),
(657,52,o),
(716,115,c),
(716,111,o),
(716,106,o),
(716,102,cs),
(716,57,o),
(722,-13,o),
(838,-13,cs),
(887,-13,o),
(981,10,o),
(1073,41,cs),
(1091,47,o),
(1098,67,o),
(1098,83,cs),
(1098,112,o),
(1085,113,o),
(1073,113,cs),
(1053,113,o),
(1001,96,o),
(973,96,cs),
(927,96,o),
(909,119,o),
(914,151,cs),
(1030,966,l),
(1030,983,o),
(1021,994,o),
(997,994,cs),
(832,993,l),
(725,201,l),
(666,151,o),
(582,93,o),
(466,93,cs),
(372,93,o),
(348,141,o),
(348,198,cs),
(348,213,o),
(350,228,o),
(352,243,cs),
(440,852,l),
(440,852,o),
(444,867,o),
(444,889,cs),
(444,934,o),
(426,1007,o),
(310,1007,cs),
(261,1007,o),
(194,990,o),
(104,957,c),
(82,950,o),
(72,927,o),
(75,912,cs),
(79,890,o),
(90,883,o),
(104,883,cs),
(123,883,o),
(157,894,o),
(185,894,cs),
(217,894,o),
(244,884,o),
(244,840,cs),
(244,834,o),
(244,829,o),
(243,822,cs),
(160,262,ls),
(156,235,o),
(154,211,o),
(154,189,cs),
(154,5,o),
(277,-28,o),
(406,-28,cs)
);
}
);
width = 1178;
},
{
anchors = (
{
name = bottom;
pos = (633,0);
},
{
name = ogonek;
pos = (1195,10);
},
{
name = top;
pos = (756,994);
},
{
name = topright;
pos = (1453,994);
}
);
layerId = "BDB4B313-38B1-4B24-B843-560B185382BD";
shapes = (
{
closed = 1;
nodes = (
(597,-28,o),
(770,49,o),
(822,114,c),
(821,106,o),
(820,97,o),
(820,89,cs),
(820,30,o),
(859,-25,o),
(954,-25,cs),
(1122,-25,o),
(1224,29,o),
(1250,42,cs),
(1256,45,o),
(1258,55,o),
(1258,64,cs),
(1258,84,o),
(1246,107,o),
(1224,101,cs),
(1198,94,o),
(1171,88,o),
(1152,88,cs),
(1135,88,o),
(1118,103,o),
(1124,141,cs),
(1252,966,l),
(1252,983,o),
(1243,994,o),
(1219,994,cs),
(944,994,l),
(820,189,l),
(761,151,o),
(698,113,o),
(582,113,cs),
(488,113,o),
(464,167,o),
(464,227,cs),
(464,242,o),
(466,258,o),
(468,273,cs),
(558,852,l),
(559,871,o),
(568,897,o),
(568,922,cs),
(568,966,o),
(542,1007,o),
(406,1007,cs),
(337,1007,o),
(241,990,o),
(112,957,c),
(90,950,o),
(80,927,o),
(83,912,cs),
(87,890,o),
(98,883,o),
(112,883,cs),
(131,883,o),
(165,894,o),
(193,894,cs),
(225,894,o),
(252,884,o),
(252,840,cs),
(252,834,o),
(252,829,o),
(251,822,cs),
(175,308,ls),
(170,277,o),
(167,249,o),
(167,223,cs),
(167,40,o),
(293,-28,o),
(432,-28,cs)
);
}
);
width = 1403;
}
);
unicode = 117;
}
{
glyphname = w;
layers = (
{
anchors = (
{
name = bottom;
pos = (772,0);
},
{
name = top;
pos = (907,994);
}
);
layerId = "D92FDD0B-F694-41DD-AE46-0E4F694F0F38";
shapes = (
{
closed = 1;
nodes = (
(487,-30,o),
(516,-29,o),
(521,-24,cs),
(695,147,o),
(840,324,o),
(939,486,c),
(947,409,o),
(964,227,o),
(964,54,cs),
(964,25,o),
(961,12,o),
(961,12,c),
(959,5,o),
(954,-30,o),
(1017,-30,cs),
(1076,-30,o),
(1104,-29,o),
(1109,-24,cs),
(1466,326,o),
(1657,697,o),
(1657,856,cs),
(1657,931,o),
(1610,1010,o),
(1522,1010,cs),
(1474,1010,o),
(1428,973,o),
(1428,899,cs),
(1428,857,o),
(1455,818,o),
(1455,750,cs),
(1455,565,o),
(1257,271,o),
(1085,85,c),
(1092,110,o),
(1125,173,o),
(1125,197,c),
(1111,597,o),
(1123,1010,o),
(910,1010,cs),
(839,1010,o),
(720,958,o),
(667,866,cs),
(662,859,o),
(664,852,o),
(664,845,cs),
(664,829,o),
(669,805,o),
(692,805,cs),
(703,805,o),
(716,813,o),
(728,825,c),
(741,839,o),
(795,875,o),
(821,875,cs),
(833,875,o),
(848,872,o),
(854,862,cs,{
name = hr00;
}),
(877,823,o),
(888,774,o),
(893,716,c),
(869,530,o),
(673,260,o),
(496,85,c),
(503,110,o),
(532,173,o),
(532,197,c),
(517,578,o),
(457,1010,o),
(252,1010,cs),
(177,1010,o),
(99,982,o),
(31,875,cs),
(26,867,o),
(25,858,o),
(25,850,cs),
(25,826,o),
(39,805,o),
(59,805,cs),
(68,805,o),
(75,813,o),
(84,825,cs),
(105,852,o),
(133,867,o),
(167,867,cs),
(181,867,o),
(204,859,o),
(215,840,cs),
(308,679,o),
(376,315,o),
(376,54,cs),
(376,25,o),
(373,12,o),
(373,12,c),
(371,5,o),
(366,-30,o),
(429,-30,cs)
);
}
);
width = 1684;
},
{
anchors = (
{
name = bottom;
pos = (886,0);
},
{
name = top;
pos = (1059,994);
}
);
layerId = "BDB4B313-38B1-4B24-B843-560B185382BD";
shapes = (
{
closed = 1;
nodes = (
(539,-15,o),
(565,-15,o),
(568,-14,c),
(700,22,o),
(876,153,o),
(990,375,c),
(997,293,o),
(1004,229,o),
(1004,122,cs),
(1004,88,o),
(1000,43,o),
(1000,31,cs),
(1000,-4,o),
(1033,-15,o),
(1129,-15,cs),
(1195,-15,o),
(1206,-15,o),
(1210,-14,c),
(1454,43,o),
(1848,409,o),
(1848,761,cs),
(1848,880,o),
(1801,1014,o),
(1673,1014,cs),
(1576,1014,o),
(1519,952,o),
(1516,874,cs),
(1511,755,o),
(1576,691,o),
(1576,582,cs),
(1576,355,o),
(1397,178,o),
(1231,95,c),
(1256,147,o),
(1272,214,o),
(1272,278,cs),
(1272,688,o),
(1269,1017,o),
(1027,1014,cs),
(953,1013,o),
(826,965,o),
(742,844,cs),
(737,837,o),
(736,827,o),
(736,819,cs),
(736,785,o),
(758,773,o),
(771,773,cs),
(782,773,o),
(792,779,o),
(800,787,cs),
(824,812,o),
(862,831,o),
(877,831,cs),
(899,831,o),
(920,817,o),
(930,798,cs),
(967,730,o),
(951,684,o),
(958,644,c),
(958,418,o),
(747,165,o),
(591,95,c),
(607,159,o),
(629,217,o),
(629,278,cs),
(629,646,o),
(599,1014,o),
(361,1014,cs),
(232,1014,o),
(137,972,o),
(44,845,cs),
(38,837,o),
(38,828,o),
(38,820,cs),
(38,786,o),
(60,774,o),
(74,774,cs),
(85,774,o),
(94,780,o),
(102,788,cs),
(128,814,o),
(148,832,o),
(169,832,cs),
(191,832,o),
(224,818,o),
(234,799,cs),
(280,720,o),
(375,523,o),
(375,91,cs),
(375,66,o),
(374,43,o),
(374,31,cs),
(374,-4,o),
(400,-15,o),
(496,-15,cs)
);
}
);
width = 1912;
}
);
unicode = 119;
userData = {
com.typemytype.robofont.mark = (
0.6,
0.609,
1,
1
);
};
}
{
glyphname = x;
layers = (
{
anchors = (
{
name = bottom;
pos = (378,0);
},
{
name = top;
pos = (593,994);
}
);
layerId = "D92FDD0B-F694-41DD-AE46-0E4F694F0F38";
shapes = (
{
closed = 1;
nodes = (
(150,-25,o),
(207,2,o),
(261,84,cs),
(463,391,l),
(538,112,ls),
(564,14,o),
(609,-28,o),
(679,-28,cs),
(781,-28,o),
(877,38,o),
(932,166,cs),
(935,173,o),
(937,179,o),
(937,185,cs),
(937,205,o),
(920,225,o),
(902,225,cs),
(894,225,o),
(885,221,o),
(879,211,cs),
(855,172,o),
(807,118,o),
(765,118,cs),
(749,118,o),
(736,126,o),
(730,142,cs),
(586,513,l),
(863,850,l),
(916,745,ls),
(925,728,o),
(939,720,o),
(954,720,cs),
(986,720,o),
(1024,759,o),
(1025,837,cs),
(1026,916,o),
(992,1004,o),
(906,1004,cs),
(857,1004,o),
(797,973,o),
(744,891,cs),
(560,604,l),
(498,864,ls),
(474,964,o),
(421,1004,o),
(351,1004,cs),
(249,1004,o),
(153,934,o),
(93,823,cs),
(86,810,o),
(79,795,o),
(79,784,cs),
(79,767,o),
(100,754,o),
(114,754,cs),
(128,754,o),
(127,759,o),
(180,815,cs),
(205,841,o),
(236,859,o),
(261,859,cs),
(279,859,o),
(294,850,o),
(302,829,cs),
(435,478,l),
(141,129,l),
(90,229,ls),
(82,244,o),
(71,251,o),
(58,251,cs),
(24,251,o),
(-19,203,o),
(-20,119,cs),
(-21,40,o),
(41,-25,o),
(101,-25,cs)
);
}
);
width = 1026;
},
{
anchors = (
{
name = bottom;
pos = (481,0);
},
{
name = top;
pos = (746,994);
}
);
layerId = "BDB4B313-38B1-4B24-B843-560B185382BD";
shapes = (
{
closed = 1;
nodes = (
(225,-30,o),
(265,3,o),
(312,79,cs),
(477,345,l),
(543,136,ls),
(574,39,o),
(632,-26,o),
(730,-26,cs),
(902,-26,o),
(1000,44,o),
(1082,156,cs),
(1088,165,o),
(1091,175,o),
(1091,185,cs),
(1091,207,o),
(1077,227,o),
(1056,227,cs),
(1044,227,o),
(1033,218,o),
(1022,207,c),
(992,175,o),
(963,149,o),
(921,149,cs),
(884,149,o),
(863,180,o),
(839,241,cs),
(729,522,l),
(963,777,l),
(1027,696,ls),
(1041,678,o),
(1062,671,o),
(1084,671,cs),
(1140,671,o),
(1208,726,o),
(1208,812,cs),
(1208,906,o),
(1141,994,o),
(1025,994,cs),
(967,994,o),
(904,964,o),
(859,887,cs),
(698,614,l),
(616,864,ls),
(584,961,o),
(528,1004,o),
(448,1004,cs),
(295,1004,o),
(177,926,o),
(87,810,cs),
(80,801,o),
(77,790,o),
(77,780,cs),
(77,758,o),
(92,739,o),
(112,739,cs),
(125,739,o),
(136,748,o),
(146,759,cs),
(177,794,o),
(205,827,o),
(247,827,cs),
(284,827,o),
(306,796,o),
(329,735,cs),
(439,438,l),
(217,196,l),
(172,272,ls),
(159,294,o),
(136,309,o),
(99,309,cs),
(36,309,o),
(-22,241,o),
(-22,160,cs),
(-22,66,o),
(56,-30,o),
(171,-30,cs)
);
}
);
width = 1195;
}
);
unicode = 120;
userData = {
com.typemytype.robofont.guides = (
{
angle = 0;
isGlobal = 0;
magnetic = 5;
x = 0;
y = -67;
}
);
};
}
{
glyphname = z;
layers = (
{
anchors = (
{
name = bottom;
pos = (375,0);
},
{
name = top;
pos = (567,994);
}
);
layerId = "D92FDD0B-F694-41DD-AE46-0E4F694F0F38";
shapes = (
{
closed = 1;
nodes = (
(716,0,l),
(736,1,o),
(765,15,o),
(768,41,c),
(827,293,l),
(830,316,o),
(787,327,o),
(772,327,cs),
(751,327,o),
(737,320,o),
(730,294,cs),
(717,245,o),
(620,83,o),
(519,83,cs),
(241,83,l),
(365,219,l),
(865,881,l),
(884,909,o),
(903,929,o),
(903,960,cs),
(903,979,o),
(889,994,o),
(853,994,cs),
(250,994,l),
(230,993,o),
(202,977,o),
(197,953,cs),
(152,726,ls),
(147,703,o),
(183,692,o),
(198,692,cs),
(219,692,o),
(243,699,o),
(249,725,cs),
(260,774,o),
(338,911,o),
(426,911,cs),
(675,911,l),
(569,796,l),
(52,123,ls),
(10,69,o),
(-4,63,o),
(-4,34,cs,{
name = hr00;
}),
(-4,15,o),
(8,0,o),
(27,0,cs)
);
}
);
width = 909;
},
{
anchors = (
{
name = bottom;
pos = (450,0);
},
{
name = top;
pos = (642,994);
}
);
layerId = "BDB4B313-38B1-4B24-B843-560B185382BD";
shapes = (
{
closed = 1;
nodes = (
(860,0,l),
(880,1,o),
(909,15,o),
(912,41,c),
(972,339,l),
(975,362,o),
(931,373,o),
(916,373,cs),
(895,373,o),
(881,366,o),
(874,340,cs),
(861,291,o),
(762,83,o),
(664,83,cs),
(352,83,l),
(492,226,l),
(1047,889,l),
(1067,916,o),
(1077,929,o),
(1077,961,cs),
(1077,980,o),
(1056,994,o),
(1017,994,cs),
(222,994,l),
(202,993,o),
(173,977,o),
(169,953,c),
(101,655,ls),
(96,632,o),
(132,621,o),
(147,621,cs),
(168,621,o),
(192,628,o),
(198,654,cs),
(209,703,o),
(306,911,o),
(404,911,cs),
(719,911,l),
(590,779,l),
(28,123,ls),
(-1,89,o),
(-16,62,o),
(-16,38,cs),
(-16,19,o),
(3,0,o),
(31,0,cs)
);
}
);
width = 1059;
}
);
unicode = 122;
}
{
glyphname = bar;
layers = (
{
layerId = "D92FDD0B-F694-41DD-AE46-0E4F694F0F38";
shapes = (
{
closed = 1;
nodes = (
(403,-367,l),
(403,1535,l,{
name = hr00;
}),
(258,1535,l),
(258,-367,l)
);
}
);
width = 768;
},
{
layerId = "BDB4B313-38B1-4B24-B843-560B185382BD";
shapes = (
{
closed = 1;
nodes = (
(391,-367,l),
(391,1535,l),
(246,1535,l),
(246,-367,l)
);
}
);
width = 794;
}
);
unicode = 124;
}
{
glyphname = asciitilde;
layers = (
{
layerId = "D92FDD0B-F694-41DD-AE46-0E4F694F0F38";
shapes = (
{
closed = 1;
nodes = (
(1094,650,o),
(1096,653,o),
(1096,669,cs),
(1096,686,o),
(1061,717,o),
(1048,714,c),
(1012,699,o),
(966,594,o),
(854,594,cs),
(821,594,o),
(783,603,o),
(737,625,cs),
(659,665,o),
(608,716,o),
(512,716,cs),
(395,716,o),
(308,601,o),
(252,511,cs),
(249,506,o),
(247,494,o),
(247,483,cs),
(247,452,o),
(278,413,o),
(300,417,c),
(335,432,o),
(372,535,o),
(480,535,cs),
(512,535,o),
(549,526,o),
(594,505,cs),
(676,465,o),
(739,414,o),
(840,414,cs),
(961,414,o),
(1045,535,o),
(1090,639,cs)
);
}
);
width = 1317;
},
{
layerId = "BDB4B313-38B1-4B24-B843-560B185382BD";
shapes = (
{
closed = 1;
nodes = (
(1209,655,o),
(1211,659,o),
(1211,676,cs),
(1211,694,o),
(1171,726,o),
(1156,723,c),
(1116,707,o),
(1064,596,o),
(937,596,cs),
(900,596,o),
(857,605,o),
(806,629,cs),
(717,671,o),
(660,725,o),
(551,725,cs),
(419,725,o),
(321,603,o),
(258,508,cs),
(254,502,o),
(252,490,o),
(252,478,cs),
(252,445,o),
(287,403,o),
(312,408,c),
(352,424,o),
(393,533,o),
(515,533,cs),
(551,533,o),
(593,524,o),
(644,501,cs),
(737,459,o),
(808,405,o),
(922,405,cs),
(1058,405,o),
(1154,533,o),
(1204,644,cs)
);
}
);
width = 1440;
}
);
unicode = 126;
}
{
glyphname = exclamdown;
layers = (
{
layerId = "D92FDD0B-F694-41DD-AE46-0E4F694F0F38";
shapes = (
{
closed = 1;
nodes = (
(407,1068,l),
(359,835,o),
(162,84,o),
(162,88,cs),
(162,21,o),
(208,-28,o),
(274,-28,cs),
(348,-28,o),
(414,33,o),
(426,111,cs),
(437,178,o),
(439,487,o),
(487,1068,c,{
name = hr00;
})
);
},
{
closed = 1;
nodes = (
(628,1469,o),
(585,1528,o),
(508,1528,cs),
(428,1528,o),
(363,1464,o),
(363,1376,cs),
(363,1305,o),
(407,1251,o),
(484,1251,cs),
(570,1251,o),
(628,1315,o),
(628,1398,cs)
);
}
);
width = 678;
},
{
layerId = "BDB4B313-38B1-4B24-B843-560B185382BD";
shapes = (
{
closed = 1;
nodes = (
(421,959,l),
(372,785,o),
(139,183,o),
(139,111,cs),
(139,31,o),
(203,-28,o),
(311,-28,cs),
(410,-28,o),
(483,34,o),
(501,111,cs),
(527,223,o),
(499,581,o),
(521,959,c)
);
},
{
closed = 1;
nodes = (
(714,1437,o),
(653,1520,o),
(545,1520,cs),
(436,1520,o),
(348,1423,o),
(348,1312,cs),
(348,1213,o),
(411,1136,o),
(519,1136,cs),
(636,1136,o),
(714,1244,o),
(714,1337,cs)
);
}
);
width = 771;
}
);
metricWidth = exclam;
unicode = 161;
}
{
glyphname = cent;
layers = (
{
anchors = (
{
name = bottom;
pos = (420,0);
},
{
name = top;
pos = (595,994);
}
);
layerId = "D92FDD0B-F694-41DD-AE46-0E4F694F0F38";
shapes = (
{
closed = 1;
nodes = (
(474,10,l),
(447,-209,l,{
name = hr02;
}),
(442,-210,o),
(439,-213,o),
(439,-218,cs),
(439,-229,o),
(456,-246,o),
(481,-246,cs),
(501,-246,o),
(527,-235,o),
(554,-202,c),
(580,10,l,{
name = hr01;
})
);
},
{
closed = 1;
nodes = (
(766,1003,l),
(792,1204,l),
(797,1204,o),
(800,1206,o),
(800,1209,cs),
(800,1217,o),
(780,1232,o),
(752,1232,cs),
(733,1232,o),
(710,1226,o),
(686,1206,c),
(660,1003,l)
);
},
{
closed = 1;
nodes = (
(431,1014,o),
(167,740,o),
(167,381,cs),
(167,133,o),
(297,-28,o),
(535,-28,cs),
(701,-28,o),
(817,50,o),
(906,164,c),
(909,170,o),
(917,176,o),
(917,183,cs),
(917,186,o),
(916,189,o),
(912,192,cs),
(875,225,l),
(866,231,o),
(860,223,o),
(853,215,c),
(761,124,o),
(680,75,o),
(566,75,cs),
(467,75,o),
(384,152,o),
(384,360,cs),
(384,720,o),
(526,933,o),
(677,933,cs),
(716,933,o),
(750,925,o),
(763,914,c),
(817,705,ls),
(829,660,o),
(848,662,o),
(887,662,cs),
(929,662,o),
(991,704,o),
(991,787,cs),
(991,944,o),
(860,1014,o),
(693,1014,cs,{
name = hr00;
})
);
}
);
width = 1137;
},
{
anchors = (
{
name = bottom;
pos = (524,0);
},
{
name = top;
pos = (706,994);
}
);
layerId = "BDB4B313-38B1-4B24-B843-560B185382BD";
shapes = (
{
closed = 1;
nodes = (
(624,10,l),
(597,-209,l,{
name = hr02;
}),
(592,-210,o),
(589,-213,o),
(589,-218,cs),
(589,-229,o),
(606,-246,o),
(631,-246,cs),
(651,-246,o),
(677,-235,o),
(704,-202,c),
(730,10,l,{
name = hr01;
})
);
},
{
closed = 1;
nodes = (
(884,1003,l),
(910,1204,l),
(915,1204,o),
(918,1206,o),
(918,1209,cs),
(918,1217,o),
(898,1232,o),
(870,1232,cs),
(851,1232,o),
(828,1226,o),
(804,1206,c),
(778,1003,l)
);
},
{
closed = 1;
nodes = (
(491,1014,o),
(212,752,o),
(212,411,cs),
(212,145,o),
(382,-28,o),
(680,-28,cs),
(878,-28,o),
(1003,62,o),
(1108,188,c),
(1111,194,o),
(1119,200,o),
(1119,207,cs),
(1119,210,o),
(1118,213,o),
(1114,216,cs),
(1077,249,l),
(1068,255,o),
(1062,247,o),
(1055,239,c),
(987,180,o),
(905,125,o),
(791,125,cs),
(673,125,o),
(559,195,o),
(559,390,cs),
(559,732,o),
(664,933,o),
(812,933,cs),
(863,933,o),
(878,926,o),
(887,919,c),
(942,705,ls),
(954,660,o),
(963,662,o),
(1002,662,cs),
(1118,662,o),
(1216,704,o),
(1216,787,cs),
(1216,934,o),
(1100,1014,o),
(848,1014,cs)
);
}
);
width = 1420;
}
);
unicode = 162;
}
{
glyphname = sterling;
layers = (
{
layerId = "D92FDD0B-F694-41DD-AE46-0E4F694F0F38";
shapes = (
{
closed = 1;
nodes = (
(183,-10,o),
(246,85,o),
(277,119,c),
(360,119,o),
(492,-16,o),
(826,-16,cs,{
name = hr02;
}),
(1009,-16,o),
(1200,52,o),
(1200,251,cs),
(1200,331,o),
(1153,408,o),
(1068,408,cs),
(1004,408,o),
(974,378,o),
(970,350,c),
(1015,199,l),
(987,134,o),
(904,88,o),
(783,88,cs),
(565,88,o),
(465,157,o),
(331,196,c),
(381,256,o),
(464,406,o),
(498,603,cs),
(548,893,ls),
(610,1251,o),
(688,1366,o),
(845,1366,cs),
(870,1366,o),
(927,1359,o),
(951,1334,c),
(1029,1195,l),
(1039,1182,o),
(1067,1175,o),
(1082,1175,cs),
(1134,1175,o),
(1164,1219,o),
(1164,1276,cs),
(1164,1351,o),
(1086,1448,o),
(889,1448,cs),
(563,1448,o),
(402,1239,o),
(342,871,cs),
(289,536,ls),
(270,345,o),
(252,245,o),
(233,213,c),
(129,217,o),
(-27,179,o),
(-27,76,cs,{
name = hr01;
}),
(-27,14,o),
(38,-10,o),
(72,-10,cs)
);
},
{
closed = 1;
nodes = (
(859,709,l),
(875,716,o),
(893,765,o),
(893,789,cs),
(893,802,o),
(888,815,o),
(874,816,c),
(165,816,l),
(148,809,o),
(132,782,o),
(132,753,cs),
(132,735,o),
(137,710,o),
(150,709,c)
);
}
);
width = 1274;
},
{
layerId = "BDB4B313-38B1-4B24-B843-560B185382BD";
shapes = (
{
closed = 1;
nodes = (
(216,-5,o),
(286,28,o),
(345,78,c),
(433,74,o),
(516,-16,o),
(843,-16,cs),
(1083,-16,o),
(1340,69,o),
(1340,301,cs),
(1340,391,o),
(1301,510,o),
(1162,510,cs),
(1071,510,o),
(1027,431,o),
(1027,431,c),
(1068,259,l),
(1048,152,o),
(956,88,o),
(768,88,cs),
(625,88,o),
(509,119,o),
(422,158,c),
(587,266,o),
(652,367,o),
(681,604,cs),
(716,893,ls),
(760,1254,o),
(812,1366,o),
(930,1366,cs),
(976,1366,o),
(983,1360,o),
(1004,1350,c),
(1128,1128,ls),
(1144,1100,o),
(1183,1099,o),
(1215,1099,cs),
(1272,1099,o),
(1313,1152,o),
(1313,1233,cs),
(1313,1333,o),
(1217,1448,o),
(1011,1448,cs),
(586,1448,o),
(404,1213,o),
(370,871,cs),
(338,547,ls),
(317,337,o),
(328,268,o),
(287,226,c),
(127,226,o),
(4,174,o),
(4,73,cs),
(4,16,o),
(70,-5,o),
(121,-5,cs)
);
},
{
closed = 1;
nodes = (
(989,699,l),
(1005,706,o),
(1023,755,o),
(1023,779,cs),
(1023,792,o),
(1018,805,o),
(1004,806,c),
(195,806,l),
(178,799,o),
(162,772,o),
(162,743,cs),
(162,725,o),
(167,700,o),
(180,699,c)
);
}
);
width = 1413;
}
);
unicode = 163;
userData = {
com.typemytype.robofont.mark = (
0.6,
0.609,
1,
1
);
};
}
{
glyphname = currency;
layers = (
{
layerId = "D92FDD0B-F694-41DD-AE46-0E4F694F0F38";
shapes = (
{
closed = 1;
nodes = (
(270,365,o),
(397,211,o),
(599,211,cs),
(801,211,o),
(930,365,o),
(930,555,cs),
(930,745,o),
(805,899,o),
(603,899,cs),
(401,899,o),
(270,745,o),
(270,555,cs,{
name = hr00;
})
);
},
{
closed = 1;
nodes = (
(787,400,o),
(719,324,o),
(601,324,cs),
(482,324,o),
(412,400,o),
(412,555,cs),
(412,710,o),
(479,786,o),
(598,786,cs),
(716,786,o),
(787,710,o),
(787,555,cs)
);
},
{
closed = 1;
nodes = (
(961,99,l),
(1053,184,l),
(828,412,l),
(750,313,l)
);
},
{
closed = 1;
nodes = (
(239,1011,l),
(147,925,l),
(370,699,l),
(451,796,l)
);
},
{
closed = 1;
nodes = (
(147,184,l),
(239,99,l),
(453,316,l),
(362,403,l)
);
},
{
closed = 1;
nodes = (
(1053,925,l),
(961,1011,l),
(749,796,l),
(829,698,l)
);
}
);
width = 1170;
},
{
layerId = "BDB4B313-38B1-4B24-B843-560B185382BD";
shapes = (
{
closed = 1;
nodes = (
(388,374,o),
(525,211,o),
(742,211,cs),
(959,211,o),
(1098,374,o),
(1098,575,cs),
(1098,776,o),
(963,939,o),
(746,939,cs),
(529,939,o),
(388,776,o),
(388,575,cs)
);
},
{
closed = 1;
nodes = (
(905,433,o),
(846,364,o),
(744,364,cs),
(641,364,o),
(580,433,o),
(580,575,cs),
(580,717,o),
(638,786,o),
(741,786,cs),
(843,786,o),
(905,717,o),
(905,575,cs)
);
},
{
closed = 1;
nodes = (
(1103,87,l),
(1228,203,l),
(969,467,l),
(863,332,l)
);
},
{
closed = 1;
nodes = (
(383,1063,l),
(258,946,l),
(514,685,l),
(625,817,l)
);
},
{
closed = 1;
nodes = (
(258,203,l),
(383,87,l),
(628,336,l),
(504,454,l)
);
},
{
closed = 1;
nodes = (
(1228,946,l),
(1103,1063,l),
(861,817,l),
(970,684,l)
);
}
);
width = 1440;
}
);
unicode = 164;
}
{
glyphname = yen;
layers = (
{
layerId = "D92FDD0B-F694-41DD-AE46-0E4F694F0F38";
shapes = (
{
closed = 1;
nodes = (
(833,0,ls),
(855,0,o),
(872,15,o),
(872,46,cs),
(872,63,o),
(864,66,o),
(841,68,cs),
(779,73,o),
(658,78,o),
(658,151,c),
(683,302,l),
(1070,302,l),
(1087,309,o),
(1102,358,o),
(1102,378,cs),
(1102,391,o),
(1094,403,o),
(1081,404,c),
(698,404,l),
(733,635,l),
(1105,635,l),
(1122,642,o),
(1137,689,o),
(1137,712,cs),
(1137,725,o),
(1130,736,o),
(1117,737,c),
(764,737,l),
(1247,1254,l),
(1311,1332,o),
(1339,1346,o),
(1388,1351,cs),
(1417,1354,o),
(1425,1358,o),
(1431,1388,cs),
(1434,1403,o),
(1425,1419,o),
(1403,1419,cs),
(1038,1419,ls),
(1017,1419,o),
(997,1405,o),
(997,1377,cs),
(997,1363,o),
(1004,1353,o),
(1024,1351,c),
(1096,1347,o),
(1144,1329,o),
(1144,1301,c),
(703,806,l),
(463,1297,l),
(463,1333,o),
(560,1346,o),
(644,1351,c),
(671,1354,o),
(681,1367,o),
(684,1388,c),
(687,1403,o),
(679,1419,o),
(656,1419,cs),
(144,1419,ls),
(122,1419,o),
(103,1405,o),
(103,1373,cs),
(103,1356,o),
(111,1353,o),
(133,1351,cs),
(182,1346,o),
(244,1336,o),
(278,1254,c),
(561,737,l),
(209,737,l),
(192,730,o),
(177,683,o),
(177,660,cs),
(177,647,o),
(184,636,o),
(197,635,c),
(568,635,l),
(534,404,l),
(173,404,l),
(156,397,o),
(142,349,o),
(142,327,cs),
(142,314,o),
(149,303,o),
(162,302,c),
(520,302,l),
(495,152,ls),
(483,81,o),
(385,73,o),
(317,68,c),
(292,65,o),
(282,52,o),
(278,31,cs,{
name = hr00;
}),
(275,16,o),
(285,0,o),
(308,0,cs)
);
}
);
width = 1259;
},
{
layerId = "BDB4B313-38B1-4B24-B843-560B185382BD";
shapes = (
{
closed = 1;
nodes = (
(1016,0,ls),
(1038,0,o),
(1055,36,o),
(1057,51,cs),
(1061,81,o),
(1043,85,o),
(1016,88,cs),
(953,95,o),
(838,80,o),
(838,154,c),
(857,300,l),
(1263,300,ls),
(1278,300,o),
(1296,344,o),
(1296,369,cs),
(1296,384,o),
(1289,403,o),
(1276,404,c),
(870,404,l),
(900,635,l),
(1298,635,ls),
(1313,635,o),
(1331,675,o),
(1331,701,cs),
(1331,716,o),
(1324,735,o),
(1311,736,c),
(948,736,l),
(1419,1254,ls),
(1485,1326,o),
(1571,1336,o),
(1622,1341,cs),
(1650,1344,o),
(1659,1348,o),
(1663,1378,cs),
(1665,1393,o),
(1657,1419,o),
(1635,1419,cs),
(1180,1419,ls),
(1162,1419,o),
(1143,1404,o),
(1139,1368,c),
(1139,1353,o),
(1146,1344,o),
(1168,1341,c),
(1241,1337,o),
(1307,1330,o),
(1307,1305,c),
(849,794,l),
(633,1298,l),
(633,1334,o),
(708,1336,o),
(791,1341,c),
(817,1344,o),
(826,1367,o),
(829,1388,cs),
(831,1403,o),
(824,1419,o),
(801,1419,cs),
(116,1419,ls),
(95,1419,o),
(75,1395,o),
(75,1365,cs),
(75,1347,o),
(84,1343,o),
(107,1341,cs),
(155,1336,o),
(273,1334,o),
(316,1254,cs),
(593,736,l),
(187,736,ls),
(172,736,o),
(154,702,o),
(154,675,cs),
(154,658,o),
(161,636,o),
(174,635,c),
(612,635,l),
(582,404,l),
(152,404,ls),
(137,404,o),
(119,370,o),
(119,343,cs),
(119,325,o),
(126,301,o),
(139,300,c),
(568,300,l),
(549,152,ls),
(540,81,o),
(410,93,o),
(342,88,cs),
(314,86,o),
(294,63,o),
(294,38,cs),
(294,21,o),
(301,0,o),
(321,0,cs)
);
}
);
width = 1500;
}
);
unicode = 165;
}
{
glyphname = brokenbar;
layers = (
{
layerId = "D92FDD0B-F694-41DD-AE46-0E4F694F0F38";
shapes = (
{
closed = 1;
nodes = (
(403,765,l),
(403,1535,l,{
name = hr00;
}),
(258,1535,l),
(258,765,l)
);
},
{
closed = 1;
nodes = (
(403,-369,l),
(403,401,l),
(258,401,l),
(258,-369,l)
);
}
);
width = 768;
},
{
layerId = "BDB4B313-38B1-4B24-B843-560B185382BD";
shapes = (
{
closed = 1;
nodes = (
(391,765,l),
(391,1535,l),
(246,1535,l),
(246,765,l)
);
},
{
closed = 1;
nodes = (
(391,-369,l),
(391,401,l),
(246,401,l),
(246,-369,l)
);
}
);
width = 794;
}
);
unicode = 166;
}
{
glyphname = section;
layers = (
{
layerId = "D92FDD0B-F694-41DD-AE46-0E4F694F0F38";
shapes = (
{
closed = 1;
nodes = (
(558,-360,o),
(702,-226,o),
(702,-24,cs),
(702,48,o),
(681,115,o),
(644,179,c),
(783,254,o),
(841,372,o),
(841,519,cs),
(841,660,o),
(740,803,o),
(639,913,cs),
(557,1002,o),
(486,1083,o),
(486,1160,cs),
(486,1273,o),
(562,1351,o),
(665,1356,c),
(796,1176,l),
(837,1176,o),
(915,1205,o),
(915,1278,cs),
(915,1360,o),
(822,1449,o),
(694,1449,cs),
(491,1449,o),
(337,1303,o),
(337,1108,cs),
(337,1033,o),
(356,965,o),
(395,899,c),
(235,823,o),
(199,706,o),
(199,560,cs),
(199,445,o),
(267,325,o),
(346,227,cs),
(437,114,o),
(554,13,o),
(554,-81,cs),
(554,-195,o),
(475,-266,o),
(363,-271,c),
(231,-96,l),
(190,-96,o),
(115,-124,o),
(115,-199,cs,{
name = hr00;
}),
(115,-268,o),
(219,-360,o),
(347,-360,cs)
);
},
{
closed = 1;
nodes = (
(538,329,o),
(485,392,o),
(441,457,cs),
(412,500,o),
(388,545,o),
(388,613,cs),
(388,688,o),
(388,753,o),
(453,812,c),
(500,748,o),
(555,687,o),
(599,622,cs),
(628,579,o),
(652,533,o),
(652,464,cs),
(652,390,o),
(650,325,o),
(586,265,c)
);
}
);
width = 1024;
},
{
layerId = "BDB4B313-38B1-4B24-B843-560B185382BD";
shapes = (
{
closed = 1;
nodes = (
(666,-361,o),
(859,-226,o),
(859,-17,cs),
(859,69,o),
(795,166,o),
(735,234,c),
(892,234,o),
(1001,385,o),
(1001,534,cs),
(1001,630,o),
(963,718,o),
(879,812,c),
(712,985,o),
(564,1047,o),
(564,1187,cs),
(564,1282,o),
(621,1359,o),
(720,1359,c),
(920,1103,l),
(978,1103,o),
(1041,1161,o),
(1041,1247,cs),
(1041,1363,o),
(921,1449,o),
(728,1449,cs),
(500,1449,o),
(308,1315,o),
(308,1102,cs),
(308,1017,o),
(372,916,o),
(430,849,c),
(272,849,o),
(166,700,o),
(166,548,cs),
(166,453,o),
(203,366,o),
(287,276,cs),
(451,100,o),
(602,41,o),
(602,-99,cs),
(602,-195,o),
(546,-271,o),
(445,-271,c),
(248,-15,l),
(190,-15,o),
(125,-72,o),
(125,-157,cs),
(125,-274,o),
(244,-361,o),
(438,-361,cs)
);
},
{
closed = 1;
nodes = (
(634,333,o),
(571,386,o),
(501,446,cs),
(459,482,o),
(417,543,o),
(417,626,cs),
(417,687,o),
(413,748,o),
(478,804,c),
(532,754,o),
(595,703,o),
(664,642,cs),
(707,604,o),
(751,544,o),
(751,460,cs),
(751,400,o),
(750,335,o),
(688,284,c)
);
}
);
width = 1154;
}
);
unicode = 167;
userData = {
com.typemytype.robofont.mark = (
0.6,
0.609,
1,
1
);
};
}
{
glyphname = copyright;
kernLeft = copyright;
kernRight = copyright;
layers = (
{
layerId = "D92FDD0B-F694-41DD-AE46-0E4F694F0F38";
shapes = (
{
closed = 1;
nodes = (
(1471,-281,o),
(1872,119,o),
(1872,613,cs),
(1872,1107,o),
(1471,1508,o),
(977,1508,cs),
(483,1508,o),
(83,1107,o),
(83,613,cs),
(83,119,o),
(483,-281,o),
(977,-281,cs)
);
},
{
closed = 1;
nodes = (
(533,-201,o),
(173,169,o),
(173,613,cs),
(173,1057,o),
(533,1428,o),
(977,1428,cs),
(1421,1428,o),
(1782,1057,o),
(1782,613,cs),
(1782,169,o),
(1421,-201,o),
(977,-201,cs)
);
},
{
closed = 1;
nodes = (
(1196,122,o),
(1372,204,o),
(1380,412,cs),
(1380,421,o),
(1381,436,o),
(1364,436,cs),
(1292,435,ls),
(1280,435,o),
(1279,422,o),
(1278,414,cs),
(1244,246,o),
(1121,213,o),
(1012,213,cs),
(899,213,o),
(736,290,o),
(736,612,cs),
(736,937,o),
(878,1013,o),
(1040,1013,cs),
(1097,1013,o),
(1134,976,o),
(1134,976,c),
(1159,947,o),
(1162,899,o),
(1183,855,cs),
(1203,811,o),
(1224,763,o),
(1294,763,cs),
(1327,763,o),
(1357,792,o),
(1357,844,cs),
(1357,879,o),
(1344,924,o),
(1308,979,cs),
(1239,1084,o),
(1101,1105,o),
(1025,1105,cs),
(759,1105,o),
(553,956,o),
(553,622,cs),
(553,288,o),
(710,122,o),
(1016,122,cs)
);
}
);
width = 1929;
},
{
layerId = "BDB4B313-38B1-4B24-B843-560B185382BD";
shapes = (
{
closed = 1;
nodes = (
(1467,-281,o),
(1868,119,o),
(1868,613,cs),
(1868,1107,o),
(1467,1508,o),
(973,1508,cs),
(479,1508,o),
(79,1107,o),
(79,613,cs),
(79,119,o),
(479,-281,o),
(973,-281,cs)
);
},
{
closed = 1;
nodes = (
(529,-201,o),
(169,169,o),
(169,613,cs),
(169,1057,o),
(529,1428,o),
(973,1428,cs),
(1417,1428,o),
(1778,1057,o),
(1778,613,cs),
(1778,169,o),
(1417,-201,o),
(973,-201,cs)
);
},
{
closed = 1;
nodes = (
(1192,122,o),
(1368,204,o),
(1376,412,cs),
(1376,421,o),
(1377,436,o),
(1360,436,cs),
(1288,435,ls),
(1276,435,o),
(1275,422,o),
(1274,414,cs),
(1240,246,o),
(1117,213,o),
(1008,213,cs),
(895,213,o),
(732,290,o),
(732,612,cs),
(732,937,o),
(874,1013,o),
(1036,1013,cs),
(1093,1013,o),
(1130,976,o),
(1130,976,c),
(1155,947,o),
(1158,899,o),
(1179,855,cs),
(1199,811,o),
(1220,763,o),
(1290,763,cs),
(1323,763,o),
(1353,792,o),
(1353,844,cs),
(1353,879,o),
(1340,924,o),
(1304,979,cs),
(1235,1084,o),
(1097,1105,o),
(1021,1105,cs),
(755,1105,o),
(549,956,o),
(549,622,cs),
(549,288,o),
(706,122,o),
(1012,122,cs)
);
}
);
width = 1929;
}
);
unicode = 169;
}
{
glyphname = ordfeminine;
layers = (
{
layerId = "D92FDD0B-F694-41DD-AE46-0E4F694F0F38";
shapes = (
{
closed = 1;
nodes = (
(537,612,o),
(661,743,o),
(715,833,c),
(714,822,o),
(699,739,o),
(699,710,cs),
(699,658,o),
(724,612,o),
(799,612,cs,{
name = hr02;
}),
(888,612,o),
(990,669,o),
(1004,679,cs),
(1008,682,o),
(1010,690,o),
(1010,697,cs),
(1010,717,o),
(1003,739,o),
(989,739,c),
(951,729,o),
(905,719,o),
(891,719,cs),
(877,719,o),
(867,731,o),
(867,763,cs),
(867,802,o),
(1002,1413,o),
(1002,1433,cs),
(1002,1446,o),
(995,1458,o),
(981,1458,cs),
(975,1458,o),
(975,1456,o),
(896,1409,c),
(858,1447,o),
(796,1470,o),
(729,1470,cs,{
name = hr01;
}),
(377,1470,o),
(167,1168,o),
(155,876,cs),
(148,710,o),
(234,612,o),
(390,612,cs)
);
},
{
closed = 1;
nodes = (
(369,733,o),
(326,778,o),
(326,887,cs),
(326,1139,o),
(483,1376,o),
(712,1376,cs),
(749,1376,o),
(792,1358,o),
(811,1313,c),
(737,993,l),
(676,889,o),
(570,733,o),
(428,733,cs)
);
}
);
width = 1024;
},
{
layerId = "BDB4B313-38B1-4B24-B843-560B185382BD";
shapes = (
{
closed = 1;
nodes = (
(568,612,o),
(694,718,o),
(780,859,c),
(779,848,o),
(761,766,o),
(761,720,cs),
(761,668,o),
(788,612,o),
(863,612,cs),
(992,612,o),
(1130,676,o),
(1154,686,cs),
(1159,688,o),
(1164,706,o),
(1164,713,cs),
(1164,733,o),
(1156,757,o),
(1142,754,cs),
(1109,747,o),
(1087,739,o),
(1054,739,cs),
(1040,739,o),
(1030,751,o),
(1029,783,cs),
(1029,835,o),
(1146,1403,o),
(1146,1433,cs),
(1146,1445,o),
(1139,1458,o),
(1126,1458,cs),
(1101,1458,o),
(1023,1430,o),
(941,1409,c),
(888,1447,o),
(797,1470,o),
(702,1470,cs),
(380,1470,o),
(132,1229,o),
(132,918,cs),
(132,754,o),
(217,612,o),
(385,612,cs)
);
},
{
closed = 1;
nodes = (
(458,778,o),
(407,818,o),
(407,927,cs),
(407,1178,o),
(494,1386,o),
(694,1386,cs),
(759,1386,o),
(831,1368,o),
(865,1323,c),
(809,1044,l),
(752,962,o),
(647,778,o),
(505,778,cs)
);
}
);
width = 1130;
}
);
unicode = 170;
}
{
glyphname = guillemetleft;
layers = (
{
layerId = "D92FDD0B-F694-41DD-AE46-0E4F694F0F38";
shapes = (
{
closed = 1;
nodes = (
(568,139,l),
(270,499,l),
(663,840,l),
(684,986,l),
(91,569,l),
(74,450,l,{
name = hr00;
}),
(547,15,l)
);
},
{
closed = 1;
nodes = (
(1060,139,l),
(762,499,l),
(1155,840,l),
(1176,986,l),
(583,569,l),
(566,450,l,{
name = hr00;
}),
(1039,15,l)
);
}
);
width = 1190;
},
{
layerId = "BDB4B313-38B1-4B24-B843-560B185382BD";
shapes = (
{
closed = 1;
nodes = (
(581,167,l),
(353,497,l),
(656,818,l),
(687,994,l),
(94,567,l),
(77,448,l),
(550,23,l)
);
},
{
closed = 1;
nodes = (
(1133,167,l),
(905,497,l),
(1208,818,l),
(1239,994,l),
(646,567,l),
(629,448,l),
(1102,23,l)
);
}
);
width = 1250;
}
);
unicode = 171;
}
{
glyphname = logicalnot;
layers = (
{
layerId = "D92FDD0B-F694-41DD-AE46-0E4F694F0F38";
shapes = (
{
closed = 1;
nodes = (
(1090,125,l),
(1090,622,l),
(152,622,l),
(152,496,l,{
name = hr00;
}),
(944,496,l),
(944,125,l)
);
}
);
width = 1317;
},
{
layerId = "BDB4B313-38B1-4B24-B843-560B185382BD";
shapes = (
{
closed = 1;
nodes = (
(1136,125,l),
(1136,647,l),
(166,647,l),
(166,501,l),
(980,501,l),
(980,125,l)
);
}
);
width = 1440;
}
);
unicode = 172;
}
{
glyphname = registered;
kernLeft = registered;
kernRight = registered;
layers = (
{
layerId = "D92FDD0B-F694-41DD-AE46-0E4F694F0F38";
shapes = (
{
closed = 1;
nodes = (
(1471,-281,o),
(1872,119,o),
(1872,613,cs),
(1872,1107,o),
(1471,1508,o),
(977,1508,cs),
(483,1508,o),
(83,1107,o),
(83,613,cs),
(83,119,o),
(483,-281,o),
(977,-281,cs)
);
},
{
closed = 1;
nodes = (
(533,-201,o),
(173,169,o),
(173,613,cs),
(173,1057,o),
(533,1428,o),
(977,1428,cs),
(1421,1428,o),
(1782,1057,o),
(1782,613,cs),
(1782,169,o),
(1421,-201,o),
(977,-201,cs)
);
},
{
closed = 1;
nodes = (
(956,136,ls),
(971,136,o),
(978,157,o),
(978,167,cs),
(978,186,o),
(973,199,o),
(954,201,c),
(907,204,o),
(842,208,o),
(842,264,cs),
(842,568,l),
(976,568,ls),
(1170,568,o),
(1090,136,o),
(1307,136,cs),
(1450,136,ls),
(1464,136,o),
(1472,157,o),
(1472,167,cs),
(1472,187,o),
(1457,199,o),
(1439,201,cs),
(1406,205,o),
(1372,221,o),
(1343,278,c),
(1266,399,o),
(1265,593,o),
(1084,608,c),
(1224,647,o),
(1331,710,o),
(1331,847,cs),
(1331,1030,o),
(1184,1088,o),
(999,1089,cs),
(592,1089,ls),
(577,1089,o),
(570,1079,o),
(570,1069,cs),
(570,1049,o),
(575,1046,o),
(593,1044,c),
(633,1041,o),
(686,1037,o),
(686,981,cs),
(686,243,ls),
(686,214,o),
(639,204,o),
(597,201,c),
(580,199,o),
(576,180,o),
(576,167,cs),
(576,157,o),
(583,136,o),
(598,136,cs)
);
},
{
closed = 1;
nodes = (
(842,1012,l),
(949,1012,ls),
(1074,1012,o),
(1164,987,o),
(1164,827,cs),
(1164,667,o),
(1042,645,o),
(934,645,cs),
(842,645,l)
);
}
);
width = 1929;
},
{
layerId = "BDB4B313-38B1-4B24-B843-560B185382BD";
shapes = (
{
closed = 1;
nodes = (
(1467,-281,o),
(1868,119,o),
(1868,613,cs),
(1868,1107,o),
(1467,1508,o),
(973,1508,cs),
(479,1508,o),
(79,1107,o),
(79,613,cs),
(79,119,o),
(479,-281,o),
(973,-281,cs)
);
},
{
closed = 1;
nodes = (
(529,-201,o),
(169,169,o),
(169,613,cs),
(169,1057,o),
(529,1428,o),
(973,1428,cs),
(1417,1428,o),
(1778,1057,o),
(1778,613,cs),
(1778,169,o),
(1417,-201,o),
(973,-201,cs)
);
},
{
closed = 1;
nodes = (
(952,136,ls),
(967,136,o),
(974,157,o),
(974,167,cs),
(974,186,o),
(969,199,o),
(950,201,c),
(903,204,o),
(838,208,o),
(838,264,cs),
(838,568,l),
(972,568,ls),
(1166,568,o),
(1086,136,o),
(1303,136,cs),
(1446,136,ls),
(1460,136,o),
(1468,157,o),
(1468,167,cs),
(1468,187,o),
(1453,199,o),
(1435,201,cs),
(1402,205,o),
(1368,221,o),
(1339,278,c),
(1262,399,o),
(1261,593,o),
(1080,608,c),
(1220,647,o),
(1327,710,o),
(1327,847,cs),
(1327,1030,o),
(1180,1088,o),
(995,1089,cs),
(588,1089,ls),
(573,1089,o),
(566,1079,o),
(566,1069,cs),
(566,1049,o),
(571,1046,o),
(589,1044,c),
(629,1041,o),
(682,1037,o),
(682,981,cs),
(682,243,ls),
(682,214,o),
(635,204,o),
(593,201,c),
(576,199,o),
(572,180,o),
(572,167,cs),
(572,157,o),
(579,136,o),
(594,136,cs)
);
},
{
closed = 1;
nodes = (
(838,1012,l),
(945,1012,ls),
(1070,1012,o),
(1160,987,o),
(1160,827,cs),
(1160,667,o),
(1038,645,o),
(930,645,cs),
(838,645,l)
);
}
);
width = 1929;
}
);
unicode = 174;
}
{
glyphname = macron;
kernLeft = macron;
kernRight = macron;
layers = (
{
layerId = "D92FDD0B-F694-41DD-AE46-0E4F694F0F38";
shapes = (
{
closed = 1;
nodes = (
(649,1242,l),
(670,1383,l),
(83,1383,l),
(62,1242,l)
);
}
);
width = 1221;
},
{
layerId = "BDB4B313-38B1-4B24-B843-560B185382BD";
shapes = (
{
closed = 1;
nodes = (
(651,1282,l),
(674,1433,l),
(87,1433,l),
(64,1282,l,{
name = hr00;
})
);
}
);
width = 1440;
}
);
unicode = 175;
}
{
glyphname = plusminus;
layers = (
{
layerId = "D92FDD0B-F694-41DD-AE46-0E4F694F0F38";
shapes = (
{
closed = 1;
nodes = (
(1035,0,l),
(1055,126,l),
(686,126,l),
(743,492,l),
(1132,492,l),
(1152,618,l),
(763,618,l),
(828,1032,l),
(682,1032,l),
(617,618,l),
(225,618,l),
(205,492,l),
(597,492,l),
(540,126,l),
(168,126,l),
(148,0,l,{
name = hr02;
})
);
}
);
width = 1317;
},
{
layerId = "BDB4B313-38B1-4B24-B843-560B185382BD";
shapes = (
{
closed = 1;
nodes = (
(1109,0,l),
(1132,146,l),
(743,146,l),
(797,501,l),
(1218,501,l),
(1241,647,l),
(819,647,l),
(884,1062,l),
(718,1062,l),
(653,647,l),
(271,647,l),
(248,501,l),
(631,501,l),
(577,146,l),
(222,146,l),
(199,0,l)
);
}
);
width = 1440;
}
);
unicode = 177;
}
{
glyphname = acute;
kernLeft = acute;
kernRight = acute;
layers = (
{
background = {
shapes = (
{
closed = 1;
nodes = (
(688,1284,o),
(834,1356,o),
(865,1386,cs),
(902,1420,o),
(925,1481,o),
(875,1534,cs),
(824,1588,o),
(755,1566,o),
(718,1531,cs),
(687,1501,o),
(592,1348,o),
(428,1159,c),
(484,1101,l)
);
}
);
};
layerId = "D92FDD0B-F694-41DD-AE46-0E4F694F0F38";
shapes = (
{
pos = (-60,0);
ref = acutecomb;
}
);
width = 1024;
},
{
layerId = "BDB4B313-38B1-4B24-B843-560B185382BD";
shapes = (
{
pos = (111,-24);
ref = acutecomb;
}
);
width = 1024;
}
);
unicode = 180;
}
{
glyphname = cedilla;
kernLeft = cedilla;
kernRight = cedilla;
layers = (
{
background = {
shapes = (
{
closed = 1;
nodes = (
(-472,18,l),
(-579,18,l),
(-619,-144,l),
(-618,-144,l),
(-619,-145,l),
(-619,-145,o),
(-473,-152,o),
(-473,-238,cs),
(-473,-292,o),
(-507,-305,o),
(-566,-305,cs),
(-610,-305,o),
(-648,-292,o),
(-686,-292,cs),
(-699,-292,o),
(-710,-293,o),
(-718,-297,cs),
(-733,-304,o),
(-767,-337,o),
(-767,-363,cs),
(-767,-378,o),
(-738,-396,o),
(-700,-409,cs),
(-643,-428,o),
(-609,-436,o),
(-559,-436,cs),
(-463,-436,o),
(-325,-385,o),
(-325,-258,cs),
(-325,-156,o),
(-424,-117,o),
(-507,-105,c)
);
},
{
closed = 1;
nodes = (
(-381,-485,o),
(-243,-417,o),
(-243,-283,cs),
(-243,-215,o),
(-278,-172,o),
(-397,-138,c,{
name = hr03;
}),
(-337,18,l),
(-494,18,l,{
name = hr01;
}),
(-570,-191,l),
(-451,-192,o),
(-379,-223,o),
(-379,-283,cs,{
name = hr02;
}),
(-379,-348,o),
(-446,-381,o),
(-546,-381,cs),
(-589,-381,o),
(-637,-376,o),
(-689,-363,cs),
(-718,-356,o),
(-735,-412,o),
(-735,-435,cs),
(-735,-445,o),
(-730,-451,o),
(-719,-455,cs),
(-684,-468,o),
(-625,-485,o),
(-516,-485,cs)
);
},
{
closed = 1;
nodes = (
(218,-476,o),
(347,-388,o),
(347,-269,cs),
(347,-190,o),
(280,-141,o),
(163,-129,c,{
name = hr03;
}),
(224,18,l),
(107,18,l,{
name = hr01;
}),
(41,-191,l),
(115,-191,o),
(181,-219,o),
(181,-272,cs,{
name = hr02;
}),
(181,-332,o),
(128,-363,o),
(35,-363,cs),
(-4,-363,o),
(-38,-358,o),
(-85,-347,cs),
(-111,-340,o),
(-155,-403,o),
(-155,-426,cs),
(-155,-436,o),
(-150,-442,o),
(-139,-446,cs),
(-104,-459,o),
(-45,-476,o),
(64,-476,cs)
);
},
{
closed = 1;
nodes = (
(245,-488,o),
(346,-371,o),
(346,-271,cs),
(346,-194,o),
(281,-139,o),
(162,-130,c,{
name = hr03;
}),
(222,18,l),
(105,18,l,{
name = hr01;
}),
(39,-191,l),
(128,-189,o),
(180,-229,o),
(180,-271,cs),
(180,-331,o),
(120,-374,o),
(48,-374,cs),
(-14,-374,o),
(-49,-357,o),
(-70,-349,cs),
(-81,-345,o),
(-85,-346,o),
(-93,-356,cs),
(-104,-370,o),
(-120,-397,o),
(-134,-417,cs),
(-139,-424,o),
(-140,-434,o),
(-133,-439,cs),
(-100,-463,o),
(-40,-488,o),
(54,-488,cs)
);
}
);
};
layerId = "D92FDD0B-F694-41DD-AE46-0E4F694F0F38";
shapes = (
{
ref = cedillacomb;
}
);
width = 462;
},
{
background = {
shapes = (
{
closed = 1;
nodes = (
(-818,-438,o),
(-727,-368,o),
(-727,-279,cs),
(-727,-185,o),
(-796,-114,o),
(-944,-91,c,{
name = hr03;
}),
(-914,18,l),
(-1071,18,l,{
name = hr01;
}),
(-1111,-144,l),
(-1109,-144,l),
(-1111,-145,l),
(-990,-177,o),
(-972,-214,o),
(-972,-258,cs,{
name = hr02;
}),
(-972,-313,o),
(-1058,-332,o),
(-1202,-316,cs),
(-1229,-313,o),
(-1238,-354,o),
(-1238,-380,cs),
(-1238,-395,o),
(-1233,-403,o),
(-1218,-408,cs),
(-1182,-420,o),
(-1120,-438,o),
(-1011,-438,cs)
);
},
{
closed = 1;
nodes = (
(-965,-466,o),
(-805,-404,o),
(-805,-276,cs),
(-805,-199,o),
(-855,-147,o),
(-982,-119,c,{
name = hr03;
}),
(-924,18,l),
(-1081,18,l,{
name = hr01;
}),
(-1160,-209,l),
(-1079,-209,o),
(-1003,-222,o),
(-1003,-281,cs,{
name = hr02;
}),
(-1003,-334,o),
(-1057,-362,o),
(-1139,-362,cs),
(-1174,-362,o),
(-1222,-357,o),
(-1274,-344,cs),
(-1303,-337,o),
(-1320,-393,o),
(-1320,-416,cs),
(-1320,-426,o),
(-1315,-432,o),
(-1304,-436,cs),
(-1269,-449,o),
(-1210,-466,o),
(-1101,-466,cs)
);
},
{
closed = 1;
nodes = (
(-1554,-497,o),
(-1406,-409,o),
(-1406,-271,cs),
(-1406,-181,o),
(-1491,-127,o),
(-1616,-111,c,{
name = hr03;
}),
(-1550,19,l),
(-1707,19,l,{
name = hr01;
}),
(-1787,-201,l),
(-1658,-199,o),
(-1612,-244,o),
(-1612,-283,cs,{
name = hr02;
}),
(-1612,-344,o),
(-1673,-373,o),
(-1736,-373,cs),
(-1806,-373,o),
(-1848,-356,o),
(-1885,-341,cs),
(-1895,-337,o),
(-1899,-341,o),
(-1904,-349,cs),
(-1915,-367,o),
(-1939,-404,o),
(-1946,-416,cs),
(-1951,-425,o),
(-1950,-431,o),
(-1943,-436,cs),
(-1916,-455,o),
(-1837,-497,o),
(-1707,-497,cs)
);
},
{
closed = 1;
nodes = (
(267,-523,o),
(417,-435,o),
(417,-299,cs),
(417,-223,o),
(328,-143,o),
(198,-131,c,{
name = hr03;
}),
(261,18,l),
(104,18,l,{
name = hr01;
}),
(22,-211,l),
(94,-211,o),
(162,-232,o),
(162,-285,cs,{
name = hr02;
}),
(162,-341,o),
(114,-366,o),
(41,-366,cs),
(10,-366,o),
(-33,-361,o),
(-79,-350,cs),
(-104,-344,o),
(-140,-425,o),
(-140,-448,cs),
(-140,-458,o),
(-135,-464,o),
(-124,-468,cs),
(-89,-481,o),
(-23,-523,o),
(118,-523,cs)
);
},
{
closed = 1;
nodes = (
(257,-497,o),
(405,-409,o),
(405,-271,cs),
(405,-181,o),
(322,-127,o),
(199,-111,c,{
name = hr03;
}),
(261,19,l),
(104,19,l,{
name = hr01;
}),
(24,-201,l),
(153,-199,o),
(199,-244,o),
(199,-283,cs,{
name = hr02;
}),
(199,-344,o),
(138,-373,o),
(75,-373,cs),
(5,-373,o),
(-37,-356,o),
(-74,-341,cs),
(-84,-337,o),
(-88,-341,o),
(-93,-349,cs),
(-104,-367,o),
(-128,-404,o),
(-135,-416,cs),
(-139,-425,o),
(-139,-431,o),
(-132,-436,cs),
(-104,-453,o),
(-26,-497,o),
(104,-497,cs)
);
}
);
};
layerId = "BDB4B313-38B1-4B24-B843-560B185382BD";
shapes = (
{
ref = cedillacomb;
}
);
width = 522;
}
);
unicode = 184;
}
{
glyphname = ordmasculine;
layers = (
{
layerId = "D92FDD0B-F694-41DD-AE46-0E4F694F0F38";
shapes = (
{
closed = 1;
nodes = (
(768,612,o),
(950,856,o),
(950,1112,cs),
(950,1314,o),
(832,1470,o),
(607,1470,cs),
(331,1470,o),
(143,1239,o),
(143,981,cs),
(143,777,o),
(265,612,o),
(491,612,cs,{
name = hr00;
})
);
},
{
closed = 1;
nodes = (
(385,698,o),
(331,787,o),
(331,932,cs),
(331,1102,o),
(378,1383,o),
(589,1383,cs),
(707,1383,o),
(759,1301,o),
(759,1159,cs),
(759,990,o),
(714,698,o),
(504,698,cs)
);
}
);
width = 1024;
},
{
layerId = "BDB4B313-38B1-4B24-B843-560B185382BD";
shapes = (
{
closed = 1;
nodes = (
(941,612,o),
(1135,851,o),
(1135,1102,cs),
(1135,1310,o),
(980,1470,o),
(685,1470,cs),
(329,1470,o),
(124,1244,o),
(124,991,cs),
(124,781,o),
(278,612,o),
(574,612,cs)
);
},
{
closed = 1;
nodes = (
(468,698,o),
(412,795,o),
(412,952,cs),
(412,1114,o),
(456,1383,o),
(667,1383,cs),
(785,1383,o),
(844,1293,o),
(844,1139,cs),
(844,978,o),
(797,698,o),
(587,698,cs)
);
}
);
width = 1130;
}
);
unicode = 186;
}
{
color = 1;
glyphname = Eth;
layers = (
{
anchors = (
{
name = bottom;
pos = (697,0);
},
{
name = center;
pos = (797,710);
},
{
name = top;
pos = (811,1419);
}
);
layerId = "D92FDD0B-F694-41DD-AE46-0E4F694F0F38";
shapes = (
{
closed = 1;
nodes = (
(941,700,o),
(951,732,o),
(951,757,cs),
(951,773,o),
(943,790,o),
(927,791,c),
(148,791,l),
(134,785,o),
(124,753,o),
(124,728,cs),
(124,712,o),
(132,695,o),
(148,694,c),
(927,694,l)
);
},
{
closed = 1;
nodes = (
(5,36,o),
(14,0,o),
(37,0,cs),
(553,0,ls),
(1113,0,o),
(1435,322,o),
(1435,824,cs),
(1435,1095,o),
(1313,1419,o),
(702,1419,cs),
(229,1419,ls),
(206,1419,o),
(188,1383,o),
(189,1368,c),
(188,1362,o),
(187,1357,o),
(187,1353,cs),
(187,1336,o),
(196,1333,o),
(218,1331,cs),
(278,1326,o),
(388,1320,o),
(379,1234,c),
(215,152,l),
(211,108,o),
(109,93,o),
(44,88,c),
(17,85,o),
(8,72,o),
(8,51,c,{
name = hr00;
})
);
},
{
closed = 1;
nodes = (
(597,1331,l),
(667,1331,ls),
(1022,1331,o),
(1205,1182,o),
(1205,827,cs),
(1205,318,o),
(965,101,o),
(595,101,cs),
(426,101,o),
(436,115,o),
(424,153,c)
);
}
);
width = 1534;
},
{
anchors = (
{
name = bottom;
pos = (784,0);
},
{
name = center;
pos = (884,710);
},
{
name = top;
pos = (985,1419);
}
);
layerId = "BDB4B313-38B1-4B24-B843-560B185382BD";
shapes = (
{
closed = 1;
nodes = (
(1011,700,o),
(1021,732,o),
(1021,757,cs),
(1021,773,o),
(1013,790,o),
(997,791,c),
(148,791,l),
(134,785,o),
(124,753,o),
(124,728,cs),
(124,712,o),
(132,695,o),
(148,694,c),
(997,694,l)
);
},
{
closed = 1;
nodes = (
(30,36,o),
(38,0,o),
(60,0,cs),
(792,0,ls),
(1251,0,o),
(1646,329,o),
(1646,877,cs),
(1646,1158,o),
(1447,1417,o),
(953,1419,c),
(267,1419,ls),
(244,1419,o),
(226,1383,o),
(225,1368,c),
(224,1362,o),
(224,1357,o),
(224,1353,cs),
(224,1336,o),
(232,1333,o),
(254,1331,cs),
(310,1326,o),
(392,1321,o),
(392,1250,c),
(226,152,l),
(220,108,o),
(136,93,o),
(71,88,c),
(44,85,o),
(35,72,o),
(33,51,c)
);
},
{
closed = 1;
nodes = (
(753,1331,l),
(856,1331,ls),
(1105,1331,o),
(1281,1251,o),
(1281,904,cs),
(1281,338,o),
(1042,91,o),
(738,91,cs),
(578,91,o),
(572,113,o),
(572,135,c)
);
}
);
width = 1708;
}
);
metricWidth = D;
unicode = 208;
}
{
glyphname = multiply;
layers = (
{
layerId = "D92FDD0B-F694-41DD-AE46-0E4F694F0F38";
shapes = (
{
closed = 1;
nodes = (
(1049,1011,l),
(674,639,l),
(347,1011,l),
(246,915,l,{
name = hr00;
}),
(570,550,l),
(183,194,l),
(267,99,l),
(658,468,l),
(969,99,l),
(1069,194,l),
(763,558,l),
(1132,915,l)
);
}
);
width = 1317;
},
{
layerId = "BDB4B313-38B1-4B24-B843-560B185382BD";
shapes = (
{
closed = 1;
nodes = (
(1154,1045,l),
(761,678,l),
(432,1045,l),
(321,939,l),
(649,574,l),
(257,208,l),
(350,103,l),
(743,469,l),
(1072,103,l),
(1183,208,l),
(855,574,l),
(1247,939,l)
);
}
);
width = 1440;
}
);
unicode = 215;
}
{
glyphname = Oslash;
layers = (
{
background = {
shapes = (
{
closed = 1;
nodes = (
(1217,1335,o),
(1180,1376,o),
(1152,1376,cs),
(1144,1376,o),
(1137,1374,o),
(1132,1367,c),
(347,120,l),
(344,96,o),
(378,63,o),
(412,63,cs),
(419,63,o),
(426,65,o),
(429,70,cs),
(1215,1317,l)
);
}
);
};
layerId = "D92FDD0B-F694-41DD-AE46-0E4F694F0F38";
shapes = (
{
ref = O;
},
{
pos = (238,-3);
ref = OSlash_part.;
}
);
width = 1496;
},
{
layerId = "BDB4B313-38B1-4B24-B843-560B185382BD";
shapes = (
{
ref = O;
},
{
pos = (328,-3);
ref = OSlash_part.;
}
);
width = 1679;
}
);
unicode = 216;
}
{
glyphname = germandbls;
layers = (
{
anchors = (
{
name = bottom;
pos = (481,0);
},
{
name = top;
pos = (207,1700);
}
);
layerId = "D92FDD0B-F694-41DD-AE46-0E4F694F0F38";
shapes = (
{
closed = 1;
nodes = (
(385,1093,ls),
(433,1453,o),
(581,1474,o),
(675,1474,cs),
(763,1474,o),
(822,1418,o),
(822,1324,cs),
(822,1086,o),
(557,1061,o),
(557,866,cs),
(557,664,o),
(846,492,o),
(846,271,cs,{
name = hr02;
}),
(846,153,o),
(773,55,o),
(653,55,cs),
(603,55,o),
(587,89,o),
(587,89,c),
(542,222,l),
(540,239,o),
(520,244,o),
(494,244,cs),
(453,244,o),
(388,204,o),
(388,135,cs),
(388,52,o),
(467,-29,o),
(647,-29,cs),
(856,-29,o),
(1051,107,o),
(1051,340,cs),
(1051,635,o),
(734,744,o),
(734,911,cs),
(734,1072,o),
(1021,1098,o),
(1021,1350,cs,{
name = hr03;
}),
(1021,1496,o),
(900,1559,o),
(716,1559,cs),
(390,1559,o),
(223,1315,o),
(186,1061,cs),
(32,0,l),
(238,0,l,{
name = hr01;
})
);
}
);
width = 1110;
},
{
anchors = (
{
name = bottom;
pos = (598,0);
},
{
name = top;
pos = (-378,1700);
}
);
layerId = "BDB4B313-38B1-4B24-B843-560B185382BD";
shapes = (
{
closed = 1;
nodes = (
(520,1093,ls),
(570,1453,o),
(729,1474,o),
(823,1474,cs),
(910,1474,o),
(956,1410,o),
(956,1304,cs),
(956,1043,o),
(667,1046,o),
(667,833,cs),
(667,639,o),
(957,581,o),
(957,314,cs),
(957,187,o),
(908,59,o),
(787,59,cs),
(747,59,o),
(717,87,o),
(717,87,c),
(671,252,l),
(661,268,o),
(639,281,o),
(609,281,cs),
(548,281,o),
(495,238,o),
(495,151,cs),
(495,68,o),
(581,-29,o),
(775,-29,cs),
(1041,-29,o),
(1277,134,o),
(1277,371,cs),
(1277,727,o),
(853,820,o),
(853,913,cs),
(853,1021,o),
(1265,1090,o),
(1265,1324,cs),
(1265,1517,o),
(1076,1559,o),
(864,1559,cs),
(446,1559,o),
(245,1316,o),
(206,1061,cs),
(46,0,l),
(367,0,l)
);
}
);
width = 1343;
}
);
unicode = 223;
}
{
glyphname = ae;
layers = (
{
anchors = (
{
name = top;
pos = (992,994);
}
);
background = {
shapes = (
{
closed = 1;
nodes = (
(533,-30,o),
(693,223,o),
(741,355,c),
(728,282,o),
(701,125,o),
(701,110,cs),
(701,31,o),
(745,-13,o),
(821,-13,cs,{
name = hr02;
}),
(895,-13,o),
(991,11,o),
(1056,41,cs),
(1074,49,o),
(1081,67,o),
(1081,83,cs,{
name = hr03;
}),
(1081,112,o),
(1068,113,o),
(1056,113,cs),
(1036,113,o),
(984,96,o),
(956,96,cs),
(910,96,o),
(897,117,o),
(897,147,cs),
(897,154,o),
(898,161,o),
(899,168,c),
(1039,967,l),
(1042,990,o),
(1028,997,o),
(1015,997,cs),
(984,997,o),
(937,958,o),
(904,939,c),
(843,984,o),
(801,1013,o),
(684,1013,cs),
(362,1013,o),
(70,639,o),
(70,304,cs),
(70,115,o),
(145,-30,o),
(357,-30,cs)
);
},
{
closed = 1;
nodes = (
(336,107,o),
(281,173,o),
(281,328,cs),
(281,578,o),
(430,918,o),
(687,918,cs),
(773,918,o),
(804,875,o),
(824,819,c),
(780,596,l),
(720,417,o),
(545,107,o),
(413,107,cs,{
name = hr04;
})
);
}
);
};
layerId = "D92FDD0B-F694-41DD-AE46-0E4F694F0F38";
shapes = (
{
closed = 1;
nodes = (
(472,-27,o),
(636,172,o),
(718,396,c),
(701,161,o),
(838,-29,o),
(1069,-29,cs),
(1239,-29,o),
(1381,50,o),
(1470,164,c),
(1472,170,o),
(1480,176,o),
(1480,183,cs),
(1480,186,o),
(1479,189,o),
(1475,192,c),
(1438,225,l),
(1429,231,o),
(1423,223,o),
(1416,215,c),
(1322,124,o),
(1216,75,o),
(1098,75,cs),
(969,75,o),
(934,209,o),
(934,407,c),
(1247,465,o),
(1540,591,o),
(1535,804,cs),
(1533,898,o),
(1468,1014,o),
(1252,1014,cs),
(1150,1014,o),
(1049,975,o),
(963,909,c),
(928,979,o),
(859,1011,o),
(729,1011,cs),
(345,1011,o),
(36,618,o),
(36,272,cs),
(36,133,o),
(94,-27,o),
(292,-27,cs)
);
},
{
closed = 1;
nodes = (
(965,768,o),
(1100,933,o),
(1247,933,cs),
(1298,933,o),
(1347,901,o),
(1348,838,cs),
(1351,640,o),
(1203,540,o),
(938,484,c)
);
},
{
closed = 1;
nodes = (
(262,113,o),
(231,187,o),
(231,294,cs),
(231,565,o),
(429,926,o),
(708,926,cs),
(800,926,o),
(855,854,o),
(828,757,c),
(786,727,o),
(760,641,o),
(739,571,c,{
name = hr00;
}),
(636,342,o),
(531,113,o),
(336,113,cs)
);
}
);
width = 1565;
},
{
anchors = (
{
name = top;
pos = (1040,994);
}
);
layerId = "BDB4B313-38B1-4B24-B843-560B185382BD";
shapes = (
{
closed = 1;
nodes = (
(590,-27,o),
(705,253,o),
(740,378,c),
(740,92,o),
(940,-29,o),
(1162,-29,cs),
(1399,-29,o),
(1516,50,o),
(1653,164,c),
(1656,170,o),
(1664,176,o),
(1664,183,cs),
(1664,186,o),
(1663,189,o),
(1659,192,c),
(1622,225,l),
(1613,231,o),
(1607,223,o),
(1600,215,c),
(1490,143,o),
(1391,105,o),
(1253,105,cs),
(1104,105,o),
(1050,243,o),
(1061,407,c),
(1490,465,o),
(1709,558,o),
(1709,781,cs),
(1709,875,o),
(1626,1014,o),
(1350,1014,cs),
(1231,1014,o),
(1119,981,o),
(1024,923,c),
(976,965,o),
(884,1011,o),
(741,1011,cs),
(358,1011,o),
(54,630,o),
(54,290,cs),
(54,108,o),
(171,-27,o),
(323,-27,cs)
);
},
{
closed = 1;
nodes = (
(1090,768,o),
(1192,933,o),
(1304,933,cs),
(1389,933,o),
(1408,871,o),
(1408,808,cs),
(1408,630,o),
(1287,534,o),
(1066,484,c)
);
},
{
closed = 1;
nodes = (
(391,153,o),
(358,242,o),
(358,353,cs),
(358,649,o),
(535,926,o),
(731,926,cs),
(813,926,o),
(869,880,o),
(873,794,c),
(775,678,o),
(783,653,o),
(755,585,c),
(755,486,o),
(590,153,o),
(454,153,cs)
);
}
);
width = 1754;
}
);
unicode = 230;
userData = {
com.typemytype.robofont.mark = (
0.6,
0.609,
1,
1
);
};
}
{
glyphname = eth;
layers = (
{
anchors = (
{
name = bottom;
pos = (486,0);
},
{
name = top;
pos = (724,1700);
}
);
layerId = "D92FDD0B-F694-41DD-AE46-0E4F694F0F38";
shapes = (
{
closed = 1;
nodes = (
(816,-29,o),
(1014,350,o),
(1014,729,cs),
(1014,970,o),
(923,1226,o),
(728,1400,c),
(905,1514,l,{
name = hr00;
}),
(850,1602,l),
(657,1450,l),
(570,1508,o),
(465,1550,o),
(342,1571,c),
(314,1481,l),
(404,1466,o),
(485,1427,o),
(552,1375,c),
(377,1260,l),
(434,1178,l),
(618,1320,l),
(741,1211,o),
(803,1035,o),
(805,934,cs),
(805,927,o),
(805,920,o),
(805,913,c),
(750,965,o),
(673,994,o),
(563,994,cs),
(298,994,o),
(71,728,o),
(71,392,cs),
(71,154,o),
(213,-29,o),
(487,-29,cs)
);
},
{
closed = 1;
nodes = (
(331,66,o),
(283,168,o),
(283,339,cs),
(283,604,o),
(375,877,o),
(565,877,cs),
(657,877,o),
(766,863,o),
(810,782,c),
(812,753,o),
(813,725,o),
(813,698,cs),
(813,401,o),
(703,66,o),
(496,66,cs)
);
}
);
width = 1119;
},
{
anchors = (
{
name = bottom;
pos = (579,0);
},
{
name = top;
pos = (802,1700);
}
);
layerId = "BDB4B313-38B1-4B24-B843-560B185382BD";
shapes = (
{
closed = 1;
nodes = (
(981,-29,o),
(1233,299,o),
(1233,739,cs),
(1233,1031,o),
(1090,1276,o),
(869,1423,c),
(1064,1539,l),
(1000,1625,l),
(782,1469,l),
(672,1521,o),
(546,1563,o),
(406,1571,c),
(376,1481,l),
(480,1471,o),
(569,1433,o),
(643,1380,c),
(436,1258,l),
(505,1180,l),
(708,1323,l),
(843,1204,o),
(897,1037,o),
(897,934,cs),
(897,927,o),
(897,920,o),
(896,913,c),
(843,965,o),
(772,994,o),
(671,994,cs),
(280,994,o),
(66,697,o),
(66,379,cs),
(66,128,o),
(237,-29,o),
(554,-29,cs)
);
},
{
closed = 1;
nodes = (
(449,66,o),
(407,155,o),
(407,318,cs),
(407,559,o),
(486,877,o),
(701,877,cs),
(770,877,o),
(869,863,o),
(899,782,c),
(899,708,o),
(889,622,o),
(879,572,cs),
(828,322,o),
(781,66,o),
(546,66,cs)
);
}
);
width = 1305;
}
);
unicode = 240;
}
{
glyphname = divide;
layers = (
{
layerId = "D92FDD0B-F694-41DD-AE46-0E4F694F0F38";
shapes = (
{
closed = 1;
nodes = (
(1126,492,l),
(1138,618,l),
(211,618,l),
(199,492,l,{
name = hr00;
})
);
},
{
closed = 1;
nodes = (
(594,877,o),
(628,817,o),
(716,817,cs),
(795,817,o),
(858,880,o),
(858,967,cs),
(858,1039,o),
(817,1098,o),
(739,1098,cs),
(654,1098,o),
(594,1031,o),
(594,949,cs,{
name = hr00;
})
);
},
{
closed = 1;
nodes = (
(494,81,o),
(528,21,o),
(616,21,cs),
(695,21,o),
(758,84,o),
(758,171,cs),
(758,243,o),
(717,302,o),
(639,302,cs),
(554,302,o),
(494,235,o),
(494,153,cs,{
name = hr00;
})
);
}
);
width = 1317;
},
{
layerId = "BDB4B313-38B1-4B24-B843-560B185382BD";
shapes = (
{
closed = 1;
nodes = (
(1210,501,l),
(1222,647,l),
(252,647,l),
(240,501,l)
);
},
{
closed = 1;
nodes = (
(571,850,o),
(632,767,o),
(740,767,cs),
(849,767,o),
(937,864,o),
(937,975,cs),
(937,1074,o),
(874,1151,o),
(766,1151,cs),
(649,1151,o),
(571,1053,o),
(571,950,cs)
);
},
{
closed = 1;
nodes = (
(504,83,o),
(565,0,o),
(673,0,cs),
(782,0,o),
(870,97,o),
(870,208,cs),
(870,307,o),
(807,384,o),
(699,384,cs),
(582,384,o),
(504,286,o),
(504,183,cs)
);
}
);
width = 1440;
}
);
unicode = 247;
}
{
glyphname = thorn;
layers = (
{
anchors = (
{
name = bottom;
pos = (494,0);
},
{
name = top;
pos = (520,1700);
}
);
layerId = "D92FDD0B-F694-41DD-AE46-0E4F694F0F38";
shapes = (
{
closed = 1;
nodes = (
(175,-444,l),
(224,-117,l),
(239,43,l,{
name = hr00;
}),
(220,149,l),
(89,126,l),
(4,-443,l)
);
},
{
closed = 1;
nodes = (
(135,70,o),
(326,-20,o),
(516,-20,cs),
(793,-20,o),
(978,223,o),
(1010,492,cs),
(1015,534,o),
(1018,576,o),
(1018,617,cs),
(1018,828,o),
(941,1013,o),
(703,1013,cs),
(603,1013,o),
(460,959,o),
(369,815,c),
(428,1104,l),
(489,1506,ls),
(489,1509,o),
(490,1512,o),
(490,1514,cs),
(490,1536,o),
(476,1546,o),
(465,1546,cs),
(454,1546,o),
(439,1546,o),
(423,1546,cs),
(356,1546,o),
(257,1545,o),
(150,1539,cs),
(131,1538,o),
(118,1502,o),
(118,1488,cs),
(118,1468,o),
(126,1461,o),
(136,1455,cs),
(183,1427,o),
(281,1439,o),
(281,1368,c),
(94,126,l,{
name = hr00;
})
);
},
{
closed = 1;
nodes = (
(421,802,o),
(548,895,o),
(647,895,cs),
(777,895,o),
(814,804,o),
(814,657,cs),
(814,608,o),
(810,552,o),
(804,492,cs),
(780,251,o),
(686,75,o),
(493,75,cs),
(387,75,o),
(302,129,o),
(282,173,c),
(364,719,l)
);
}
);
width = 1132;
},
{
anchors = (
{
name = bottom;
pos = (592,0);
},
{
name = top;
pos = (309,1700);
}
);
layerId = "BDB4B313-38B1-4B24-B843-560B185382BD";
shapes = (
{
closed = 1;
nodes = (
(295,-444,l),
(343,-117,l),
(353,27,l),
(262,251,l),
(86,126,l),
(5,-443,l)
);
},
{
closed = 1;
nodes = (
(136,70,o),
(367,-22,o),
(598,-22,cs),
(999,-22,o),
(1207,223,o),
(1252,492,cs),
(1257,529,o),
(1260,565,o),
(1260,600,cs),
(1260,830,o),
(1141,1013,o),
(862,1013,cs),
(741,1013,o),
(594,953,o),
(493,825,c),
(540,1104,l),
(596,1508,ls),
(597,1512,o),
(597,1515,o),
(597,1518,cs),
(597,1542,o),
(582,1548,o),
(572,1548,cs),
(492,1548,o),
(330,1546,o),
(142,1538,cs),
(126,1537,o),
(114,1510,o),
(111,1494,cs),
(108,1469,o),
(117,1460,o),
(130,1454,c),
(178,1441,o),
(273,1451,o),
(273,1355,cs),
(273,1347,o),
(272,1338,o),
(271,1329,cs),
(86,126,l)
);
},
{
closed = 1;
nodes = (
(533,770,o),
(628,865,o),
(739,865,cs),
(870,865,o),
(915,771,o),
(915,622,cs),
(915,582,o),
(911,539,o),
(906,492,cs),
(874,252,o),
(768,73,o),
(575,73,cs),
(491,73,o),
(415,110,o),
(402,165,c),
(483,702,l)
);
}
);
width = 1326;
}
);
unicode = 254;
}
{
color = 1;
glyphname = dcroat;
layers = (
{
layerId = "D92FDD0B-F694-41DD-AE46-0E4F694F0F38";
shapes = (
{
closed = 1;
nodes = (
(650,1288,o),
(638,1266,o),
(634,1241,c),
(634,1225,o),
(636,1193,o),
(652,1192,c),
(1223,1192,l),
(1238,1198,o),
(1252,1235,o),
(1255,1260,c),
(1256,1263,o),
(1256,1266,o),
(1256,1269,cs),
(1256,1282,o),
(1249,1293,o),
(1236,1294,c),
(664,1294,l,{
name = hr00;
})
);
},
{
ref = d;
}
);
width = 1178;
},
{
layerId = "BDB4B313-38B1-4B24-B843-560B185382BD";
shapes = (
{
closed = 1;
nodes = (
(647,1288,o),
(635,1266,o),
(631,1241,c),
(631,1225,o),
(633,1193,o),
(649,1192,c),
(1463,1192,l),
(1478,1198,o),
(1492,1235,o),
(1495,1260,c),
(1496,1263,o),
(1496,1266,o),
(1496,1269,cs),
(1496,1282,o),
(1489,1293,o),
(1476,1294,c),
(661,1294,l)
);
},
{
pos = (-1,0);
ref = d;
}
);
width = 1357;
}
);
unicode = 273;
}
{
glyphname = Hbar;
layers = (
{
anchors = (
{
name = bottom;
pos = (775,0);
},
{
name = center;
pos = (875,710);
},
{
name = top;
pos = (982,1419);
},
{
name = topleft;
pos = (160,1419);
}
);
layerId = "D92FDD0B-F694-41DD-AE46-0E4F694F0F38";
shapes = (
{
closed = 1;
nodes = (
(123,1053,o),
(107,1005,o),
(107,983,cs),
(107,970,o),
(114,959,o),
(127,958,c),
(1656,958,l),
(1672,965,o),
(1689,1013,o),
(1689,1035,cs),
(1689,1048,o),
(1682,1059,o),
(1669,1060,c),
(139,1060,l),
(140,1060,l,{
name = hr00;
})
);
},
{
closed = 1;
nodes = (
(576,0,ls),
(599,0,o),
(610,36,o),
(612,51,cs),
(616,81,o),
(607,85,o),
(580,88,cs),
(523,94,o),
(439,98,o),
(439,171,c),
(503,619,l),
(1222,619,l),
(1154,152,ls,{
name = hr00;
}),
(1148,108,o),
(1066,92,o),
(1001,88,cs),
(972,86,o),
(964,70,o),
(964,47,cs),
(964,31,o),
(975,0,o),
(996,0,cs),
(1501,0,ls),
(1524,0,o),
(1535,36,o),
(1537,51,cs),
(1541,81,o),
(1532,85,o),
(1505,88,cs),
(1448,94,o),
(1364,98,o),
(1364,171,c),
(1527,1267,l),
(1532,1311,o),
(1615,1326,o),
(1679,1331,c),
(1705,1334,o),
(1714,1347,o),
(1717,1368,c),
(1718,1383,o),
(1712,1419,o),
(1689,1419,cs),
(1184,1419,ls),
(1164,1419,o),
(1143,1388,o),
(1143,1355,cs),
(1143,1337,o),
(1152,1333,o),
(1175,1331,cs),
(1233,1326,o),
(1316,1321,o),
(1316,1248,c),
(1234,705,l),
(516,705,l),
(602,1267,ls),
(609,1311,o),
(690,1326,o),
(754,1331,c),
(780,1334,o),
(789,1347,o),
(792,1368,c),
(793,1383,o),
(787,1419,o),
(764,1419,cs),
(269,1419,ls),
(249,1419,o),
(228,1388,o),
(228,1355,cs),
(228,1337,o),
(237,1333,o),
(260,1331,cs),
(317,1326,o),
(391,1321,o),
(391,1249,c),
(229,152,l),
(224,108,o),
(151,92,o),
(86,88,cs),
(57,86,o),
(49,70,o),
(49,47,cs),
(49,31,o),
(60,0,o),
(81,0,cs)
);
}
);
width = 1669;
},
{
anchors = (
{
name = bottom;
pos = (865,0);
},
{
name = center;
pos = (965,710);
},
{
name = top;
pos = (1078,1419);
},
{
name = topleft;
pos = (150,1419);
}
);
layerId = "BDB4B313-38B1-4B24-B843-560B185382BD";
shapes = (
{
closed = 1;
nodes = (
(204,1039,o),
(188,991,o),
(188,969,cs),
(188,956,o),
(195,945,o),
(208,944,c),
(1737,944,l),
(1753,951,o),
(1770,999,o),
(1770,1021,cs),
(1770,1034,o),
(1763,1045,o),
(1750,1046,c),
(220,1046,l),
(221,1046,l,{
name = hr00;
})
);
},
{
closed = 1;
nodes = (
(687,0,ls),
(710,0,o),
(726,24,o),
(726,51,cs),
(726,71,o),
(724,85,o),
(697,88,cs),
(642,94,o),
(561,98,o),
(561,165,c),
(629,611,l),
(1285,611,l),
(1214,152,ls),
(1207,108,o),
(1123,93,o),
(1058,88,cs),
(1031,86,o),
(1023,72,o),
(1018,51,c),
(1016,36,o),
(1024,0,o),
(1047,0,cs),
(1692,0,ls),
(1715,0,o),
(1731,23,o),
(1731,51,cs),
(1731,71,o),
(1729,85,o),
(1702,88,cs),
(1639,95,o),
(1546,98,o),
(1546,166,c),
(1709,1267,l),
(1715,1311,o),
(1787,1325,o),
(1845,1331,cs),
(1875,1334,o),
(1884,1351,o),
(1884,1377,cs),
(1884,1394,o),
(1877,1419,o),
(1858,1419,cs),
(1253,1419,ls),
(1230,1419,o),
(1210,1392,o),
(1210,1374,cs),
(1210,1344,o),
(1213,1334,o),
(1241,1331,cs),
(1303,1324,o),
(1377,1320,o),
(1377,1253,c),
(1299,707,l),
(643,707,l),
(724,1267,ls),
(730,1311,o),
(814,1326,o),
(880,1331,c),
(904,1334,o),
(919,1347,o),
(919,1378,cs),
(919,1395,o),
(912,1419,o),
(893,1419,cs),
(268,1419,ls),
(245,1419,o),
(225,1394,o),
(225,1377,cs),
(225,1347,o),
(228,1334,o),
(256,1331,cs),
(315,1325,o),
(392,1321,o),
(392,1255,c),
(229,152,l),
(220,108,o),
(142,93,o),
(73,88,c),
(46,85,o),
(33,72,o),
(33,51,cs),
(33,36,o),
(39,0,o),
(62,0,cs)
);
}
);
width = 1870;
}
);
unicode = 294;
}
{
color = 1;
glyphname = hbar;
layers = (
{
anchors = (
{
name = bottom;
pos = (487,0);
},
{
name = center;
pos = (712,939);
},
{
name = top;
pos = (356,1500);
}
);
layerId = "D92FDD0B-F694-41DD-AE46-0E4F694F0F38";
shapes = (
{
closed = 1;
nodes = (
(224,0,l),
(328,656,l),
(405,753,o),
(557,874,o),
(684,874,cs),
(762,874,o),
(776,844,o),
(776,814,c),
(672,102,l),
(672,57,o),
(680,-13,o),
(796,-13,cs),
(845,-13,o),
(937,10,o),
(1029,41,cs),
(1047,47,o),
(1054,67,o),
(1054,83,cs,{
name = hr03;
}),
(1054,112,o),
(1041,113,o),
(1029,113,cs),
(1009,113,o),
(959,96,o),
(931,96,cs),
(884,96,o),
(870,119,o),
(870,149,c),
(966,766,l),
(989,926,o),
(927,1014,o),
(762,1014,cs,{
name = hr04;
}),
(575,1014,o),
(408,839,o),
(340,761,c),
(382,1010,l),
(458,1506,l),
(460,1538,o),
(445,1546,o),
(434,1546,cs),
(383,1546,o),
(266,1547,o),
(144,1539,cs),
(128,1538,o),
(112,1511,o),
(112,1495,cs),
(112,1478,o),
(119,1462,o),
(130,1455,c),
(166,1428,o),
(245,1441,o),
(245,1369,cs),
(245,1364,o),
(245,1359,o),
(244,1354,c),
(37,0,l)
);
},
{
closed = 1;
nodes = (
(71,1247,l),
(57,1241,o),
(45,1229,o),
(41,1204,c),
(41,1188,o),
(43,1156,o),
(59,1155,c),
(222,1155,l),
(630,1155,l),
(645,1161,o),
(659,1198,o),
(662,1223,c),
(663,1226,o),
(663,1229,o),
(663,1232,cs),
(663,1245,o),
(656,1256,o),
(643,1257,c),
(234,1257,l,{
name = hr00;
})
);
}
);
width = 1152;
},
{
anchors = (
{
name = bottom;
pos = (575,0);
},
{
name = center;
pos = (827,945);
},
{
name = top;
pos = (404,1478);
}
);
layerId = "BDB4B313-38B1-4B24-B843-560B185382BD";
shapes = (
{
closed = 1;
nodes = (
(337,0,l),
(441,669,l),
(488,716,o),
(598,838,o),
(747,838,cs),
(866,838,o),
(859,769,o),
(859,689,c),
(768,105,l),
(768,59,o),
(793,-13,o),
(953,-13,cs),
(1019,-13,o),
(1109,0,o),
(1230,34,c),
(1248,40,o),
(1255,61,o),
(1255,76,cs),
(1255,94,o),
(1248,114,o),
(1230,114,cs),
(1220,114,o),
(1180,103,o),
(1149,103,cs),
(1114,103,o),
(1088,117,o),
(1092,175,c),
(1185,763,l),
(1205,961,o),
(1085,1014,o),
(945,1014,cs),
(679,1014,o),
(499,832,o),
(448,785,c),
(504,1104,l),
(570,1508,l),
(572,1540,o),
(557,1548,o),
(546,1548,cs),
(465,1548,o),
(306,1550,o),
(116,1538,cs),
(100,1537,o),
(88,1510,o),
(85,1494,c),
(82,1469,o),
(91,1460,o),
(104,1454,c),
(152,1441,o),
(239,1451,o),
(239,1357,cs),
(239,1348,o),
(238,1339,o),
(237,1329,c),
(28,0,l)
);
},
{
closed = 1;
nodes = (
(99,1247,l),
(85,1241,o),
(73,1229,o),
(69,1204,c),
(69,1188,o),
(71,1156,o),
(87,1155,c),
(250,1155,l),
(748,1155,l),
(763,1161,o),
(777,1198,o),
(780,1223,c),
(781,1226,o),
(781,1229,o),
(781,1232,cs),
(781,1245,o),
(774,1256,o),
(761,1257,c),
(262,1257,l)
);
}
);
width = 1383;
}
);
unicode = 295;
}
{
glyphname = idotless;
layers = (
{
anchors = (
{
name = bottom;
pos = (230,0);
},
{
name = ogonek;
pos = (480,10);
},
{
name = top;
pos = (360,994);
}
);
layerId = "D92FDD0B-F694-41DD-AE46-0E4F694F0F38";
shapes = (
{
closed = 1;
nodes = (
(353,-13,o),
(428,16,o),
(480,41,cs),
(498,50,o),
(505,67,o),
(505,83,cs,{
name = hr02;
}),
(505,112,o),
(492,113,o),
(480,113,cs),
(460,113,o),
(408,96,o),
(380,96,cs),
(335,96,o),
(321,118,o),
(321,150,c),
(466,957,l,{
name = hr01;
}),
(470,989,o),
(453,997,o),
(442,997,cs),
(386,997,o),
(270,995,o),
(140,987,cs),
(124,986,o),
(112,959,o),
(110,943,cs),
(107,918,o),
(114,909,o),
(128,903,c),
(172,890,o),
(251,906,o),
(251,812,cs),
(251,804,o),
(250,795,o),
(249,785,c),
(125,142,l),
(124,135,o),
(123,117,o),
(123,102,cs),
(123,57,o),
(129,-13,o),
(245,-13,cs)
);
}
);
width = 609;
},
{
anchors = (
{
name = bottom;
pos = (310,0);
},
{
name = ogonek;
pos = (606,10);
},
{
name = top;
pos = (438,994);
}
);
layerId = "BDB4B313-38B1-4B24-B843-560B185382BD";
shapes = (
{
closed = 1;
nodes = (
(438,-13,o),
(509,0,o),
(616,30,cs),
(634,35,o),
(640,48,o),
(640,60,cs),
(640,78,o),
(635,107,o),
(617,107,cs),
(601,107,o),
(565,96,o),
(536,96,cs),
(505,96,o),
(474,99,o),
(474,140,c),
(600,957,l),
(601,989,o),
(587,997,o),
(576,997,cs),
(496,997,o),
(340,999,o),
(154,987,cs),
(138,986,o),
(126,959,o),
(124,943,cs),
(121,918,o),
(128,909,o),
(142,903,c),
(186,890,o),
(268,906,o),
(268,816,cs),
(268,807,o),
(267,797,o),
(265,785,cs),
(164,173,ls),
(160,150,o),
(158,121,o),
(158,96,cs),
(158,60,o),
(180,-13,o),
(297,-13,cs)
);
}
);
width = 749;
}
);
unicode = 305;
userData = {
com.typemytype.robofont.guides = (
{
angle = 82;
isGlobal = 0;
magnetic = 5;
x = 234;
y = 0;
}
);
};
}
{
glyphname = kgreenlandic;
layers = (
{
anchors = (
{
name = bottom;
pos = (495,0);
},
{
name = top;
pos = (643,986);
}
);
layerId = "D92FDD0B-F694-41DD-AE46-0E4F694F0F38";
shapes = (
{
closed = 1;
nodes = (
(293,0,l),
(353,374,l),
(450,450,l),
(535,357,o),
(642,157,o),
(708,37,cs,{
name = hr02;
}),
(724,8,o),
(763,-13,o),
(827,-13,cs),
(876,-13,o),
(937,0,o),
(1027,34,c),
(1045,40,o),
(1052,61,o),
(1052,76,cs),
(1052,79,o),
(1052,82,o),
(1051,85,c),
(1047,107,o),
(1040,114,o),
(1027,114,cs),
(1010,114,o),
(976,103,o),
(948,103,cs),
(911,103,o),
(879,142,o),
(856,175,cs),
(768,302,o),
(665,492,o),
(585,552,c),
(853,819,l),
(906,861,o),
(987,906,o),
(1052,906,cs),
(1076,906,o),
(1091,928,o),
(1091,954,cs),
(1091,970,o),
(1084,994,o),
(1063,994,cs),
(670,994,ls),
(647,994,o),
(632,964,o),
(630,949,c),
(629,945,o),
(629,940,o),
(629,936,cs),
(629,920,o),
(635,908,o),
(655,906,cs),
(701,901,o),
(759,896,o),
(759,872,cs),
(759,864,o),
(752,854,o),
(738,842,c),
(371,485,l),
(447,957,l,{
name = hr03;
}),
(451,989,o),
(434,997,o),
(423,997,cs),
(367,997,o),
(239,995,o),
(109,987,cs),
(93,986,o),
(81,959,o),
(79,943,c),
(77,918,o),
(83,909,o),
(97,903,c),
(141,890,o),
(231,899,o),
(231,806,c),
(101,0,l)
);
}
);
width = 1138;
},
{
anchors = (
{
name = bottom;
pos = (598,0);
},
{
name = top;
pos = (746,994);
}
);
layerId = "BDB4B313-38B1-4B24-B843-560B185382BD";
shapes = (
{
closed = 1;
nodes = (
(396,0,l),
(453,353,l),
(540,424,l),
(616,329,o),
(721,160,o),
(778,37,c),
(794,10,o),
(830,-13,o),
(887,-13,cs),
(1032,-13,o),
(1130,0,o),
(1257,34,c),
(1275,40,o),
(1282,61,o),
(1282,76,cs),
(1282,79,o),
(1282,82,o),
(1281,85,c),
(1277,107,o),
(1270,114,o),
(1257,114,cs),
(1246,114,o),
(1218,103,o),
(1198,103,cs),
(1161,103,o),
(1132,145,o),
(1106,175,cs),
(991,308,o),
(878,520,o),
(790,614,c),
(973,808,l),
(1041,861,o),
(1173,910,o),
(1262,906,cs),
(1286,905,o),
(1301,928,o),
(1301,954,cs),
(1301,970,o),
(1294,994,o),
(1273,994,cs),
(740,994,ls),
(717,994,o),
(702,964,o),
(700,949,c),
(699,945,o),
(699,940,o),
(699,936,cs),
(699,920,o),
(705,908,o),
(725,906,cs),
(775,901,o),
(854,893,o),
(854,862,cs),
(854,849,o),
(850,842,o),
(838,832,c),
(472,471,l),
(553,961,ls),
(558,993,o),
(540,1001,o),
(529,1001,cs),
(449,1001,o),
(271,1003,o),
(85,991,cs),
(69,990,o),
(57,963,o),
(55,947,c),
(53,922,o),
(59,913,o),
(73,907,c),
(117,894,o),
(207,903,o),
(207,810,c),
(74,0,l)
);
}
);
width = 1343;
}
);
unicode = 312;
}
{
color = 1;
glyphname = Lslash;
layers = (
{
layerId = "D92FDD0B-F694-41DD-AE46-0E4F694F0F38";
shapes = (
{
closed = 1;
nodes = (
(894,894,l),
(898,898,o),
(900,907,o),
(900,918,cs),
(900,957,o),
(884,1004,o),
(855,994,c),
(73,674,l),
(67,668,o),
(64,657,o),
(64,645,cs),
(64,616,o),
(93,568,o),
(112,574,c)
);
},
{
ref = L;
}
);
width = 1236;
},
{
layerId = "BDB4B313-38B1-4B24-B843-560B185382BD";
shapes = (
{
closed = 1;
nodes = (
(1036,894,l),
(1040,898,o),
(1042,907,o),
(1042,918,cs),
(1042,957,o),
(1026,1004,o),
(997,994,c),
(103,674,l),
(97,668,o),
(94,657,o),
(94,645,cs),
(94,616,o),
(123,568,o),
(142,574,c)
);
},
{
pos = (5,0);
ref = L;
}
);
width = 1404;
}
);
unicode = 321;
}
{
color = 1;
glyphname = lslash;
layers = (
{
layerId = "D92FDD0B-F694-41DD-AE46-0E4F694F0F38";
shapes = (
{
closed = 1;
nodes = (
(621,890,l),
(625,894,o),
(633,907,o),
(633,926,cs),
(633,965,o),
(627,1005,o),
(598,995,c),
(27,702,l),
(21,696,o),
(18,685,o),
(18,673,cs),
(18,644,o),
(35,592,o),
(54,598,c)
);
},
{
ref = l;
}
);
width = 584;
},
{
layerId = "BDB4B313-38B1-4B24-B843-560B185382BD";
shapes = (
{
closed = 1;
nodes = (
(739,890,l),
(743,894,o),
(751,907,o),
(751,926,cs),
(751,965,o),
(745,1005,o),
(716,995,c),
(27,702,l),
(21,696,o),
(18,685,o),
(18,673,cs),
(18,644,o),
(35,592,o),
(54,598,c)
);
},
{
ref = l;
}
);
width = 726;
}
);
unicode = 322;
}
{
color = 1;
glyphname = Eng;
layers = (
{
anchors = (
{
name = bottom;
pos = (185,0);
},
{
name = top;
pos = (1044,1419);
}
);
layerId = "D92FDD0B-F694-41DD-AE46-0E4F694F0F38";
shapes = (
{
closed = 1;
nodes = (
(1026,-449,o),
(1282,-234,o),
(1323,41,cs),
(1466,1000,ls),
(1526,1399,o),
(1198,1439,o),
(1049,1439,cs),
(838,1439,o),
(622,1305,o),
(574,1220,c),
(599,1382,l),
(600,1414,o),
(586,1422,o),
(575,1422,cs),
(520,1422,o),
(387,1421,o),
(237,1413,cs,{
name = "❌";
}),
(221,1412,o),
(209,1384,o),
(207,1368,cs),
(203,1343,o),
(211,1334,o),
(224,1328,c),
(292,1314,o),
(393,1327,o),
(375,1203,cs),
(216,142,ls),
(210,98,o),
(141,84,o),
(71,78,cs),
(44,75,o),
(35,62,o),
(32,41,cs),
(30,26,o),
(37,0,o),
(60,0,cs),
(546,0,ls),
(568,0,o),
(584,26,o),
(586,41,cs),
(591,71,o),
(583,75,o),
(556,77,cs),
(477,83,o),
(415,89,o),
(428,175,cs),
(572,1136,l),
(640,1227,o),
(800,1321,o),
(979,1321,cs),
(1097,1321,o),
(1300,1280,o),
(1259,1001,cs),
(1109,0,ls),
(1063,-306,o),
(904,-347,o),
(734,-347,c),
(686,-206,ls),
(680,-188,o),
(664,-170,o),
(642,-170,cs),
(585,-170,o),
(529,-218,o),
(529,-285,cs),
(529,-380,o),
(591,-449,o),
(774,-449,cs)
);
}
);
width = 1571;
},
{
anchors = (
{
name = bottom;
pos = (258,0);
},
{
name = top;
pos = (1108,1419);
}
);
background = {
shapes = (
{
closed = 1;
nodes = (
(1145,-491,o),
(1420,-215,o),
(1471,123,cs),
(1592,923,ls),
(1664,1397,o),
(1415,1447,o),
(1218,1447,cs),
(984,1447,o),
(772,1318,o),
(660,1208,c),
(688,1390,l,{
name = hr02;
}),
(690,1422,o),
(675,1430,o),
(664,1430,cs),
(586,1430,o),
(423,1427,o),
(237,1416,cs),
(221,1415,o),
(209,1388,o),
(207,1372,cs),
(203,1347,o),
(212,1338,o),
(225,1332,c),
(273,1318,o),
(374,1335,o),
(356,1211,cs),
(196,142,ls),
(189,98,o),
(110,84,o),
(60,78,cs),
(34,75,o),
(25,62,o),
(22,41,cs,{
name = hr01;
}),
(19,26,o),
(27,0,o),
(50,0,cs),
(645,0,ls),
(667,0,o),
(682,26,o),
(685,41,cs),
(689,71,o),
(682,75,o),
(654,78,cs),
(603,83,o),
(500,89,o),
(513,175,cs),
(652,1100,l),
(757,1182,o),
(935,1295,o),
(1114,1295,cs),
(1209,1295,o),
(1326,1233,o),
(1283,949,cs),
(1144,28,ls),
(1091,-324,o),
(841,-389,o),
(770,-389,c),
(694,-204,ls),
(681,-171,o),
(651,-156,o),
(619,-156,cs),
(550,-156,o),
(475,-208,o),
(464,-286,cs),
(452,-368,o),
(553,-491,o),
(756,-491,cs)
);
}
);
};
layerId = "BDB4B313-38B1-4B24-B843-560B185382BD";
shapes = (
{
closed = 1;
nodes = (
(1145,-491,o),
(1420,-215,o),
(1471,123,cs),
(1592,923,ls),
(1659,1367,o),
(1415,1447,o),
(1241,1447,cs),
(984,1447,o),
(772,1318,o),
(660,1208,c),
(688,1390,l,{
name = hr02;
}),
(690,1422,o),
(675,1430,o),
(664,1430,cs),
(586,1430,o),
(423,1427,o),
(237,1416,cs),
(221,1415,o),
(209,1388,o),
(207,1372,cs),
(203,1347,o),
(212,1338,o),
(225,1332,c),
(273,1318,o),
(374,1335,o),
(356,1211,cs),
(196,142,ls),
(189,98,o),
(110,84,o),
(60,78,cs),
(34,75,o),
(25,62,o),
(22,41,cs,{
name = hr01;
}),
(19,26,o),
(27,0,o),
(50,0,cs),
(655,0,ls),
(677,0,o),
(681,19,o),
(685,41,cs),
(689,64,o),
(682,75,o),
(654,78,cs),
(603,83,o),
(500,89,o),
(513,175,cs),
(652,1100,l),
(757,1182,o),
(935,1257,o),
(1056,1257,cs),
(1219,1257,o),
(1316,1164,o),
(1273,883,cs),
(1144,28,ls),
(1091,-324,o),
(841,-389,o),
(770,-389,c),
(694,-204,ls),
(681,-171,o),
(651,-146,o),
(619,-146,cs),
(529,-146,o),
(464,-208,o),
(464,-286,cs),
(464,-369,o),
(553,-491,o),
(756,-491,cs)
);
}
);
width = 1699;
}
);
unicode = 330;
}
{
glyphname = eng;
layers = (
{
anchors = (
{
name = bottom;
pos = (220,0);
},
{
name = top;
pos = (687,986);
}
);
background = {
shapes = (
{
closed = 1;
nodes = (
(1024,786,o),
(1026,804,o),
(1026,821,cs),
(1026,981,o),
(924,1014,o),
(818,1014,cs,{
name = hr02;
}),
(633,1014,o),
(472,842,o),
(419,785,c),
(445,957,ls,{
name = hr03;
}),
(450,989,o),
(432,997,o),
(421,997,cs),
(365,997,o),
(247,995,o),
(117,987,cs),
(101,986,o),
(89,959,o),
(87,943,cs),
(84,918,o),
(91,909,o),
(105,903,c),
(149,890,o),
(239,899,o),
(239,806,cs),
(239,797,o),
(239,788,o),
(237,778,cs),
(116,0,l),
(308,0,l),
(417,689,l),
(483,774,o),
(630,874,o),
(740,874,cs,{
name = hr04;
}),
(802,874,o),
(831,861,o),
(831,810,cs),
(831,802,o),
(831,794,o),
(829,784,cs),
(732,142,l,{
name = hr05;
}),
(732,142,o),
(730,124,o),
(730,102,cs),
(730,57,o),
(736,-13,o),
(852,-13,cs),
(901,-13,o),
(995,10,o),
(1087,41,cs),
(1105,47,o),
(1112,67,o),
(1112,83,cs,{
name = hr06;
}),
(1112,112,o),
(1099,113,o),
(1087,113,cs),
(1067,113,o),
(1015,96,o),
(987,96,cs),
(941,96,o),
(928,119,o),
(928,151,cs),
(928,159,o),
(929,167,o),
(930,175,c),
(1022,766,l,{
name = hr01;
})
);
}
);
};
layerId = "D92FDD0B-F694-41DD-AE46-0E4F694F0F38";
shapes = (
{
closed = 1;
nodes = (
(718,-449,o),
(891,-186,o),
(934,88,cs),
(1041,763,ls),
(1045,786,o),
(1046,807,o),
(1046,826,cs),
(1046,979,o),
(931,1014,o),
(816,1014,cs),
(631,1014,o),
(473,842,o),
(420,785,c),
(446,957,l,{
name = hr03;
}),
(450,989,o),
(433,997,o),
(422,997,cs),
(366,997,o),
(248,995,o),
(118,987,cs),
(102,986,o),
(90,959,o),
(88,943,cs),
(85,918,o),
(92,909,o),
(106,903,c),
(150,890,o),
(240,899,o),
(240,806,cs),
(240,797,o),
(240,788,o),
(238,778,c),
(115,0,l),
(307,0,l),
(418,689,l),
(484,774,o),
(633,874,o),
(738,874,cs,{
name = hr03;
}),
(814,874,o),
(847,861,o),
(847,792,cs),
(847,776,o),
(845,758,o),
(842,736,cs),
(738,56,ls,{
name = hr01;
}),
(681,-317,o),
(600,-345,o),
(523,-347,c),
(471,-202,l),
(464,-185,o),
(448,-178,o),
(420,-178,cs),
(365,-178,o),
(320,-224,o),
(308,-285,cs),
(307,-290,o),
(307,-295,o),
(307,-300,cs),
(307,-367,o),
(362,-449,o),
(480,-449,cs)
);
}
);
width = 1184;
},
{
anchors = (
{
name = bottom;
pos = (245,0);
},
{
name = top;
pos = (768,994);
}
);
background = {
shapes = (
{
closed = 1;
nodes = (
(1242,744,o),
(1244,767,o),
(1244,789,cs),
(1244,961,o),
(1142,1014,o),
(1029,1014,cs),
(754,1014,o),
(596,842,o),
(533,785,c),
(559,957,ls),
(564,989,o),
(546,997,o),
(535,997,cs),
(455,997,o),
(297,999,o),
(111,987,cs),
(95,986,o),
(83,959,o),
(81,943,cs),
(78,918,o),
(85,909,o),
(99,903,c),
(143,890,o),
(232,899,o),
(232,806,cs),
(232,798,o),
(232,788,o),
(230,778,cs),
(109,0,l),
(421,0,l),
(531,689,l),
(597,759,o),
(709,844,o),
(848,844,cs),
(905,844,o),
(927,804,o),
(927,744,cs),
(927,730,o),
(926,716,o),
(924,701,cs),
(841,142,l),
(841,142,o),
(836,124,o),
(836,101,cs),
(836,53,o),
(856,-17,o),
(980,-13,cs),
(1143,-8,o),
(1271,42,o),
(1296,54,cs),
(1302,57,o),
(1304,67,o),
(1304,76,cs),
(1304,96,o),
(1292,119,o),
(1270,113,cs),
(1245,106,o),
(1206,100,o),
(1187,100,cs),
(1170,100,o),
(1159,115,o),
(1159,155,cs),
(1159,166,o),
(1160,180,o),
(1162,195,cs),
(1239,719,l)
);
}
);
};
layerId = "BDB4B313-38B1-4B24-B843-560B185382BD";
shapes = (
{
closed = 1;
nodes = (
(996,-448,o),
(1118,-185,o),
(1159,90,cs),
(1251,714,ls),
(1255,741,o),
(1257,766,o),
(1257,789,cs),
(1257,957,o),
(1141,1014,o),
(1029,1014,cs),
(759,1014,o),
(596,842,o),
(534,785,c),
(560,957,l),
(564,989,o),
(547,997,o),
(536,997,cs),
(456,997,o),
(297,999,o),
(111,987,cs),
(95,986,o),
(83,959,o),
(81,943,cs),
(78,918,o),
(85,909,o),
(99,903,c),
(143,890,o),
(233,899,o),
(233,806,cs),
(233,797,o),
(233,788,o),
(231,778,c),
(109,0,l),
(422,0,l),
(532,689,l),
(596,759,o),
(712,844,o),
(848,844,cs),
(897,844,o),
(941,814,o),
(941,745,cs),
(941,732,o),
(940,718,o),
(938,702,cs),
(842,58,ls),
(790,-293,o),
(714,-346,o),
(648,-346,c),
(563,-144,l),
(556,-122,o),
(533,-115,o),
(495,-115,cs),
(406,-115,o),
(363,-180,o),
(348,-253,cs),
(347,-258,o),
(347,-263,o),
(347,-268,cs),
(347,-348,o),
(433,-448,o),
(595,-448,cs)
);
}
);
width = 1388;
}
);
unicode = 331;
}
{
glyphname = OE;
layers = (
{
anchors = (
{
name = bottom;
pos = (1061,0);
},
{
name = top;
pos = (1247,1419);
}
);
layerId = "D92FDD0B-F694-41DD-AE46-0E4F694F0F38";
shapes = (
{
closed = 1;
nodes = (
(853,-29,o),
(900,0,o),
(1061,0,cs),
(1900,0,l),
(1995,372,ls),
(2001,394,o),
(1980,406,o),
(1955,406,cs),
(1934,406,o),
(1913,398,o),
(1905,373,cs),
(1865,263,o),
(1757,97,o),
(1623,97,cs),
(1262,97,ls),
(1223,97,o),
(1174,121,o),
(1182,177,cs),
(1252,687,l),
(1524,687,ls),
(1580,687,o),
(1596,543,o),
(1596,501,cs),
(1596,476,o),
(1625,470,o),
(1646,470,cs),
(1661,470,o),
(1690,481,o),
(1693,504,cs),
(1743,948,ls),
(1746,971,o),
(1720,981,o),
(1704,981,cs),
(1682,981,o),
(1655,974,o),
(1650,948,cs),
(1642,908,o),
(1584,773,o),
(1539,773,cs),
(1264,773,l),
(1342,1331,l),
(1734,1332,ls),
(1872,1332,o),
(1903,1143,o),
(1903,1094,cs),
(1904,1068,o),
(1926,1062,o),
(1947,1062,cs),
(1962,1062,o),
(1988,1073,o),
(1989,1095,cs),
(2003,1418,l),
(1153,1419,ls),
(1089,1419,o),
(1051,1449,o),
(894,1449,cs),
(445,1449,o),
(124,1056,o),
(124,591,cs),
(124,240,o),
(320,-29,o),
(683,-29,cs)
);
},
{
closed = 1;
nodes = (
(447,65,o),
(358,222,o),
(358,488,cs),
(358,956,o),
(490,1360,o),
(874,1360,cs),
(1039,1360,o),
(1103,1313,o),
(1127,1275,c),
(967,141,l),
(919,78,o),
(835,65,o),
(699,65,cs)
);
}
);
width = 2044;
},
{
anchors = (
{
name = bottom;
pos = (1213,0);
},
{
name = top;
pos = (1424,1419);
}
);
layerId = "BDB4B313-38B1-4B24-B843-560B185382BD";
shapes = (
{
closed = 1;
nodes = (
(874,-29,o),
(962,0,o),
(1043,0,cs),
(2158,1,l),
(2231,372,ls),
(2236,395,o),
(2209,406,o),
(2184,406,cs),
(2163,406,o),
(2134,398,o),
(2124,373,cs),
(2108,332,o),
(1996,101,o),
(1862,101,cs),
(1487,101,ls),
(1446,101,o),
(1392,114,o),
(1401,171,cs),
(1481,682,l),
(1736,682,ls),
(1793,682,o),
(1809,546,o),
(1807,503,cs),
(1806,477,o),
(1842,470,o),
(1873,470,cs),
(1888,470,o),
(1916,481,o),
(1920,504,cs),
(1990,947,ls),
(1994,970,o),
(1968,981,o),
(1953,981,cs),
(1924,981,o),
(1885,974,o),
(1877,948,cs),
(1865,908,o),
(1807,778,o),
(1754,778,cs),
(1496,778,l),
(1584,1332,l),
(1988,1332,ls),
(2112,1332,o),
(2151,1152,o),
(2145,1103,cs),
(2142,1077,o),
(2178,1070,o),
(2199,1070,cs),
(2214,1070,o),
(2245,1081,o),
(2247,1104,cs),
(2272,1418,l),
(1255,1418,ls),
(1185,1418,o),
(1148,1449,o),
(979,1449,cs),
(440,1449,o),
(108,1045,o),
(108,571,cs),
(108,220,o),
(327,-29,o),
(704,-29,cs)
);
},
{
closed = 1;
nodes = (
(575,65,o),
(470,255,o),
(470,530,cs),
(470,916,o),
(598,1360,o),
(952,1360,cs),
(1131,1360,o),
(1194,1313,o),
(1221,1234,c),
(1049,152,ls),
(1043,116,o),
(971,65,o),
(727,65,cs)
);
}
);
width = 2264;
}
);
unicode = 338;
}
{
glyphname = oe;
layers = (
{
anchors = (
{
name = top;
pos = (958,986);
}
);
layerId = "D92FDD0B-F694-41DD-AE46-0E4F694F0F38";
shapes = (
{
closed = 1;
nodes = (
(614,-28,o),
(723,36,o),
(808,140,c),
(876,34,o),
(997,-29,o),
(1163,-29,cs,{
name = hr02;
}),
(1329,-29,o),
(1445,50,o),
(1534,164,c),
(1537,170,o),
(1545,176,o),
(1545,183,cs),
(1545,186,o),
(1544,189,o),
(1540,192,cs),
(1503,225,ls),
(1492,231,o),
(1492,223,o),
(1481,215,c),
(1389,124,o),
(1308,75,o),
(1194,75,cs),
(1070,75,o),
(962,154,o),
(962,362,cs),
(962,378,o),
(962,394,o),
(963,409,c),
(1396,454,o),
(1611,611,o),
(1611,804,cs),
(1611,898,o),
(1547,1014,o),
(1331,1014,cs),
(1163,1014,o),
(1013,933,o),
(922,794,c),
(895,930,o),
(770,1014,o),
(622,1014,cs),
(276,1014,o),
(76,709,o),
(76,414,cs,{
name = hr01;
}),
(76,155,o),
(215,-28,o),
(459,-28,cs)
);
},
{
closed = 1;
nodes = (
(1004,770,o),
(1158,933,o),
(1325,933,cs,{
name = hr04;
}),
(1376,933,o),
(1424,901,o),
(1424,838,cs),
(1424,660,o),
(1293,536,o),
(968,486,c)
);
},
{
closed = 1;
nodes = (
(321,59,o),
(287,185,o),
(287,365,cs),
(287,635,o),
(375,926,o),
(624,926,cs,{
name = hr05;
}),
(707,926,o),
(773,840,o),
(773,701,cs),
(773,396,o),
(663,59,o),
(453,59,cs)
);
}
);
width = 1690;
},
{
anchors = (
{
name = top;
pos = (1100,994);
}
);
layerId = "BDB4B313-38B1-4B24-B843-560B185382BD";
shapes = (
{
closed = 1;
nodes = (
(745,-28,o),
(876,17,o),
(972,93,c),
(1053,15,o),
(1174,-29,o),
(1327,-29,cs),
(1564,-29,o),
(1681,50,o),
(1818,164,cs),
(1821,170,o),
(1829,176,o),
(1829,183,cs),
(1829,186,o),
(1828,189,o),
(1824,192,cs),
(1787,225,ls),
(1779,232,o),
(1771,223,o),
(1764,215,cs),
(1654,143,o),
(1556,105,o),
(1418,105,cs),
(1305,105,o),
(1195,173,o),
(1195,360,cs),
(1195,376,o),
(1195,392,o),
(1196,407,c),
(1632,465,o),
(1854,558,o),
(1854,781,cs),
(1854,875,o),
(1771,1014,o),
(1495,1014,cs),
(1337,1014,o),
(1190,957,o),
(1078,861,c),
(1000,957,o),
(868,1014,o),
(663,1014,cs),
(281,1014,o),
(69,724,o),
(69,445,cs),
(69,168,o),
(220,-28,o),
(580,-28,cs)
);
},
{
closed = 1;
nodes = (
(1226,768,o),
(1332,933,o),
(1449,933,cs),
(1534,933,o),
(1553,871,o),
(1553,808,cs),
(1553,630,o),
(1428,534,o),
(1201,484,c)
);
},
{
closed = 1;
nodes = (
(448,59,o),
(415,169,o),
(415,349,cs),
(415,618,o),
(485,926,o),
(665,926,cs),
(809,926,o),
(852,827,o),
(852,643,cs),
(852,373,o),
(774,59,o),
(574,59,cs)
);
}
);
width = 1910;
}
);
unicode = 339;
}
{
glyphname = Tbar;
layers = (
{
layerId = "D92FDD0B-F694-41DD-AE46-0E4F694F0F38";
shapes = (
{
closed = 1;
nodes = (
(1078,604,l),
(1093,610,o),
(1112,661,o),
(1112,683,cs),
(1112,697,o),
(1107,711,o),
(1093,711,cs),
(285,711,l),
(269,704,o),
(252,676,o),
(252,648,cs),
(252,631,o),
(257,604,o),
(270,604,cs)
);
},
{
ref = T;
}
);
width = 1267;
},
{
layerId = "BDB4B313-38B1-4B24-B843-560B185382BD";
shapes = (
{
closed = 1;
nodes = (
(1158,604,l),
(1173,610,o),
(1192,661,o),
(1192,683,cs),
(1192,697,o),
(1187,711,o),
(1173,711,cs),
(285,711,l),
(269,704,o),
(252,676,o),
(252,648,cs),
(252,631,o),
(257,604,o),
(270,604,cs)
);
},
{
ref = T;
}
);
width = 1401;
}
);
unicode = 358;
}
{
color = 1;
glyphname = tbar;
layers = (
{
layerId = "D92FDD0B-F694-41DD-AE46-0E4F694F0F38";
shapes = (
{
closed = 1;
nodes = (
(100,666,l),
(86,660,o),
(74,648,o),
(70,623,c),
(70,607,o),
(72,575,o),
(88,574,c),
(251,574,l),
(659,574,l),
(674,580,o),
(688,617,o),
(691,642,c),
(692,645,o),
(692,648,o),
(692,651,cs),
(692,664,o),
(685,675,o),
(672,676,c),
(263,676,l,{
name = hr00;
})
);
},
{
ref = t;
}
);
width = 711;
},
{
layerId = "BDB4B313-38B1-4B24-B843-560B185382BD";
shapes = (
{
closed = 1;
nodes = (
(90,666,l),
(76,660,o),
(64,648,o),
(60,623,c),
(60,607,o),
(62,575,o),
(78,574,c),
(241,574,l),
(719,574,l),
(734,580,o),
(748,617,o),
(751,642,c),
(752,645,o),
(752,648,o),
(752,651,cs),
(752,664,o),
(745,675,o),
(732,676,c),
(253,676,l)
);
},
{
ref = t;
}
);
width = 854;
}
);
unicode = 359;
}
{
glyphname = longs;
layers = (
{
layerId = "D92FDD0B-F694-41DD-AE46-0E4F694F0F38";
shapes = (
{
closed = 1;
nodes = (
(473,0,ls),
(496,0,o),
(511,26,o),
(514,41,cs),
(520,71,o),
(511,75,o),
(483,78,cs),
(419,85,o),
(323,89,o),
(336,175,c),
(475,1107,l),
(522,1421,o),
(603,1463,o),
(679,1475,c),
(764,1312,l),
(765,1310,o),
(770,1309,o),
(775,1309,cs),
(811,1309,o),
(909,1363,o),
(912,1441,cs),
(915,1509,o),
(858,1573,o),
(730,1573,cs),
(488,1573,o),
(322,1330,o),
(284,1075,c),
(145,142,l),
(138,98,o),
(69,84,o),
(19,78,cs),
(-7,75,o),
(-16,62,o),
(-19,41,cs),
(-21,26,o),
(-15,0,o),
(8,0,cs)
);
}
);
width = 603;
},
{
layerId = "BDB4B313-38B1-4B24-B843-560B185382BD";
shapes = (
{
closed = 1;
nodes = (
(592,0,ls),
(615,0,o),
(630,26,o),
(632,41,cs),
(636,71,o),
(629,75,o),
(602,78,c),
(537,82,o),
(441,88,o),
(453,165,c),
(594,1107,l),
(637,1396,o),
(682,1449,o),
(735,1449,c),
(857,1278,l),
(857,1276,o),
(868,1275,o),
(868,1275,c),
(933,1274,o),
(995,1334,o),
(1007,1416,cs),
(1018,1494,o),
(963,1563,o),
(780,1563,cs),
(486,1563,o),
(311,1331,o),
(273,1076,c),
(132,132,l),
(126,95,o),
(57,82,o),
(8,78,c),
(-19,75,o),
(-28,62,o),
(-31,41,cs,{
name = hr00;
}),
(-33,26,o),
(-26,0,o),
(-3,0,cs)
);
}
);
width = 740;
}
);
unicode = 383;
}
{
color = 1;
glyphname = Bhook;
layers = (
{
anchors = (
{
name = bottom;
pos = (923,0);
},
{
name = top;
pos = (1076,1419);
}
);
layerId = "D92FDD0B-F694-41DD-AE46-0E4F694F0F38";
shapes = (
{
closed = 1;
nodes = (
(341,35,o),
(347,0,o),
(371,0,cs),
(977,0,ls),
(1331,0,o),
(1553,174,o),
(1553,451,cs),
(1553,676,o),
(1365,745,o),
(1212,765,c),
(1400,791,o),
(1571,963,o),
(1567,1134,cs),
(1562,1355,o),
(1364,1419,o),
(1074,1419,cs),
(680,1419,ls),
(419,1419,o),
(172,1272,o),
(172,1014,cs),
(172,922,o),
(227,868,o),
(305,868,cs),
(384,868,o),
(425,939,o),
(425,1001,cs),
(425,1012,o),
(424,1012,o),
(422,1012,c),
(270,1093,l),
(270,1153,o),
(377,1331,o),
(629,1331,cs),
(691,1331,o),
(714,1317,o),
(701,1234,cs),
(535,152,ls),
(528,107,o),
(453,94,o),
(378,88,cs),
(351,86,o),
(342,71,o),
(342,51,cs,{
name = hr00;
})
);
},
{
closed = 1;
nodes = (
(816,715,l),
(991,715,ls),
(1095,715,o),
(1329,696,o),
(1334,458,cs),
(1341,131,o),
(1125,96,o),
(937,96,cs),
(888,96,o),
(724,100,o),
(729,133,cs)
);
},
{
closed = 1;
nodes = (
(909,1331,l),
(1011,1331,ls),
(1224,1331,o),
(1351,1285,o),
(1351,1117,cs),
(1351,853,o),
(1128,801,o),
(1000,801,cs),
(829,801,l)
);
}
);
width = 1662;
},
{
anchors = (
{
name = bottom;
pos = (1022,0);
},
{
name = top;
pos = (1198,1419);
}
);
layerId = "BDB4B313-38B1-4B24-B843-560B185382BD";
shapes = (
{
closed = 1;
nodes = (
(344,29,o),
(349,0,o),
(371,0,cs),
(1015,0,ls),
(1546,0,o),
(1758,165,o),
(1763,437,cs),
(1767,635,o),
(1574,737,o),
(1371,747,c),
(1606,765,o),
(1737,939,o),
(1737,1112,cs),
(1737,1308,o),
(1593,1419,o),
(1139,1419,cs),
(678,1419,ls),
(292,1419,o),
(120,1218,o),
(120,999,cs),
(120,815,o),
(194,767,o),
(282,767,cs),
(360,767,o),
(404,864,o),
(404,926,cs),
(404,932,o),
(403,937,o),
(401,938,cs),
(238,1028,l),
(238,1130,o),
(314,1331,o),
(625,1331,cs),
(689,1331,o),
(715,1317,o),
(703,1234,cs),
(541,152,ls),
(534,107,o),
(457,93,o),
(382,88,cs),
(353,86,o),
(344,69,o),
(344,46,cs)
);
},
{
closed = 1;
nodes = (
(965,704,l),
(1037,704,ls),
(1212,704,o),
(1396,696,o),
(1394,458,cs),
(1388,131,o),
(1169,100,o),
(1009,100,cs),
(976,100,o),
(880,104,o),
(885,137,cs)
);
},
{
closed = 1;
nodes = (
(1053,1331,l),
(1088,1331,ls),
(1289,1331,o),
(1396,1278,o),
(1396,1132,cs),
(1396,896,o),
(1318,790,o),
(1108,790,cs),
(977,790,l)
);
}
);
width = 1869;
}
);
metricRight = B;
unicode = 385;
}
{
color = 1;
glyphname = Dhook;
layers = (
{
anchors = (
{
name = bottom;
pos = (998,0);
},
{
name = center;
pos = (1098,710);
},
{
name = top;
pos = (1112,1419);
}
);
layerId = "D92FDD0B-F694-41DD-AE46-0E4F694F0F38";
shapes = (
{
closed = 1;
nodes = (
(854,0,ls),
(1414,0,o),
(1736,322,o),
(1736,824,cs),
(1736,1095,o),
(1614,1419,o),
(1003,1419,cs),
(660,1419,ls),
(379,1419,o),
(132,1272,o),
(132,1014,cs),
(132,922,o),
(187,868,o),
(265,868,cs),
(344,868,o),
(385,939,o),
(385,1001,cs),
(385,1012,o),
(384,1012,o),
(382,1012,c),
(230,1093,l),
(230,1133,o),
(315,1328,o),
(589,1330,cs),
(644,1330,o),
(689,1320,o),
(680,1234,c),
(516,152,l),
(512,108,o),
(410,93,o),
(345,88,cs),
(318,85,o),
(309,72,o),
(309,51,c,{
name = hr00;
}),
(306,36,o),
(315,0,o),
(338,0,cs)
);
},
{
closed = 1;
nodes = (
(727,101,o),
(737,115,o),
(725,153,c),
(898,1331,l),
(968,1331,ls),
(1323,1331,o),
(1506,1182,o),
(1506,827,cs),
(1506,318,o),
(1266,101,o),
(896,101,cs)
);
}
);
width = 1835;
},
{
anchors = (
{
name = bottom;
pos = (1076,0);
},
{
name = center;
pos = (1176,710);
},
{
name = top;
pos = (1277,1419);
}
);
layerId = "BDB4B313-38B1-4B24-B843-560B185382BD";
shapes = (
{
closed = 1;
nodes = (
(1084,0,ls),
(1543,0,o),
(1938,329,o),
(1938,877,cs),
(1938,1158,o),
(1739,1419,o),
(1245,1419,cs),
(649,1419,ls),
(269,1419,o),
(87,1198,o),
(87,999,cs),
(87,815,o),
(191,767,o),
(269,767,cs),
(347,767,o),
(391,864,o),
(391,926,cs),
(391,932,o),
(390,937,o),
(388,938,cs),
(225,1028,l),
(225,1130,o),
(301,1331,o),
(576,1331,cs),
(636,1331,o),
(695,1320,o),
(684,1250,cs),
(518,152,ls),
(512,108,o),
(428,93,o),
(363,88,cs),
(336,85,o),
(327,72,o),
(325,51,cs),
(322,36,o),
(330,0,o),
(352,0,cs)
);
},
{
closed = 1;
nodes = (
(870,91,o),
(864,113,o),
(864,135,c),
(1045,1331,l),
(1148,1331,ls),
(1397,1331,o),
(1573,1251,o),
(1573,904,cs),
(1573,338,o),
(1334,91,o),
(1030,91,cs)
);
}
);
width = 2000;
}
);
metricRight = D;
unicode = 394;
}
{
color = 1;
glyphname = Eturned;
layers = (
{
anchors = (
{
name = bottom;
pos = (585,0);
},
{
name = top;
pos = (797,1419);
}
);
layerId = "D92FDD0B-F694-41DD-AE46-0E4F694F0F38";
shapes = (
{
closed = 1;
nodes = (
(1105,0,ls),
(1128,0,o),
(1146,36,o),
(1148,51,c),
(1154,72,o),
(1149,85,o),
(1125,88,cs),
(1061,93,o),
(972,108,o),
(980,152,cs),
(1142,1234,l),
(1158,1320,o),
(1270,1326,o),
(1331,1331,cs),
(1354,1333,o),
(1364,1336,o),
(1369,1353,cs),
(1377,1382,o),
(1371,1419,o),
(1346,1419,cs),
(307,1419,l),
(225,1096,ls),
(219,1073,o),
(244,1062,o),
(259,1062,cs),
(280,1062,o),
(301,1069,o),
(311,1095,c),
(322,1136,o),
(411,1331,o),
(549,1331,cs),
(952,1331,l),
(867,773,l),
(588,773,l),
(537,780,o),
(525,908,o),
(528,948,cs),
(531,974,o),
(504,981,o),
(483,981,cs),
(468,981,o),
(437,970,o),
(435,947,c),
(352,504,l),
(350,481,o),
(375,470,o),
(390,470,cs),
(411,470,o),
(444,477,o),
(449,503,c),
(464,546,o),
(520,687,o),
(576,687,cs),
(854,687,l),
(776,174,l),
(759,117,o),
(714,101,o),
(673,97,c),
(312,97,ls),
(148,97,o),
(142,332,o),
(142,373,cs),
(140,398,o),
(123,406,o),
(102,406,cs),
(77,406,o),
(58,395,o),
(52,372,c),
(6,0,l)
);
}
);
width = 1317;
},
{
anchors = (
{
name = bottom;
pos = (660,0);
},
{
name = top;
pos = (872,1419);
}
);
layerId = "BDB4B313-38B1-4B24-B843-560B185382BD";
shapes = (
{
closed = 1;
nodes = (
(1274,0,ls),
(1297,0,o),
(1315,36,o),
(1316,51,c),
(1321,72,o),
(1315,85,o),
(1289,88,cs),
(1226,93,o),
(1126,108,o),
(1133,152,cs),
(1297,1247,l),
(1319,1321,o),
(1426,1326,o),
(1484,1331,cs),
(1507,1333,o),
(1517,1336,o),
(1522,1353,cs),
(1530,1381,o),
(1521,1419,o),
(1497,1419,cs),
(299,1419,l),
(231,1104,l),
(228,1081,o),
(258,1070,o),
(276,1070,cs),
(297,1070,o),
(327,1077,o),
(334,1103,cs),
(347,1144,o),
(415,1331,o),
(562,1331,cs),
(965,1331,l),
(878,778,l),
(601,778,l),
(550,785,o),
(529,908,o),
(528,948,cs),
(528,974,o),
(491,981,o),
(462,981,cs),
(447,981,o),
(418,970,o),
(415,947,cs),
(354,504,ls),
(351,481,o),
(376,470,o),
(391,470,cs),
(422,470,o),
(461,477,o),
(466,503,c),
(478,546,o),
(534,682,o),
(591,682,cs),
(863,682,l),
(784,176,l),
(768,120,o),
(725,105,o),
(685,101,c),
(356,101,ls),
(192,101,o),
(188,332,o),
(185,373,cs),
(184,398,o),
(158,406,o),
(137,406,cs),
(100,406,o),
(73,395,o),
(68,372,cs),
(6,0,l)
);
}
);
width = 1467;
}
);
metricRight = H;
unicode = 398;
}
{
glyphname = Schwa;
layers = (
{
anchors = (
{
name = bottom;
pos = (656,0);
},
{
name = top;
pos = (868,1419);
}
);
layerId = "D92FDD0B-F694-41DD-AE46-0E4F694F0F38";
shapes = (
{
closed = 1;
nodes = (
(1078,-30,o),
(1403,381,o),
(1403,854,cs),
(1403,1291,o),
(1072,1449,o),
(804,1449,cs),
(539,1449,o),
(401,1392,o),
(326,1361,c),
(258,1051,l),
(257,1048,o),
(257,1045,o),
(257,1042,cs),
(257,1024,o),
(274,1011,o),
(288,1011,c),
(315,1010,o),
(332,1013,o),
(340,1039,c),
(412,1206,o),
(554,1353,o),
(787,1353,cs),
(919,1353,o),
(1158,1286,o),
(1158,892,cs),
(1158,835,o),
(1153,776,o),
(1144,716,c),
(153,716,ls),
(125,716,o),
(102,543,o),
(102,477,cs),
(102,241,o),
(221,-30,o),
(612,-30,cs)
);
},
{
closed = 1;
nodes = (
(417,65,o),
(306,224,o),
(306,431,cs),
(306,512,o),
(318,558,o),
(340,628,c),
(1127,628,l),
(1061,338,o),
(886,65,o),
(610,65,cs)
);
}
);
width = 1459;
},
{
anchors = (
{
name = bottom;
pos = (738,0);
},
{
name = top;
pos = (950,1419);
}
);
layerId = "BDB4B313-38B1-4B24-B843-560B185382BD";
shapes = (
{
closed = 1;
nodes = (
(1167,-30,o),
(1578,329,o),
(1578,834,cs),
(1578,1286,o),
(1176,1449,o),
(860,1449,cs),
(600,1449,o),
(413,1392,o),
(339,1361,c),
(271,1051,l),
(265,1028,o),
(304,1011,o),
(321,1011,cs),
(325,1011,o),
(328,1010,o),
(334,1010,cs),
(360,1010,o),
(403,1017,o),
(411,1039,c),
(482,1207,o),
(604,1353,o),
(848,1353,cs),
(974,1353,o),
(1204,1282,o),
(1204,893,cs),
(1204,810,o),
(1196,725,o),
(1180,641,c),
(136,641,ls),
(107,641,o),
(84,505,o),
(84,447,cs),
(84,227,o),
(237,-30,o),
(669,-30,cs)
);
},
{
closed = 1;
nodes = (
(500,65,o),
(423,204,o),
(423,356,cs),
(423,408,o),
(437,504,o),
(458,546,c),
(1160,552,l),
(1088,288,o),
(928,65,o),
(666,65,cs)
);
}
);
width = 1624;
}
);
metricLeft = O;
metricRight = O;
unicode = 399;
}
{
color = 4;
glyphname = Eopen;
layers = (
{
anchors = (
{
name = bottom;
pos = (520,0);
},
{
name = top;
pos = (767,1419);
}
);
layerId = "D92FDD0B-F694-41DD-AE46-0E4F694F0F38";
shapes = (
{
closed = 1;
nodes = (
(867,-28,o),
(1124,111,o),
(1124,330,cs),
(1124,407,o),
(1083,456,o),
(1016,456,cs),
(980,456,o),
(925,429,o),
(912,383,c),
(931,200,l),
(896,140,o),
(822,67,o),
(589,67,cs),
(387,67,o),
(271,161,o),
(271,311,cs),
(271,490,o),
(381,696,o),
(686,696,cs),
(749,696,ls),
(777,696,o),
(787,753,o),
(787,776,cs),
(787,796,o),
(781,810,o),
(766,810,cs),
(703,810,ls),
(561,810,o),
(458,915,o),
(458,1050,cs),
(458,1175,o),
(543,1350,o),
(768,1350,cs),
(937,1350,o),
(946,1286,o),
(960,1243,c),
(963,1191,o),
(963,1130,o),
(964,1090,cs),
(965,1049,o),
(979,1015,o),
(1019,1015,cs),
(1114,1015,o),
(1169,1088,o),
(1169,1167,cs),
(1169,1324,o),
(968,1446,o),
(767,1446,cs),
(410,1446,o),
(246,1238,o),
(246,1040,cs),
(246,884,o),
(370,799,o),
(530,761,c),
(247,758,o),
(77,564,o),
(77,325,cs),
(77,106,o),
(276,-28,o),
(560,-28,cs)
);
}
);
width = 1214;
},
{
anchors = (
{
name = bottom;
pos = (668,0);
},
{
name = top;
pos = (867,1419);
}
);
layerId = "BDB4B313-38B1-4B24-B843-560B185382BD";
shapes = (
{
closed = 1;
nodes = (
(1009,-21,o),
(1313,118,o),
(1313,344,cs),
(1313,427,o),
(1265,498,o),
(1186,498,cs),
(1100,498,o),
(1058,460,o),
(1043,427,c),
(1062,194,l),
(1019,143,o),
(928,74,o),
(728,74,cs),
(528,74,o),
(453,160,o),
(453,341,cs),
(453,455,o),
(494,688,o),
(823,688,cs),
(906,688,ls),
(936,688,o),
(941,750,o),
(941,769,cs),
(941,787,o),
(936,800,o),
(922,800,cs),
(849,800,ls),
(689,800,o),
(607,890,o),
(607,1023,cs),
(607,1143,o),
(667,1349,o),
(867,1349,cs),
(978,1349,o),
(1029,1325,o),
(1058,1243,c),
(1068,1181,o),
(1074,1114,o),
(1083,1075,cs),
(1095,1019,o),
(1133,996,o),
(1177,996,cs),
(1278,996,o),
(1345,1088,o),
(1345,1173,cs),
(1345,1344,o),
(1094,1446,o),
(885,1446,cs),
(549,1446,o),
(286,1327,o),
(286,1043,cs),
(286,886,o),
(396,779,o),
(576,751,c),
(282,749,o),
(79,571,o),
(79,380,cs),
(79,89,o),
(342,-21,o),
(706,-21,cs)
);
}
);
width = 1402;
}
);
unicode = 400;
}
{
glyphname = florin;
layers = (
{
layerId = "D92FDD0B-F694-41DD-AE46-0E4F694F0F38";
shapes = (
{
closed = 1;
nodes = (
(263,-460,o),
(422,-217,o),
(480,38,c),
(603,509,l),
(851,509,l),
(866,515,o),
(877,537,o),
(880,562,cs),
(881,578,o),
(875,595,o),
(859,596,c),
(625,596,l),
(693,851,l),
(770,1184,o),
(850,1221,o),
(937,1224,c),
(1021,1080,l),
(1025,1077,o),
(1032,1076,o),
(1041,1076,cs),
(1082,1076,o),
(1164,1108,o),
(1164,1190,cs),
(1164,1255,o),
(1103,1317,o),
(983,1317,cs),
(727,1317,o),
(560,1074,o),
(503,819,c),
(444,596,l),
(251,596,l),
(235,590,o),
(222,565,o),
(222,538,cs),
(222,523,o),
(229,510,o),
(243,509,c),
(422,509,l),
(289,6,l),
(218,-327,o),
(137,-364,o),
(52,-367,c),
(-50,-219,l),
(-89,-219,o),
(-164,-248,o),
(-173,-321,cs),
(-180,-390,o),
(-118,-460,o),
(10,-460,cs)
);
}
);
width = 1063;
},
{
layerId = "BDB4B313-38B1-4B24-B843-560B185382BD";
shapes = (
{
closed = 1;
nodes = (
(378,-448,o),
(548,-206,o),
(612,50,cs),
(729,521,l),
(1019,521,l),
(1035,528,o),
(1053,577,o),
(1053,601,cs),
(1053,614,o),
(1048,627,o),
(1034,628,c),
(756,628,l),
(811,851,ls),
(868,1079,o),
(905,1172,o),
(996,1192,c),
(1162,997,l),
(1162,994,o),
(1173,993,o),
(1173,993,c),
(1241,992,o),
(1318,1050,o),
(1323,1144,cs),
(1327,1236,o),
(1224,1317,o),
(1080,1317,cs),
(738,1317,o),
(563,1077,o),
(501,819,cs),
(453,628,l),
(275,628,l),
(258,621,o),
(242,594,o),
(242,565,cs),
(242,547,o),
(247,522,o),
(260,521,c),
(427,521,l),
(301,18,ls),
(254,-172,o),
(220,-305,o),
(152,-325,c),
(-52,-120,l),
(-121,-120,o),
(-181,-189,o),
(-181,-276,cs),
(-181,-365,o),
(-117,-448,o),
(68,-448,cs)
);
}
);
width = 1186;
}
);
unicode = 402;
}
{
color = 9;
glyphname = Khook;
layers = (
{
anchors = (
{
name = bottom;
pos = (723,0);
},
{
name = top;
pos = (976,1419);
}
);
layerId = "D92FDD0B-F694-41DD-AE46-0E4F694F0F38";
shapes = (
{
closed = 1;
nodes = (
(562,0,ls),
(585,0,o),
(598,36,o),
(601,51,cs),
(607,80,o),
(595,85,o),
(568,88,cs),
(508,95,o),
(410,99,o),
(423,185,cs),
(587,1267,ls),
(594,1311,o),
(665,1326,o),
(730,1331,cs),
(756,1334,o),
(766,1347,o),
(770,1368,cs),
(773,1383,o),
(765,1419,o),
(742,1419,cs),
(247,1419,ls),
(222,1419,o),
(205,1381,o),
(205,1353,cs),
(205,1336,o),
(214,1333,o),
(236,1331,cs),
(288,1327,o),
(365,1322,o),
(377,1265,cs),
(379,1256,o),
(379,1246,o),
(377,1234,cs),
(213,152,ls),
(206,108,o),
(139,94,o),
(74,88,cs),
(44,85,o),
(37,69,o),
(37,45,cs,{
name = hr00;
}),
(37,28,o),
(47,0,o),
(67,0,cs)
);
},
{
closed = 1;
nodes = (
(1344,0,ls),
(1366,0,o),
(1376,17,o),
(1379,32,cs),
(1385,61,o),
(1378,86,o),
(1350,89,cs),
(1259,99,o),
(1156,245,o),
(1111,317,cs),
(1014,472,o),
(912,693,o),
(797,782,c),
(1112,1142,ls),
(1217,1262,o),
(1299,1345,o),
(1371,1345,c),
(1355,1161,l),
(1496,1161,o),
(1606,1238,o),
(1606,1317,cs),
(1606,1395,o),
(1552,1450,o),
(1434,1450,cs),
(1248,1450,o),
(1172,1364,o),
(1032,1211,cs),
(557,692,l),
(700,674,o),
(830,239,o),
(978,70,cs),
(1007,37,o),
(1041,0,o),
(1112,0,cs)
);
}
);
width = 1494;
},
{
anchors = (
{
name = bottom;
pos = (832,0);
},
{
name = top;
pos = (1144,1419);
}
);
layerId = "BDB4B313-38B1-4B24-B843-560B185382BD";
shapes = (
{
closed = 1;
nodes = (
(717,0,ls),
(738,0,o),
(759,37,o),
(759,63,cs),
(759,82,o),
(750,85,o),
(727,88,cs),
(657,93,o),
(551,97,o),
(562,169,cs),
(728,1267,ls),
(734,1312,o),
(799,1326,o),
(867,1331,cs),
(893,1333,o),
(903,1347,o),
(907,1368,c),
(908,1383,o),
(904,1419,o),
(881,1419,cs),
(267,1419,ls),
(243,1419,o),
(223,1381,o),
(223,1353,cs),
(223,1336,o),
(232,1333,o),
(254,1331,cs),
(310,1326,o),
(392,1321,o),
(392,1251,cs),
(392,1246,o),
(392,1240,o),
(391,1234,cs),
(228,152,ls),
(221,108,o),
(138,93,o),
(73,88,cs),
(46,86,o),
(37,72,o),
(35,51,cs),
(32,36,o),
(39,0,o),
(62,0,cs)
);
},
{
closed = 1;
nodes = (
(1617,0,ls),
(1642,0,o),
(1656,19,o),
(1656,53,cs),
(1656,72,o),
(1649,87,o),
(1627,89,cs),
(1532,98,o),
(1428,244,o),
(1376,317,cs),
(1306,415,o),
(1157,658,o),
(996,846,c),
(1280,1107,ls),
(1409,1222,o),
(1541,1371,o),
(1610,1357,c),
(1565,1143,ls),
(1565,1143,o),
(1838,1119,o),
(1865,1327,cs),
(1874,1395,o),
(1817,1469,o),
(1671,1469,cs),
(1456,1469,o),
(1307,1281,o),
(1159,1142,cs),
(698,692,l),
(781,625,o),
(960,339,o),
(1099,70,cs),
(1114,41,o),
(1132,0,o),
(1199,0,cs)
);
}
);
width = 1752;
}
);
unicode = 408;
}
